<svg xmlns="http://www.w3.org/2000/svg" xmlns:xlink="http://www.w3.org/1999/xlink" width="321" zoomAndPan="magnify" viewBox="0 0 240.75 141.750002" height="189" preserveAspectRatio="xMidYMid meet" version="1.0"><defs><g/></defs><path stroke-linecap="butt" transform="matrix(0.433048, 0, 0, 0.433048, 69.545103, 55.515904)" fill="none" stroke-linejoin="miter" d="M 18.351512 33.329597 C 18.351512 33.140169 18.396614 32.995844 18.477797 32.887599 C 18.568001 32.788375 18.685265 32.734253 18.847632 32.734253 L 32.684869 32.734253 C 33.000582 32.734253 33.153928 32.91466 33.153928 33.275475 L 33.126867 36.288276 C 33.126867 36.757335 32.910378 36.991864 32.477401 36.991864 L 24.846173 36.991864 C 24.449277 36.991864 24.250829 37.154231 24.250829 37.478964 L 24.250829 39.923482 C 24.250829 40.266256 24.404176 40.437643 24.719888 40.437643 L 29.464599 40.437643 C 29.807373 40.437643 29.98778 40.61805 29.98778 40.960824 L 29.98778 44.135992 C 29.98778 44.424644 29.825414 44.57799 29.518721 44.57799 L 24.656746 44.57799 C 24.539481 44.57799 24.440257 44.605051 24.359074 44.677214 C 24.286911 44.740356 24.250829 44.83958 24.250829 44.965865 L 24.250829 51.244038 C 24.250829 51.52367 24.178666 51.722118 24.034341 51.839382 C 23.899035 51.947627 23.682546 52.001749 23.393895 52.001749 L 19.0551 52.001749 C 18.79351 52.001749 18.604082 51.947627 18.504858 51.848403 C 18.405634 51.740158 18.351512 51.577792 18.351512 51.352283 Z M 52.07865 51.171875 C 52.114731 51.235018 52.132772 51.334242 52.132772 51.451507 C 52.132772 51.613873 52.08767 51.740158 51.988446 51.848403 C 51.898243 51.947627 51.771958 52.001749 51.618611 52.001749 L 46.576228 52.001749 C 46.215414 52.001749 45.980884 51.821342 45.87264 51.451507 L 43.437142 44.749377 C 43.38302 44.614071 43.292816 44.505827 43.175551 44.442684 C 43.058287 44.370522 42.877879 44.34346 42.625309 44.34346 L 41.434621 44.34346 C 41.335397 44.34346 41.254214 44.370522 41.200092 44.442684 C 41.15499 44.505827 41.127929 44.56897 41.127929 44.623092 L 41.127929 51.244038 C 41.127929 51.52367 41.055766 51.722118 40.920461 51.839382 C 40.776135 51.947627 40.559646 52.001749 40.270994 52.001749 L 35.905139 52.001749 C 35.643548 52.001749 35.463141 51.947627 35.372937 51.848403 C 35.273713 51.740158 35.228611 51.577792 35.228611 51.352283 L 35.228611 33.329597 C 35.228611 32.932701 35.390978 32.734253 35.724731 32.734253 L 44.402321 32.734253 C 46.909982 32.734253 48.85838 33.212332 50.238496 34.168491 C 51.627632 35.13367 52.313179 36.486724 52.313179 38.236675 C 52.313179 39.427362 51.997467 40.500786 51.366041 41.429883 C 50.734616 42.368001 49.922783 43.026487 48.921523 43.405343 C 48.813278 43.459465 48.759156 43.540648 48.759156 43.666933 C 48.759156 43.712035 48.777197 43.793218 48.813278 43.901463 Z M 44.167791 40.464704 C 44.826278 40.464704 45.331418 40.302338 45.683212 39.968584 C 46.044027 39.62581 46.215414 39.174792 46.215414 38.597489 C 46.215414 37.957043 46.007945 37.460923 45.574968 37.109129 C 45.151011 36.748315 44.62783 36.576928 44.005425 36.576928 L 41.723273 36.576928 C 41.497764 36.576928 41.344418 36.613009 41.254214 36.694192 C 41.173031 36.766355 41.127929 36.901661 41.127929 37.091088 L 41.127929 39.923482 C 41.127929 40.11291 41.15499 40.248216 41.218133 40.338419 C 41.272255 40.428623 41.389519 40.464704 41.560906 40.464704 Z M 63.227819 52.263339 C 61.342563 52.263339 59.691836 51.857423 58.275639 51.054611 C 56.868463 50.251798 55.776999 49.106212 55.019288 47.626873 C 54.252557 46.147533 53.873702 44.406603 53.873702 42.422123 C 53.873702 40.428623 54.261578 38.687693 55.028309 37.190312 C 55.80406 35.692932 56.895524 34.529305 58.3027 33.708452 C 59.709877 32.887599 61.351583 32.472662 63.227819 32.472662 C 65.076993 32.472662 66.700659 32.887599 68.107835 33.708452 C 69.505992 34.529305 70.597456 35.692932 71.364186 37.190312 C 72.139938 38.687693 72.518793 40.428623 72.518793 42.422123 C 72.518793 44.397583 72.139938 46.120472 71.373207 47.608832 C 70.615496 49.097192 69.533053 50.251798 68.125876 51.054611 C 66.72772 51.857423 65.095034 52.263339 63.227819 52.263339 Z M 63.227819 48.204176 C 63.985529 48.204176 64.589894 48.023769 65.040912 47.653934 C 65.49193 47.275078 65.825683 46.679735 66.033152 45.849861 C 66.24062 45.019988 66.339844 43.901463 66.339844 42.494286 C 66.339844 40.34744 66.096294 38.804957 65.609195 37.87586 C 65.131115 36.937742 64.337323 36.468683 63.227819 36.468683 C 62.100273 36.468683 61.288441 36.937742 60.792321 37.87586 C 60.305221 38.804957 60.061671 40.34744 60.061671 42.494286 C 60.061671 43.901463 60.160895 45.019988 60.368364 45.849861 C 60.575832 46.679735 60.909585 47.275078 61.360604 47.653934 C 61.820642 48.023769 62.443047 48.204176 63.227819 48.204176 Z M 91.353311 32.734253 C 91.605881 32.734253 91.741187 32.878579 91.741187 33.16723 L 91.741187 51.53269 C 91.741187 51.667995 91.678044 51.78526 91.5698 51.875464 C 91.461556 51.956647 91.31723 52.001749 91.145843 52.001749 L 87.582799 52.001749 C 87.429453 52.001749 87.303168 51.974688 87.203944 51.920566 C 87.113741 51.866443 87.005496 51.767219 86.879211 51.613873 L 79.744104 41.926003 C 79.671941 41.835799 79.608798 41.799718 79.554676 41.817759 C 79.509574 41.835799 79.482513 41.889922 79.482513 41.980125 L 79.482513 51.433466 C 79.500554 51.640934 79.455452 51.78526 79.365249 51.875464 C 79.266025 51.956647 79.103658 52.001749 78.851088 52.001749 L 75.324126 52.001749 C 74.891148 52.001749 74.67466 51.830362 74.67466 51.478568 L 74.67466 33.329597 C 74.67466 32.932701 74.864087 32.734253 75.242943 32.734253 L 79.482513 32.734253 C 79.708022 32.734253 79.870389 32.761314 79.987654 32.824457 C 80.095898 32.878579 80.222183 33.004864 80.366509 33.203312 L 86.59958 41.871881 C 86.698804 42.025227 86.798028 42.10641 86.879211 42.10641 C 86.969415 42.10641 87.014517 41.989146 87.014517 41.763637 L 87.014517 33.275475 C 87.014517 32.91466 87.203944 32.734253 87.582799 32.734253 Z M 93.81587 33.329597 C 93.81587 33.15821 93.869993 33.013884 93.978237 32.90564 C 94.095502 32.788375 94.257868 32.734253 94.465337 32.734253 L 109.989382 32.734253 C 110.20587 32.734253 110.368237 32.788375 110.476481 32.90564 C 110.584726 33.013884 110.647868 33.15821 110.647868 33.329597 L 110.647868 36.414561 C 110.647868 36.748315 110.458441 36.910681 110.070565 36.910681 L 105.4792 36.910681 C 105.271732 36.910681 105.163487 37.000885 105.163487 37.172272 L 105.163487 51.433466 C 105.163487 51.622894 105.118386 51.767219 105.037202 51.857423 C 104.946999 51.956647 104.829734 52.001749 104.676388 52.001749 L 99.742249 52.001749 C 99.426536 52.001749 99.27319 51.830362 99.27319 51.478568 L 99.27319 37.280516 C 99.27319 37.036966 99.173966 36.910681 98.984539 36.910681 L 94.411214 36.910681 C 94.014318 36.910681 93.81587 36.748315 93.81587 36.414561 Z M 120.173372 46.264798 C 120.173372 46.517368 120.110229 46.706796 119.965903 46.82406 C 119.830598 46.932305 119.614109 46.986427 119.316437 46.986427 L 113.110427 46.986427 C 112.848837 46.986427 112.66843 46.932305 112.578226 46.833081 C 112.479002 46.724836 112.4339 46.56247 112.4339 46.336961 L 112.4339 43.946564 C 112.4339 43.549668 112.596267 43.35122 112.93002 43.35122 L 119.704313 43.35122 C 119.848639 43.35122 119.956883 43.396322 120.047087 43.495546 C 120.13729 43.59477 120.173372 43.712035 120.173372 43.874402 Z M 122.590829 33.329597 C 122.590829 32.932701 122.753196 32.734253 123.086949 32.734253 L 137.104594 32.734253 C 137.420306 32.734253 137.573652 32.91466 137.573652 33.275475 L 137.546591 36.288276 C 137.546591 36.757335 137.321082 36.991864 136.870064 36.991864 L 129.085491 36.991864 C 128.688595 36.991864 128.490147 37.154231 128.490147 37.478964 L 128.490147 39.688953 C 128.490147 39.86034 128.526228 39.995645 128.616432 40.094869 C 128.697615 40.194093 128.81488 40.239195 128.959206 40.239195 L 133.631754 40.239195 C 133.992568 40.239195 134.172976 40.410582 134.172976 40.753356 L 134.172976 43.973626 C 134.172976 44.271298 134.019629 44.415623 133.703917 44.415623 L 128.896063 44.415623 C 128.778798 44.415623 128.679574 44.451705 128.598391 44.523868 C 128.526228 44.596031 128.490147 44.677214 128.490147 44.776438 L 128.490147 47.374302 C 128.490147 47.518628 128.508187 47.608832 128.553289 47.662954 C 128.589371 47.717076 128.670554 47.735117 128.796839 47.735117 L 137.230879 47.735117 C 137.618754 47.735117 137.808182 47.906504 137.808182 48.231237 L 137.808182 51.433466 C 137.808182 51.604853 137.75406 51.740158 137.645815 51.848403 C 137.546591 51.947627 137.393245 52.001749 137.185777 52.001749 L 123.294417 52.001749 C 123.032827 52.001749 122.843399 51.947627 122.744175 51.848403 C 122.635931 51.740158 122.590829 51.577792 122.590829 51.352283 Z M 156.687802 32.734253 C 156.949393 32.734253 157.075678 32.878579 157.075678 33.16723 L 157.075678 51.53269 C 157.075678 51.667995 157.021556 51.78526 156.904291 51.875464 C 156.796046 51.956647 156.651721 52.001749 156.480334 52.001749 L 152.926311 52.001749 C 152.763944 52.001749 152.637659 51.974688 152.538435 51.920566 C 152.448231 51.866443 152.339987 51.767219 152.222722 51.613873 L 145.078595 41.926003 C 145.006432 41.835799 144.943289 41.799718 144.898187 41.817759 C 144.844065 41.835799 144.817004 41.889922 144.817004 41.980125 L 144.817004 51.433466 C 144.835045 51.640934 144.798963 51.78526 144.699739 51.875464 C 144.609536 51.956647 144.438149 52.001749 144.194599 52.001749 L 140.658617 52.001749 C 140.225639 52.001749 140.018171 51.830362 140.018171 51.478568 L 140.018171 33.329597 C 140.018171 32.932701 140.207599 32.734253 140.586454 32.734253 L 144.817004 32.734253 C 145.042513 32.734253 145.2139 32.761314 145.322144 32.824457 C 145.439409 32.878579 145.565694 33.004864 145.701 33.203312 L 151.934071 41.871881 C 152.042315 42.025227 152.132519 42.10641 152.222722 42.10641 C 152.303906 42.10641 152.349007 41.989146 152.349007 41.763637 L 152.349007 33.275475 C 152.349007 32.91466 152.538435 32.734253 152.926311 32.734253 Z M 163.543278 32.734253 C 165.599921 32.734253 166.880813 32.743273 167.385953 32.761314 C 170.759569 32.878579 173.312332 33.789635 175.044241 35.494484 C 176.776151 37.199333 177.642106 39.472464 177.642106 42.313879 C 177.642106 44.217175 177.25423 45.894963 176.469459 47.356262 C 175.693707 48.80854 174.530081 49.945106 172.987598 50.765959 C 171.454137 51.586812 169.577901 52.001749 167.358892 52.001749 L 160.530477 52.001749 C 160.268886 52.001749 160.079459 51.938606 159.953174 51.821342 C 159.835909 51.704077 159.772766 51.496608 159.772766 51.216977 L 159.772766 33.374699 C 159.772766 33.140169 159.826889 32.968782 159.926113 32.878579 C 160.034357 32.779355 160.214764 32.734253 160.476355 32.734253 Z M 165.933674 36.811457 C 165.843471 36.811457 165.780328 36.829498 165.735226 36.88362 C 165.690125 36.937742 165.672084 37.027946 165.672084 37.172272 L 165.672084 47.527649 C 165.672084 47.690015 165.699145 47.789239 165.753267 47.843361 C 165.798369 47.897484 165.897593 47.924545 166.032898 47.924545 L 166.222326 47.924545 C 167.927175 47.924545 169.235127 47.473526 170.128143 46.589531 C 171.012139 45.696515 171.463157 44.244236 171.463157 42.232695 C 171.463157 40.500786 171.120383 39.210874 170.443856 38.37198 C 169.776349 37.515045 168.79313 37.036966 167.494197 36.910681 Z M 184.993702 33.329597 C 184.993702 32.932701 185.156068 32.734253 185.489822 32.734253 L 199.507466 32.734253 C 199.823179 32.734253 199.976525 32.91466 199.976525 33.275475 L 199.949464 36.288276 C 199.949464 36.757335 199.723955 36.991864 199.272937 36.991864 L 191.488363 36.991864 C 191.091467 36.991864 190.893019 37.154231 190.893019 37.478964 L 190.893019 39.688953 C 190.893019 39.86034 190.929101 39.995645 191.019305 40.094869 C 191.100488 40.194093 191.217753 40.239195 191.362078 40.239195 L 196.034626 40.239195 C 196.395441 40.239195 196.575848 40.410582 196.575848 40.753356 L 196.575848 43.973626 C 196.575848 44.271298 196.422502 44.415623 196.106789 44.415623 L 191.298936 44.415623 C 191.181671 44.415623 191.082447 44.451705 191.001264 44.523868 C 190.929101 44.596031 190.893019 44.677214 190.893019 44.776438 L 190.893019 47.374302 C 190.893019 47.518628 190.91106 47.608832 190.956162 47.662954 C 190.992243 47.717076 191.073427 47.735117 191.199712 47.735117 L 199.642772 47.735117 C 200.021627 47.735117 200.211055 47.906504 200.211055 48.231237 L 200.211055 51.433466 C 200.211055 51.604853 200.156932 51.740158 200.048688 51.848403 C 199.949464 51.947627 199.796118 52.001749 199.58865 52.001749 L 185.69729 52.001749 C 185.4357 52.001749 185.246272 51.947627 185.147048 51.848403 C 185.038804 51.740158 184.993702 51.577792 184.993702 51.352283 Z M 208.203096 52.001749 C 208.03171 52.001749 207.887384 51.947627 207.779139 51.839382 C 207.661875 51.722118 207.607752 51.586812 207.607752 51.433466 L 207.607752 33.40176 C 207.607752 33.212332 207.670895 33.058986 207.78816 32.932701 C 207.914445 32.797396 208.067791 32.734253 208.257219 32.734253 L 215.99669 32.734253 C 218.702799 32.734253 220.750422 33.15821 222.139558 34.015145 C 223.528694 34.872079 224.232282 36.14395 224.232282 37.821738 C 224.232282 38.741815 223.979712 39.517566 223.474571 40.148992 C 222.978451 40.780417 222.094456 41.384781 220.831605 41.980125 C 220.795523 41.989146 220.777483 42.025227 220.777483 42.070329 C 220.777483 42.115431 220.795523 42.142492 220.831605 42.160533 C 222.229761 42.674693 223.231022 43.288078 223.817345 44.000687 C 224.403669 44.704275 224.701341 45.624352 224.701341 46.760918 C 224.701341 48.537929 224.015793 49.854902 222.653718 50.711837 C 221.300664 51.568771 219.21696 52.001749 216.420647 52.001749 Z M 216.420647 40.266256 C 217.025012 40.266256 217.503091 40.094869 217.872926 39.770136 C 218.23374 39.436383 218.414148 39.012426 218.414148 38.498265 C 218.414148 37.939003 218.206679 37.487984 217.791743 37.145211 C 217.376806 36.802437 216.853625 36.62203 216.23122 36.62203 L 214.102414 36.62203 C 213.876905 36.62203 213.723559 36.667131 213.633355 36.748315 C 213.552172 36.820478 213.50707 36.955783 213.50707 37.145211 L 213.50707 39.688953 C 213.50707 39.896421 213.543151 40.049768 213.606294 40.139971 C 213.678457 40.221154 213.795722 40.266256 213.949068 40.266256 Z M 216.285342 48.104952 C 216.997951 48.104952 217.548193 47.906504 217.954109 47.509608 C 218.369046 47.112712 218.576514 46.643653 218.576514 46.102431 C 218.576514 45.57023 218.369046 45.128232 217.97215 44.776438 C 217.575254 44.433664 217.052073 44.262277 216.420647 44.262277 L 214.102414 44.262277 C 213.876905 44.262277 213.723559 44.298359 213.633355 44.388562 C 213.552172 44.478766 213.50707 44.614071 213.50707 44.803499 L 213.50707 47.527649 C 213.50707 47.744137 213.543151 47.888463 213.606294 47.978667 C 213.678457 48.06887 213.795722 48.104952 213.949068 48.104952 Z M 226.568556 52.001749 C 226.42423 52.001749 226.315986 51.956647 226.225782 51.857423 C 226.144599 51.767219 226.099497 51.631914 226.099497 51.451507 C 226.099497 51.334242 226.126558 51.189916 226.18068 51.03657 L 232.467873 33.329597 C 232.549057 33.104088 232.63926 32.950742 232.747505 32.860538 C 232.855749 32.779355 233.018116 32.734253 233.243625 32.734253 L 238.358171 32.734253 C 238.565639 32.734253 238.755067 32.797396 238.917433 32.932701 C 239.0798 33.058986 239.206085 33.221353 239.296288 33.428821 L 245.529359 51.117753 C 245.556421 51.262079 245.574461 51.361303 245.574461 51.433466 C 245.574461 51.586812 245.53838 51.722118 245.475237 51.839382 C 245.403074 51.947627 245.30385 52.001749 245.159525 52.001749 L 240.07204 52.001749 C 239.774368 52.001749 239.58494 51.848403 239.503757 51.559751 L 238.484456 48.574011 C 238.439354 48.447726 238.385232 48.375563 238.34013 48.330461 C 238.295028 48.285359 238.222865 48.258298 238.09658 48.258298 L 232.594159 48.258298 C 232.38669 48.258298 232.251385 48.357522 232.206283 48.54695 L 231.14188 51.613873 C 231.033636 51.875464 230.826167 52.001749 230.519475 52.001749 Z M 236.797648 43.84734 C 236.987075 43.84734 237.086299 43.757137 237.086299 43.58575 C 237.086299 43.549668 237.068259 43.468485 237.032177 43.324159 L 235.471654 38.886141 C 235.444593 38.795937 235.390471 38.750835 235.318308 38.750835 C 235.246145 38.750835 235.201044 38.795937 235.164962 38.886141 L 233.577378 43.297098 C 233.550317 43.369261 233.532276 43.459465 233.532276 43.558689 C 233.532276 43.748116 233.6315 43.84734 233.838969 43.84734 Z M 256.200449 32.472662 C 257.634687 32.472662 258.933619 32.725233 260.088226 33.239393 C 261.251853 33.744534 262.208011 34.448122 262.947681 35.350158 C 263.696371 36.252195 264.183471 37.280516 264.399959 38.444143 C 264.463102 38.651611 264.490163 38.813978 264.490163 38.940263 C 264.490163 39.093609 264.454081 39.201853 264.390939 39.246955 C 264.327796 39.301077 264.219552 39.337159 264.066206 39.3552 L 259.519943 39.634831 C 259.348556 39.634831 259.240312 39.60777 259.186189 39.544627 C 259.132067 39.490505 259.077945 39.3552 259.023823 39.138711 C 258.870477 38.308837 258.590845 37.659371 258.166888 37.190312 C 257.760972 36.712233 257.156608 36.468683 256.353795 36.468683 C 255.334494 36.468683 254.549723 36.919702 253.99046 37.821738 C 253.440218 38.723774 253.160587 40.185073 253.160587 42.214655 C 253.160587 44.298359 253.413157 45.786719 253.927318 46.670714 C 254.432458 47.55471 255.23527 47.996708 256.326734 47.996708 C 257.246811 47.996708 258.031583 47.771198 258.681049 47.30214 C 259.330515 46.833081 259.871737 46.048309 260.304714 44.965865 C 260.349816 44.803499 260.503162 44.731336 260.746712 44.731336 C 260.863977 44.731336 260.963201 44.740356 261.026343 44.749377 L 264.273674 45.407863 C 264.535265 45.489047 264.66155 45.687495 264.66155 46.003207 C 264.66155 46.490307 264.363878 47.238997 263.768534 48.249278 C 263.17319 49.259558 262.235072 50.188656 260.963201 51.018529 C 259.69133 51.848403 258.085705 52.263339 256.146327 52.263339 C 254.315193 52.263339 252.700548 51.821342 251.320433 50.946366 C 249.931297 50.071391 248.857873 48.871683 248.109183 47.338221 C 247.360493 45.804759 246.981638 44.063829 246.981638 42.10641 C 246.981638 40.167032 247.360493 38.471204 248.109183 37.018926 C 248.857873 35.566647 249.931297 34.448122 251.329453 33.65433 C 252.727609 32.869558 254.351275 32.472662 256.200449 32.472662 Z M 284.686756 51.198936 C 284.758919 51.334242 284.795001 51.469547 284.795001 51.613873 C 284.795001 51.875464 284.632634 52.001749 284.325942 52.001749 L 279.256498 52.001749 C 278.787439 52.001749 278.480746 51.830362 278.3274 51.478568 L 275.152232 44.262277 C 275.08909 44.154033 275.016927 44.108931 274.953784 44.108931 C 274.863581 44.108931 274.737296 44.199135 274.583949 44.388562 L 272.734775 46.760918 C 272.635551 46.878183 272.590449 47.06761 272.590449 47.329201 L 272.590449 51.244038 C 272.590449 51.52367 272.518286 51.722118 272.37396 51.839382 C 272.238655 51.947627 272.022166 52.001749 271.733515 52.001749 L 267.39472 52.001749 C 267.133129 52.001749 266.943702 51.947627 266.844478 51.848403 C 266.745254 51.740158 266.691132 51.577792 266.691132 51.352283 L 266.691132 33.329597 C 266.691132 33.140169 266.736233 32.995844 266.817417 32.887599 C 266.90762 32.788375 267.024885 32.734253 267.187252 32.734253 L 272.12139 32.734253 C 272.428083 32.734253 272.590449 32.91466 272.590449 33.275475 L 272.590449 39.842299 C 272.590449 40.049768 272.626531 40.158012 272.716734 40.158012 C 272.788897 40.158012 272.87008 40.094869 272.969304 39.977605 L 277.750097 33.275475 C 277.912463 33.068006 278.056789 32.932701 278.201115 32.851518 C 278.354461 32.770334 278.57095 32.734253 278.868622 32.734253 L 282.819541 32.734253 C 283.027009 32.734253 283.189376 32.770334 283.306641 32.851518 C 283.432926 32.932701 283.496068 33.031925 283.496068 33.16723 C 283.496068 33.293515 283.450966 33.40176 283.360763 33.482943 L 279.103151 38.705733 C 278.985887 38.841039 278.922744 38.985365 278.922744 39.138711 C 278.922744 39.264996 278.958826 39.391281 279.030988 39.535607 Z M 294.194219 46.264798 C 294.194219 46.517368 294.122056 46.706796 293.986751 46.82406 C 293.842425 46.932305 293.625936 46.986427 293.328264 46.986427 L 287.122254 46.986427 C 286.869684 46.986427 286.689277 46.932305 286.590053 46.833081 C 286.499849 46.724836 286.454747 46.56247 286.454747 46.336961 L 286.454747 43.946564 C 286.454747 43.549668 286.617114 43.35122 286.950867 43.35122 L 293.72516 43.35122 C 293.860466 43.35122 293.97773 43.396322 294.058914 43.495546 C 294.149117 43.59477 294.194219 43.712035 294.194219 43.874402 Z M 296.602656 33.329597 C 296.602656 32.932701 296.774043 32.734253 297.098776 32.734253 L 311.125441 32.734253 C 311.432133 32.734253 311.585479 32.91466 311.585479 33.275475 L 311.567439 36.288276 C 311.567439 36.757335 311.341929 36.991864 310.890911 36.991864 L 303.097317 36.991864 C 302.700422 36.991864 302.501974 37.154231 302.501974 37.478964 L 302.501974 39.688953 C 302.501974 39.86034 302.547075 39.995645 302.628259 40.094869 C 302.718462 40.194093 302.835727 40.239195 302.971032 40.239195 L 307.643581 40.239195 C 308.004395 40.239195 308.193823 40.410582 308.193823 40.753356 L 308.193823 43.973626 C 308.193823 44.271298 308.031456 44.415623 307.724764 44.415623 L 302.91691 44.415623 C 302.799645 44.415623 302.700422 44.451705 302.619238 44.523868 C 302.538055 44.596031 302.501974 44.677214 302.501974 44.776438 L 302.501974 47.374302 C 302.501974 47.518628 302.520014 47.608832 302.565116 47.662954 C 302.610218 47.717076 302.691401 47.735117 302.817686 47.735117 L 311.251726 47.735117 C 311.630581 47.735117 311.820009 47.906504 311.820009 48.231237 L 311.820009 51.433466 C 311.820009 51.604853 311.765887 51.740158 311.666663 51.848403 C 311.567439 51.947627 311.405072 52.001749 311.197604 52.001749 L 297.306244 52.001749 C 297.044654 52.001749 296.864247 51.947627 296.756002 51.848403 C 296.656778 51.740158 296.602656 51.577792 296.602656 51.352283 Z M 330.708649 32.734253 C 330.961219 32.734253 331.096525 32.878579 331.096525 33.16723 L 331.096525 51.53269 C 331.096525 51.667995 331.033382 51.78526 330.925138 51.875464 C 330.807873 51.956647 330.672568 52.001749 330.501181 52.001749 L 326.938137 52.001749 C 326.784791 52.001749 326.658506 51.974688 326.559282 51.920566 C 326.469079 51.866443 326.360834 51.767219 326.234549 51.613873 L 319.099442 41.926003 C 319.027279 41.835799 318.964136 41.799718 318.910014 41.817759 C 318.864912 41.835799 318.837851 41.889922 318.837851 41.980125 L 318.837851 51.433466 C 318.855892 51.640934 318.81079 51.78526 318.720587 51.875464 C 318.621363 51.956647 318.458996 52.001749 318.206426 52.001749 L 314.679464 52.001749 C 314.246486 52.001749 314.029998 51.830362 314.029998 51.478568 L 314.029998 33.329597 C 314.029998 32.932701 314.219425 32.734253 314.598281 32.734253 L 318.837851 32.734253 C 319.06336 32.734253 319.225727 32.761314 319.333971 32.824457 C 319.451236 32.878579 319.577521 33.004864 319.721847 33.203312 L 325.954918 41.871881 C 326.054142 42.025227 326.153366 42.10641 326.234549 42.10641 C 326.324753 42.10641 326.369855 41.989146 326.369855 41.763637 L 326.369855 33.275475 C 326.369855 32.91466 326.559282 32.734253 326.938137 32.734253 Z M 337.555105 32.734253 C 339.620768 32.734253 340.90166 32.743273 341.39778 32.761314 C 344.780416 32.878579 347.333179 33.789635 349.065088 35.494484 C 350.796998 37.199333 351.662953 39.472464 351.662953 42.313879 C 351.662953 44.217175 351.266057 45.894963 350.490306 47.356262 C 349.705534 48.80854 348.550928 49.945106 347.008446 50.765959 C 345.465964 51.586812 343.589728 52.001749 341.379739 52.001749 L 334.551324 52.001749 C 334.289733 52.001749 334.091285 51.938606 333.974021 51.821342 C 333.856756 51.704077 333.793614 51.496608 333.793614 51.216977 L 333.793614 33.374699 C 333.793614 33.140169 333.847736 32.968782 333.94696 32.878579 C 334.055204 32.779355 334.235611 32.734253 334.497202 32.734253 Z M 339.945501 36.811457 C 339.864318 36.811457 339.792155 36.829498 339.756074 36.88362 C 339.710972 36.937742 339.692931 37.027946 339.692931 37.172272 L 339.692931 47.527649 C 339.692931 47.690015 339.710972 47.789239 339.765094 47.843361 C 339.819216 47.897484 339.90942 47.924545 340.053746 47.924545 L 340.234153 47.924545 C 341.948022 47.924545 343.246954 47.473526 344.13997 46.589531 C 345.032986 45.696515 345.474984 44.244236 345.474984 42.232695 C 345.474984 40.500786 345.14123 39.210874 344.464703 38.37198 C 343.788176 37.515045 342.804956 37.036966 341.506024 36.910681 Z M 339.945501 36.811457 " stroke="#ffc710" stroke-width="1.173952" stroke-opacity="1" stroke-miterlimit="4"/><path stroke-linecap="butt" transform="matrix(0.433048, 0, 0, 0.433048, 69.545103, 55.515904)" fill="none" stroke-linejoin="miter" d="M 17.503598 76.997175 C 17.368292 76.997175 17.251027 76.952073 17.160824 76.86187 C 17.079641 76.762646 17.034539 76.62734 17.034539 76.455953 C 17.034539 76.329668 17.0616 76.194363 17.115722 76.031996 L 23.402915 58.325023 C 23.484098 58.099514 23.583322 57.946168 23.691567 57.864985 C 23.790791 57.774781 23.962178 57.729679 24.178666 57.729679 L 29.302233 57.729679 C 29.509701 57.729679 29.690108 57.792822 29.861495 57.928127 C 30.023862 58.054413 30.150147 58.225799 30.23133 58.433268 L 36.464401 76.1222 C 36.500483 76.257505 36.518523 76.36575 36.518523 76.428892 C 36.518523 76.582239 36.482442 76.717544 36.410279 76.834809 C 36.347136 76.943053 36.238892 76.997175 36.103587 76.997175 L 31.007081 76.997175 C 30.71843 76.997175 30.529002 76.852849 30.438799 76.555177 L 29.428518 73.569437 C 29.374396 73.452173 29.329294 73.370989 29.284192 73.325887 C 29.23909 73.280786 29.157907 73.262745 29.040642 73.262745 L 23.5292 73.262745 C 23.321732 73.262745 23.195447 73.352949 23.141325 73.542376 L 22.076922 76.6093 C 21.968677 76.87089 21.761209 76.997175 21.454517 76.997175 Z M 27.74171 68.842767 C 27.931138 68.842767 28.021341 68.761584 28.021341 68.590197 C 28.021341 68.554115 28.012321 68.463912 27.976239 68.328606 L 26.415717 63.890588 C 26.379635 63.800384 26.325513 63.755282 26.25335 63.755282 C 26.190207 63.755282 26.136085 63.800384 26.100004 63.890588 L 24.52144 68.301545 C 24.485359 68.364688 24.467318 68.454891 24.467318 68.563136 C 24.467318 68.752563 24.575562 68.842767 24.783031 68.842767 Z M 55.163614 57.729679 C 55.425205 57.729679 55.55149 57.874005 55.55149 58.171677 L 55.55149 76.528116 C 55.55149 76.672442 55.497368 76.780687 55.380103 76.87089 C 55.271858 76.961094 55.127533 76.997175 54.956146 76.997175 L 51.402123 76.997175 C 51.239756 76.997175 51.113471 76.979135 51.014247 76.925012 C 50.924043 76.87089 50.815799 76.762646 50.698534 76.6093 L 43.554407 66.92143 C 43.482244 66.840246 43.419101 66.804165 43.373999 66.813185 C 43.319877 66.831226 43.292816 66.885348 43.292816 66.975552 L 43.292816 76.428892 C 43.310857 76.636361 43.274775 76.780687 43.175551 76.87089 C 43.085348 76.961094 42.913961 76.997175 42.670411 76.997175 L 39.134429 76.997175 C 38.701451 76.997175 38.493983 76.825788 38.493983 76.483015 L 38.493983 58.325023 C 38.493983 57.928127 38.68341 57.729679 39.062266 57.729679 L 43.292816 57.729679 C 43.518325 57.729679 43.689712 57.765761 43.797956 57.819883 C 43.915221 57.883026 44.041506 58.009311 44.176812 58.198738 L 50.409883 66.876328 C 50.518127 67.029674 50.608331 67.101837 50.698534 67.101837 C 50.779718 67.101837 50.824819 66.993592 50.824819 66.768083 L 50.824819 58.279922 C 50.824819 57.910087 51.014247 57.729679 51.402123 57.729679 Z M 58.014049 76.997175 C 57.878743 76.997175 57.761479 76.952073 57.671275 76.86187 C 57.590092 76.762646 57.54499 76.62734 57.54499 76.455953 C 57.54499 76.329668 57.572051 76.194363 57.635194 76.031996 L 63.913366 58.325023 C 63.99455 58.099514 64.093774 57.946168 64.202018 57.864985 C 64.301242 57.774781 64.472629 57.729679 64.698138 57.729679 L 69.812684 57.729679 C 70.020152 57.729679 70.20056 57.792822 70.371946 57.928127 C 70.534313 58.054413 70.660598 58.225799 70.741781 58.433268 L 76.974852 76.1222 C 77.010934 76.257505 77.028975 76.36575 77.028975 76.428892 C 77.028975 76.582239 76.992893 76.717544 76.92073 76.834809 C 76.857588 76.943053 76.749343 76.997175 76.614038 76.997175 L 71.526553 76.997175 C 71.228881 76.997175 71.039453 76.852849 70.94925 76.555177 L 69.938969 73.569437 C 69.884847 73.452173 69.839745 73.370989 69.794643 73.325887 C 69.749541 73.280786 69.668358 73.262745 69.551093 73.262745 L 64.039652 73.262745 C 63.832183 73.262745 63.705898 73.352949 63.651776 73.542376 L 62.587373 76.6093 C 62.479129 76.87089 62.280681 76.997175 61.964968 76.997175 Z M 68.252161 68.842767 C 68.441589 68.842767 68.540813 68.761584 68.540813 68.590197 C 68.540813 68.554115 68.522772 68.463912 68.486691 68.328606 L 66.926168 63.890588 C 66.890086 63.800384 66.835964 63.755282 66.763801 63.755282 C 66.700659 63.755282 66.646536 63.800384 66.619475 63.890588 L 65.031891 68.301545 C 64.99581 68.364688 64.977769 68.454891 64.977769 68.563136 C 64.977769 68.752563 65.086014 68.842767 65.293482 68.842767 Z M 79.004434 58.325023 C 79.004434 58.135596 79.040516 57.99127 79.130719 57.892046 C 79.220923 57.783802 79.338188 57.729679 79.500554 57.729679 L 84.425672 57.729679 C 84.741385 57.729679 84.894731 57.910087 84.894731 58.279922 L 84.894731 72.378749 C 84.894731 72.514055 84.921792 72.613279 84.957874 72.667401 C 85.002976 72.712503 85.084159 72.739564 85.210444 72.739564 L 93.022079 72.739564 C 93.427995 72.739564 93.626443 72.90193 93.626443 73.235684 L 93.626443 76.428892 C 93.626443 76.600279 93.5633 76.744605 93.455056 76.843829 C 93.337791 76.952073 93.184445 76.997175 92.976977 76.997175 L 79.708022 76.997175 C 79.446432 76.997175 79.257004 76.952073 79.15778 76.843829 C 79.049536 76.744605 79.004434 76.573218 79.004434 76.356729 Z M 101.122365 57.729679 C 101.438077 57.729679 101.600444 57.910087 101.600444 58.279922 L 101.600444 76.248485 C 101.600444 76.528116 101.528281 76.717544 101.383955 76.834809 C 101.24865 76.943053 101.032161 76.997175 100.743509 76.997175 L 96.404715 76.997175 C 96.143124 76.997175 95.953697 76.952073 95.854473 76.843829 C 95.746228 76.744605 95.701126 76.573218 95.701126 76.356729 L 95.701126 58.325023 C 95.701126 58.135596 95.737208 57.99127 95.827411 57.892046 C 95.917615 57.783802 96.03488 57.729679 96.197246 57.729679 Z M 115.771435 62.898348 C 115.356498 62.447329 114.9145 62.104556 114.436421 61.861006 C 113.958342 61.617456 113.272794 61.500191 112.370758 61.500191 C 111.468721 61.500191 110.801214 61.626476 110.368237 61.888067 C 109.93526 62.149657 109.718771 62.45635 109.718771 62.826185 C 109.718771 63.44859 110.278033 63.881567 111.387538 64.143158 L 115.699272 65.261683 C 117.268815 65.658579 118.459503 66.362167 119.253295 67.354407 C 120.047087 68.346647 120.453003 69.537335 120.453003 70.926471 C 120.453003 72.207362 120.110229 73.325887 119.433702 74.273026 C 118.757175 75.229184 117.791996 75.959834 116.538165 76.483015 C 115.284335 76.997175 113.814016 77.258766 112.136228 77.258766 C 110.232932 77.258766 108.492001 76.943053 106.922458 76.311628 C 105.361935 75.680202 104.279492 74.850329 103.675127 73.831028 C 103.584924 73.659641 103.539822 73.524335 103.539822 73.443152 C 103.539822 73.271765 103.639046 73.109399 103.828474 72.974093 L 106.498501 71.124919 C 106.687929 71.007654 106.868336 70.953532 107.021682 70.953532 C 107.21111 70.953532 107.364456 71.025695 107.490741 71.179041 C 108.077065 71.945772 108.672409 72.486994 109.276773 72.793686 C 109.890158 73.109399 110.69297 73.262745 111.69423 73.262745 C 112.66843 73.262745 113.43516 73.127439 113.994423 72.856829 C 114.553686 72.586218 114.842337 72.225403 114.842337 71.756344 C 114.842337 71.422591 114.698011 71.14296 114.41838 70.89941 C 114.147769 70.65586 113.741853 70.475453 113.200631 70.349168 L 109.249712 69.393009 C 107.698209 69.014154 106.46242 68.292525 105.542343 67.246163 C 104.631286 66.199801 104.171247 64.991072 104.171247 63.628997 C 104.171247 62.501452 104.495981 61.46411 105.154467 60.516972 C 105.812954 59.578854 106.742051 58.839184 107.95078 58.288942 C 109.168529 57.74772 110.566685 57.468089 112.163289 57.468089 C 113.723812 57.468089 115.16707 57.729679 116.502084 58.23482 C 117.828077 58.74898 118.793256 59.425508 119.3886 60.273422 C 119.505865 60.426768 119.559987 60.580114 119.559987 60.71542 C 119.559987 60.832684 119.505865 60.949949 119.3886 61.058193 L 116.547186 63.105816 C 116.466003 63.177979 116.375799 63.21406 116.267555 63.21406 C 116.15029 63.21406 115.978903 63.105816 115.771435 62.898348 Z M 121.87822 58.325023 C 121.87822 58.153637 121.932343 58.009311 122.040587 57.901066 C 122.157852 57.792822 122.320218 57.729679 122.527687 57.729679 L 138.051732 57.729679 C 138.2592 57.729679 138.421567 57.792822 138.529811 57.901066 C 138.647076 58.009311 138.701198 58.153637 138.701198 58.325023 L 138.701198 61.419008 C 138.701198 61.743741 138.51177 61.906108 138.132915 61.906108 L 133.54155 61.906108 C 133.334082 61.906108 133.225837 61.996311 133.225837 62.167698 L 133.225837 76.428892 C 133.225837 76.61832 133.180736 76.762646 133.090532 76.86187 C 133.009349 76.952073 132.892084 76.997175 132.729717 76.997175 L 127.795579 76.997175 C 127.488886 76.997175 127.32652 76.825788 127.32652 76.483015 L 127.32652 62.275943 C 127.32652 62.032393 127.236316 61.906108 127.046889 61.906108 L 122.473564 61.906108 C 122.076668 61.906108 121.87822 61.743741 121.87822 61.419008 Z M 140.550372 76.997175 C 140.406046 76.997175 140.288782 76.952073 140.207599 76.86187 C 140.117395 76.762646 140.081313 76.62734 140.081313 76.455953 C 140.081313 76.329668 140.108375 76.194363 140.162497 76.031996 L 146.440669 58.325023 C 146.530873 58.099514 146.621077 57.946168 146.729321 57.864985 C 146.837565 57.774781 146.999932 57.729679 147.225441 57.729679 L 152.339987 57.729679 C 152.547455 57.729679 152.736883 57.792822 152.89925 57.928127 C 153.061616 58.054413 153.187901 58.225799 153.269084 58.433268 L 159.502155 76.1222 C 159.538237 76.257505 159.556278 76.36575 159.556278 76.428892 C 159.556278 76.582239 159.520196 76.717544 159.457054 76.834809 C 159.384891 76.943053 159.285667 76.997175 159.141341 76.997175 L 154.053856 76.997175 C 153.756184 76.997175 153.566756 76.852849 153.476553 76.555177 L 152.466272 73.569437 C 152.41215 73.452173 152.367048 73.370989 152.321946 73.325887 C 152.276844 73.280786 152.195661 73.262745 152.078397 73.262745 L 146.566955 73.262745 C 146.359486 73.262745 146.233201 73.352949 146.179079 73.542376 L 145.114676 76.6093 C 145.015452 76.87089 144.807984 76.997175 144.492271 76.997175 Z M 150.779464 68.842767 C 150.968892 68.842767 151.068116 68.761584 151.068116 68.590197 C 151.068116 68.554115 151.050075 68.463912 151.013994 68.328606 L 149.453471 63.890588 C 149.417389 63.800384 149.372288 63.755282 149.300125 63.755282 C 149.227962 63.755282 149.17384 63.800384 149.146778 63.890588 L 147.559195 68.301545 C 147.523113 68.364688 147.505072 68.454891 147.505072 68.563136 C 147.505072 68.752563 147.613317 68.842767 147.820785 68.842767 Z M 170.488958 57.729679 C 172.545601 57.729679 173.826492 57.7387 174.331633 57.756741 C 177.714269 57.883026 180.267032 58.794082 181.989921 60.498931 C 183.721831 62.20378 184.587786 64.467891 184.587786 67.309305 C 184.587786 69.221622 184.19991 70.89941 183.415138 72.351688 C 182.639387 73.803967 181.47576 74.949553 179.933278 75.770406 C 178.399816 76.591259 176.523581 76.997175 174.304571 76.997175 L 167.476157 76.997175 C 167.214566 76.997175 167.025138 76.943053 166.898853 76.825788 C 166.781589 76.699503 166.727466 76.501055 166.727466 76.221424 L 166.727466 58.379146 C 166.727466 58.135596 166.772568 57.973229 166.871792 57.874005 C 166.980037 57.783802 167.169464 57.729679 167.431055 57.729679 Z M 172.879354 61.806884 C 172.78915 61.806884 172.726008 61.833945 172.680906 61.888067 C 172.644825 61.933169 172.617764 62.032393 172.617764 62.167698 L 172.617764 72.532095 C 172.617764 72.685442 172.644825 72.793686 172.698947 72.847808 C 172.744049 72.90193 172.843273 72.919971 172.978578 72.919971 L 173.168006 72.919971 C 174.881875 72.919971 176.180807 72.477973 177.073823 71.584957 C 177.966839 70.691941 178.408837 69.239663 178.408837 67.237142 C 178.408837 65.505233 178.075083 64.215321 177.398556 63.367406 C 176.722029 62.519492 175.738809 62.032393 174.439877 61.906108 Z M 186.743652 58.325023 C 186.743652 57.928127 186.915039 57.729679 187.239772 57.729679 L 201.266437 57.729679 C 201.573129 57.729679 201.726476 57.910087 201.726476 58.279922 L 201.699415 61.292723 C 201.699415 61.761782 201.482926 61.996311 201.031908 61.996311 L 193.238314 61.996311 C 192.841418 61.996311 192.64297 62.158678 192.64297 62.483411 L 192.64297 64.684379 C 192.64297 64.864787 192.688072 65.000092 192.769255 65.090296 C 192.859459 65.18952 192.976723 65.234622 193.112029 65.234622 L 197.784577 65.234622 C 198.145391 65.234622 198.325799 65.406009 198.325799 65.748782 L 198.325799 68.969052 C 198.325799 69.266724 198.172453 69.42007 197.85674 69.42007 L 193.057907 69.42007 C 192.940642 69.42007 192.841418 69.456152 192.760235 69.528315 C 192.679051 69.591457 192.64297 69.67264 192.64297 69.780885 L 192.64297 72.378749 C 192.64297 72.514055 192.661011 72.613279 192.706112 72.667401 C 192.751214 72.712503 192.832398 72.739564 192.949662 72.739564 L 201.392722 72.739564 C 201.771577 72.739564 201.961005 72.90193 201.961005 73.235684 L 201.961005 76.428892 C 201.961005 76.600279 201.906883 76.744605 201.807659 76.843829 C 201.699415 76.952073 201.546068 76.997175 201.3386 76.997175 L 187.447241 76.997175 C 187.18565 76.997175 187.005243 76.952073 186.896999 76.843829 C 186.797775 76.744605 186.743652 76.573218 186.743652 76.356729 Z M 220.840625 62.898348 C 220.425689 62.447329 219.983691 62.104556 219.505612 61.861006 C 219.027532 61.617456 218.341985 61.500191 217.439948 61.500191 C 216.537912 61.500191 215.870405 61.626476 215.437428 61.888067 C 215.00445 62.149657 214.787962 62.45635 214.787962 62.826185 C 214.787962 63.44859 215.347224 63.881567 216.456729 64.143158 L 220.768462 65.261683 C 222.338006 65.658579 223.528694 66.362167 224.322486 67.354407 C 225.116277 68.346647 225.522194 69.537335 225.522194 70.926471 C 225.522194 72.207362 225.17942 73.325887 224.502893 74.273026 C 223.826366 75.229184 222.861187 75.959834 221.607356 76.483015 C 220.353526 76.997175 218.883206 77.258766 217.205419 77.258766 C 215.302122 77.258766 213.561192 76.943053 211.991649 76.311628 C 210.431126 75.680202 209.348683 74.850329 208.744318 73.831028 C 208.654115 73.659641 208.609013 73.524335 208.609013 73.443152 C 208.609013 73.271765 208.708237 73.109399 208.897664 72.974093 L 211.567692 71.124919 C 211.75712 71.007654 211.937527 70.953532 212.090873 70.953532 C 212.280301 70.953532 212.433647 71.025695 212.559932 71.179041 C 213.146255 71.945772 213.741599 72.486994 214.345964 72.793686 C 214.959348 73.109399 215.762161 73.262745 216.763421 73.262745 C 217.73762 73.262745 218.504351 73.127439 219.063614 72.856829 C 219.631897 72.586218 219.911528 72.225403 219.911528 71.756344 C 219.911528 71.422591 219.767202 71.14296 219.487571 70.89941 C 219.21696 70.65586 218.811044 70.475453 218.269822 70.349168 L 214.318903 69.393009 C 212.7674 69.014154 211.53161 68.292525 210.611533 67.246163 C 209.700477 66.199801 209.240438 64.991072 209.240438 63.628997 C 209.240438 62.501452 209.565171 61.46411 210.223658 60.516972 C 210.882144 59.578854 211.811242 58.839184 213.01997 58.288942 C 214.237719 57.74772 215.635876 57.468089 217.23248 57.468089 C 218.793003 57.468089 220.236261 57.729679 221.571275 58.23482 C 222.897268 58.74898 223.862447 59.425508 224.457791 60.273422 C 224.575056 60.426768 224.629178 60.580114 224.629178 60.71542 C 224.629178 60.832684 224.575056 60.949949 224.457791 61.058193 L 221.616377 63.105816 C 221.535193 63.177979 221.44499 63.21406 221.336745 63.21406 C 221.219481 63.21406 221.048094 63.105816 220.840625 62.898348 Z M 233.000075 57.729679 C 233.306767 57.729679 233.469134 57.910087 233.469134 58.279922 L 233.469134 76.248485 C 233.469134 76.528116 233.396971 76.717544 233.252645 76.834809 C 233.11734 76.943053 232.900851 76.997175 232.612199 76.997175 L 228.273405 76.997175 C 228.011814 76.997175 227.822386 76.952073 227.723162 76.843829 C 227.623938 76.744605 227.569816 76.573218 227.569816 76.356729 L 227.569816 58.325023 C 227.569816 58.135596 227.614918 57.99127 227.696101 57.892046 C 227.786305 57.783802 227.90357 57.729679 228.065936 57.729679 Z M 247.640124 62.898348 C 247.225188 62.447329 246.78319 62.104556 246.305111 61.861006 C 245.827031 61.617456 245.141484 61.500191 244.239447 61.500191 C 243.337411 61.500191 242.669904 61.626476 242.236927 61.888067 C 241.803949 62.149657 241.587461 62.45635 241.587461 62.826185 C 241.587461 63.44859 242.146723 63.881567 243.256228 64.143158 L 247.567962 65.261683 C 249.137505 65.658579 250.328193 66.362167 251.121985 67.354407 C 251.924797 68.346647 252.321693 69.537335 252.321693 70.926471 C 252.321693 72.207362 251.978919 73.325887 251.302392 74.273026 C 250.625865 75.229184 249.660686 75.959834 248.406855 76.483015 C 247.153025 76.997175 245.682706 77.258766 244.004918 77.258766 C 242.101621 77.258766 240.360691 76.943053 238.800168 76.311628 C 237.230625 75.680202 236.148182 74.850329 235.543817 73.831028 C 235.453614 73.659641 235.408512 73.524335 235.408512 73.443152 C 235.408512 73.271765 235.507736 73.109399 235.697164 72.974093 L 238.367191 71.124919 C 238.565639 71.007654 238.737026 70.953532 238.890372 70.953532 C 239.0798 70.953532 239.233146 71.025695 239.359431 71.179041 C 239.945755 71.945772 240.541099 72.486994 241.145463 72.793686 C 241.758848 73.109399 242.56166 73.262745 243.56292 73.262745 C 244.537119 73.262745 245.30385 73.127439 245.863113 72.856829 C 246.431396 72.586218 246.711027 72.225403 246.711027 71.756344 C 246.711027 71.422591 246.566701 71.14296 246.28707 70.89941 C 246.016459 70.65586 245.610543 70.475453 245.069321 70.349168 L 241.118402 69.393009 C 239.566899 69.014154 238.33111 68.292525 237.411033 67.246163 C 236.499976 66.199801 236.039937 64.991072 236.039937 63.628997 C 236.039937 62.501452 236.36467 61.46411 237.023157 60.516972 C 237.681643 59.578854 238.610741 58.839184 239.81947 58.288942 C 241.037219 57.74772 242.435375 57.468089 244.031979 57.468089 C 245.592502 57.468089 247.03576 57.729679 248.370774 58.23482 C 249.696767 58.74898 250.661946 59.425508 251.25729 60.273422 C 251.374555 60.426768 251.428677 60.580114 251.428677 60.71542 C 251.428677 60.832684 251.374555 60.949949 251.25729 61.058193 L 248.424896 63.105816 C 248.334692 63.177979 248.244489 63.21406 248.136244 63.21406 C 248.01898 63.21406 247.847593 63.105816 247.640124 62.898348 Z M 253.74691 58.325023 C 253.74691 58.153637 253.801033 58.009311 253.909277 57.901066 C 254.026542 57.792822 254.188908 57.729679 254.396376 57.729679 L 269.920422 57.729679 C 270.13691 57.729679 270.290256 57.792822 270.407521 57.901066 C 270.515766 58.009311 270.578908 58.153637 270.578908 58.325023 L 270.578908 61.419008 C 270.578908 61.743741 270.38046 61.906108 270.001605 61.906108 L 265.41024 61.906108 C 265.202772 61.906108 265.094527 61.996311 265.094527 62.167698 L 265.094527 76.428892 C 265.094527 76.61832 265.049425 76.762646 264.959222 76.86187 C 264.878039 76.952073 264.760774 76.997175 264.598407 76.997175 L 259.673289 76.997175 C 259.357576 76.997175 259.20423 76.825788 259.20423 76.483015 L 259.20423 62.275943 C 259.20423 62.032393 259.105006 61.906108 258.915578 61.906108 L 254.342254 61.906108 C 253.945358 61.906108 253.74691 61.743741 253.74691 61.419008 Z M 272.653592 58.325023 C 272.653592 57.928127 272.815958 57.729679 273.149712 57.729679 L 287.167356 57.729679 C 287.483069 57.729679 287.636415 57.910087 287.636415 58.279922 L 287.609354 61.292723 C 287.609354 61.761782 287.383845 61.996311 286.932827 61.996311 L 279.139233 61.996311 C 278.742337 61.996311 278.543889 62.158678 278.543889 62.483411 L 278.543889 64.684379 C 278.543889 64.864787 278.588991 65.000092 278.670174 65.090296 C 278.760378 65.18952 278.877642 65.234622 279.012948 65.234622 L 283.685496 65.234622 C 284.055331 65.234622 284.235738 65.406009 284.235738 65.748782 L 284.235738 68.969052 C 284.235738 69.266724 284.082392 69.42007 283.766679 69.42007 L 278.958826 69.42007 C 278.841561 69.42007 278.742337 69.456152 278.661154 69.528315 C 278.588991 69.591457 278.543889 69.67264 278.543889 69.780885 L 278.543889 72.378749 C 278.543889 72.514055 278.57095 72.613279 278.607031 72.667401 C 278.652133 72.712503 278.733316 72.739564 278.859602 72.739564 L 287.293641 72.739564 C 287.681517 72.739564 287.870944 72.90193 287.870944 73.235684 L 287.870944 76.428892 C 287.870944 76.600279 287.816822 76.744605 287.708578 76.843829 C 287.609354 76.952073 287.456008 76.997175 287.248539 76.997175 L 273.35718 76.997175 C 273.095589 76.997175 272.906162 76.952073 272.806938 76.843829 C 272.698693 76.744605 272.653592 76.573218 272.653592 76.356729 Z M 290.74844 76.997175 C 290.540972 76.997175 290.378605 76.934033 290.25232 76.807748 C 290.135056 76.681463 290.071913 76.501055 290.071913 76.266526 L 290.071913 58.325023 C 290.071913 58.117555 290.117015 57.973229 290.198198 57.874005 C 290.288402 57.783802 290.432728 57.729679 290.622155 57.729679 L 297.892568 57.729679 C 298.118077 57.729679 298.280444 57.765761 298.370647 57.819883 C 298.469871 57.883026 298.551054 58.009311 298.623217 58.198738 L 301.320306 66.452371 C 301.374428 66.596696 301.437571 66.668859 301.500713 66.668859 C 301.554835 66.668859 301.608958 66.596696 301.66308 66.452371 L 304.071517 58.48739 C 304.206822 57.98225 304.441352 57.729679 304.775105 57.729679 L 312.280047 57.729679 C 312.59576 57.729679 312.749106 57.910087 312.749106 58.279922 L 312.749106 76.248485 C 312.749106 76.528116 312.685964 76.717544 312.550658 76.834809 C 312.424373 76.943053 312.207884 76.997175 311.919233 76.997175 L 307.526316 76.997175 C 307.264725 76.997175 307.093338 76.952073 306.994114 76.843829 C 306.89489 76.744605 306.849789 76.573218 306.849789 76.356729 L 306.849789 64.684379 C 306.849789 64.549074 306.822727 64.485931 306.750565 64.485931 C 306.660361 64.485931 306.588198 64.558094 306.543096 64.720461 L 302.799645 76.528116 C 302.682381 76.843829 302.474912 76.997175 302.17724 76.997175 L 299.453091 76.997175 C 299.137378 76.997175 298.92991 76.843829 298.821665 76.528116 L 295.087235 64.918909 C 295.033113 64.747522 294.978991 64.657318 294.906828 64.657318 C 294.816624 64.657318 294.771522 64.756542 294.771522 64.94597 L 294.771522 76.428892 C 294.771522 76.654401 294.744461 76.807748 294.672298 76.888931 C 294.609156 76.961094 294.446789 76.997175 294.203239 76.997175 Z M 315.211665 76.997175 C 315.07636 76.997175 314.959095 76.952073 314.868891 76.86187 C 314.787708 76.762646 314.742606 76.62734 314.742606 76.455953 C 314.742606 76.329668 314.769667 76.194363 314.82379 76.031996 L 321.110983 58.325023 C 321.192166 58.099514 321.29139 57.946168 321.390614 57.864985 C 321.498858 57.774781 321.661225 57.729679 321.886734 57.729679 L 327.00128 57.729679 C 327.208748 57.729679 327.398176 57.792822 327.560543 57.928127 C 327.731929 58.054413 327.849194 58.225799 327.939398 58.433268 L 334.172469 76.1222 C 334.20855 76.257505 334.217571 76.36575 334.217571 76.428892 C 334.217571 76.582239 334.190509 76.717544 334.118347 76.834809 C 334.055204 76.943053 333.94696 76.997175 333.811654 76.997175 L 328.715149 76.997175 C 328.417477 76.997175 328.228049 76.852849 328.146866 76.555177 L 327.136585 73.569437 C 327.082463 73.452173 327.037361 73.370989 326.983239 73.325887 C 326.947158 73.280786 326.865975 73.262745 326.74871 73.262745 L 321.237268 73.262745 C 321.0298 73.262745 320.903514 73.352949 320.849392 73.542376 L 319.784989 76.6093 C 319.676745 76.87089 319.469277 76.997175 319.162584 76.997175 Z M 325.449778 68.842767 C 325.639205 68.842767 325.729409 68.761584 325.729409 68.590197 C 325.729409 68.554115 325.711368 68.463912 325.684307 68.328606 L 324.123784 63.890588 C 324.087703 63.800384 324.033581 63.755282 323.961418 63.755282 C 323.898275 63.755282 323.844153 63.800384 323.808071 63.890588 L 322.229508 68.301545 C 322.193426 68.364688 322.175386 68.454891 322.175386 68.563136 C 322.175386 68.752563 322.27461 68.842767 322.482078 68.842767 Z M 347.675953 62.898348 C 347.261016 62.447329 346.809998 62.104556 346.331918 61.861006 C 345.862859 61.617456 345.177312 61.500191 344.275276 61.500191 C 343.373239 61.500191 342.705732 61.626476 342.272755 61.888067 C 341.839778 62.149657 341.623289 62.45635 341.623289 62.826185 C 341.623289 63.44859 342.173531 63.881567 343.283036 64.143158 L 347.594769 65.261683 C 349.173333 65.658579 350.355 66.362167 351.148792 67.354407 C 351.951605 68.346647 352.348501 69.537335 352.348501 70.926471 C 352.348501 72.207362 352.014747 73.325887 351.33822 74.273026 C 350.661693 75.229184 349.696514 75.959834 348.442683 76.483015 C 347.179833 76.997175 345.718534 77.258766 344.040746 77.258766 C 342.137449 77.258766 340.396519 76.943053 338.826976 76.311628 C 337.266453 75.680202 336.18401 74.850329 335.570625 73.831028 C 335.489442 73.659641 335.44434 73.524335 335.44434 73.443152 C 335.44434 73.271765 335.534544 73.109399 335.723971 72.974093 L 338.403019 71.124919 C 338.592447 71.007654 338.763834 70.953532 338.9262 70.953532 C 339.115628 70.953532 339.268974 71.025695 339.395259 71.179041 C 339.981583 71.945772 340.576927 72.486994 341.181291 72.793686 C 341.785655 73.109399 342.597488 73.262745 343.598748 73.262745 C 344.563927 73.262745 345.330658 73.127439 345.898941 72.856829 C 346.458203 72.586218 346.737835 72.225403 346.737835 71.756344 C 346.737835 71.422591 346.602529 71.14296 346.322898 70.89941 C 346.043267 70.65586 345.63735 70.475453 345.105149 70.349168 L 341.15423 69.393009 C 339.602727 69.014154 338.366938 68.292525 337.446861 67.246163 C 336.526784 66.199801 336.066745 64.991072 336.066745 63.628997 C 336.066745 62.501452 336.400498 61.46411 337.049965 60.516972 C 337.708451 59.578854 338.646569 58.839184 339.855298 58.288942 C 341.064026 57.74772 342.471203 57.468089 344.067807 57.468089 C 345.62833 57.468089 347.071588 57.729679 348.397582 58.23482 C 349.732595 58.74898 350.697774 59.425508 351.284098 60.273422 C 351.401363 60.426768 351.464505 60.580114 351.464505 60.71542 C 351.464505 60.832684 351.401363 60.949949 351.284098 61.058193 L 348.451704 63.105816 C 348.37052 63.177979 348.271296 63.21406 348.163052 63.21406 C 348.045787 63.21406 347.883421 63.105816 347.675953 62.898348 Z M 347.675953 62.898348 " stroke="#ffc710" stroke-width="1.173952" stroke-opacity="1" stroke-miterlimit="4"/><g fill="#ffc710" fill-opacity="1"><g transform="translate(74.656725, 63.714628)"><g><path d="M 3.078125 -11.578125 C 4.316406 -11.578125 5.085938 -11.570312 5.390625 -11.5625 C 7.410156 -11.488281 8.941406 -10.9375 9.984375 -9.90625 C 11.023438 -8.882812 11.546875 -7.523438 11.546875 -5.828125 C 11.546875 -4.679688 11.3125 -3.671875 10.84375 -2.796875 C 10.375 -1.921875 9.675781 -1.234375 8.75 -0.734375 C 7.832031 -0.242188 6.707031 0 5.375 0 L 1.265625 0 C 1.109375 0 0.992188 -0.0351562 0.921875 -0.109375 C 0.847656 -0.179688 0.8125 -0.300781 0.8125 -0.46875 L 0.8125 -11.1875 C 0.8125 -11.332031 0.84375 -11.429688 0.90625 -11.484375 C 0.96875 -11.546875 1.078125 -11.578125 1.234375 -11.578125 Z M 4.515625 -9.125 C 4.460938 -9.125 4.421875 -9.109375 4.390625 -9.078125 C 4.367188 -9.046875 4.359375 -8.988281 4.359375 -8.90625 L 4.359375 -2.6875 C 4.359375 -2.59375 4.375 -2.53125 4.40625 -2.5 C 4.4375 -2.46875 4.492188 -2.453125 4.578125 -2.453125 L 4.6875 -2.453125 C 5.71875 -2.453125 6.5 -2.71875 7.03125 -3.25 C 7.5625 -3.789062 7.828125 -4.664062 7.828125 -5.875 C 7.828125 -6.914062 7.625 -7.6875 7.21875 -8.1875 C 6.820312 -8.695312 6.234375 -8.988281 5.453125 -9.0625 Z M 4.515625 -9.125 "/></g></g></g><g fill="#ffc710" fill-opacity="1"><g transform="translate(86.695842, 63.714628)"><g><path d="M 0.8125 -11.21875 C 0.8125 -11.457031 0.910156 -11.578125 1.109375 -11.578125 L 9.53125 -11.578125 C 9.71875 -11.578125 9.8125 -11.46875 9.8125 -11.25 L 9.796875 -9.4375 C 9.796875 -9.15625 9.660156 -9.015625 9.390625 -9.015625 L 4.71875 -9.015625 C 4.476562 -9.015625 4.359375 -8.914062 4.359375 -8.71875 L 4.359375 -7.40625 C 4.359375 -7.300781 4.382812 -7.21875 4.4375 -7.15625 C 4.488281 -7.101562 4.554688 -7.078125 4.640625 -7.078125 L 7.453125 -7.078125 C 7.660156 -7.078125 7.765625 -6.972656 7.765625 -6.765625 L 7.765625 -4.828125 C 7.765625 -4.648438 7.675781 -4.5625 7.5 -4.5625 L 4.609375 -4.5625 C 4.535156 -4.5625 4.472656 -4.539062 4.421875 -4.5 C 4.378906 -4.457031 4.359375 -4.40625 4.359375 -4.34375 L 4.359375 -2.78125 C 4.359375 -2.695312 4.367188 -2.640625 4.390625 -2.609375 C 4.421875 -2.578125 4.472656 -2.5625 4.546875 -2.5625 L 9.609375 -2.5625 C 9.835938 -2.5625 9.953125 -2.460938 9.953125 -2.265625 L 9.953125 -0.34375 C 9.953125 -0.238281 9.921875 -0.15625 9.859375 -0.09375 C 9.796875 -0.03125 9.703125 0 9.578125 0 L 1.234375 0 C 1.078125 0 0.96875 -0.03125 0.90625 -0.09375 C 0.84375 -0.15625 0.8125 -0.253906 0.8125 -0.390625 Z M 0.8125 -11.21875 "/></g></g></g><g fill="#ffc710" fill-opacity="1"><g transform="translate(97.173466, 63.714628)"><g><path d="M 7.71875 -8.46875 C 7.46875 -8.738281 7.195312 -8.945312 6.90625 -9.09375 C 6.625 -9.238281 6.210938 -9.3125 5.671875 -9.3125 C 5.128906 -9.3125 4.726562 -9.234375 4.46875 -9.078125 C 4.207031 -8.921875 4.078125 -8.734375 4.078125 -8.515625 C 4.078125 -8.140625 4.410156 -7.878906 5.078125 -7.734375 L 7.671875 -7.0625 C 8.609375 -6.820312 9.316406 -6.398438 9.796875 -5.796875 C 10.273438 -5.203125 10.515625 -4.488281 10.515625 -3.65625 C 10.515625 -2.882812 10.3125 -2.210938 9.90625 -1.640625 C 9.5 -1.066406 8.921875 -0.625 8.171875 -0.3125 C 7.421875 0 6.539062 0.15625 5.53125 0.15625 C 4.382812 0.15625 3.335938 -0.03125 2.390625 -0.40625 C 1.453125 -0.789062 0.800781 -1.289062 0.4375 -1.90625 C 0.382812 -2.007812 0.359375 -2.085938 0.359375 -2.140625 C 0.359375 -2.242188 0.414062 -2.335938 0.53125 -2.421875 L 2.140625 -3.53125 C 2.253906 -3.601562 2.359375 -3.640625 2.453125 -3.640625 C 2.566406 -3.640625 2.660156 -3.59375 2.734375 -3.5 C 3.085938 -3.039062 3.445312 -2.71875 3.8125 -2.53125 C 4.175781 -2.34375 4.660156 -2.25 5.265625 -2.25 C 5.847656 -2.25 6.304688 -2.328125 6.640625 -2.484375 C 6.984375 -2.648438 7.15625 -2.875 7.15625 -3.15625 C 7.15625 -3.351562 7.070312 -3.523438 6.90625 -3.671875 C 6.738281 -3.816406 6.492188 -3.925781 6.171875 -4 L 3.796875 -4.578125 C 2.859375 -4.804688 2.113281 -5.234375 1.5625 -5.859375 C 1.007812 -6.492188 0.734375 -7.21875 0.734375 -8.03125 C 0.734375 -8.707031 0.929688 -9.328125 1.328125 -9.890625 C 1.722656 -10.460938 2.285156 -10.910156 3.015625 -11.234375 C 3.742188 -11.566406 4.585938 -11.734375 5.546875 -11.734375 C 6.484375 -11.734375 7.347656 -11.578125 8.140625 -11.265625 C 8.941406 -10.960938 9.519531 -10.554688 9.875 -10.046875 C 9.945312 -9.953125 9.984375 -9.863281 9.984375 -9.78125 C 9.984375 -9.707031 9.945312 -9.640625 9.875 -9.578125 L 8.171875 -8.34375 C 8.117188 -8.300781 8.0625 -8.28125 8 -8.28125 C 7.925781 -8.28125 7.832031 -8.34375 7.71875 -8.46875 Z M 7.71875 -8.46875 "/></g></g></g><g fill="#ffc710" fill-opacity="1"><g transform="translate(108.119535, 63.714628)"><g><path d="M 0.8125 -11.21875 C 0.8125 -11.457031 0.910156 -11.578125 1.109375 -11.578125 L 9.53125 -11.578125 C 9.71875 -11.578125 9.8125 -11.46875 9.8125 -11.25 L 9.796875 -9.4375 C 9.796875 -9.15625 9.660156 -9.015625 9.390625 -9.015625 L 4.71875 -9.015625 C 4.476562 -9.015625 4.359375 -8.914062 4.359375 -8.71875 L 4.359375 -7.40625 C 4.359375 -7.300781 4.382812 -7.21875 4.4375 -7.15625 C 4.488281 -7.101562 4.554688 -7.078125 4.640625 -7.078125 L 7.453125 -7.078125 C 7.660156 -7.078125 7.765625 -6.972656 7.765625 -6.765625 L 7.765625 -4.828125 C 7.765625 -4.648438 7.675781 -4.5625 7.5 -4.5625 L 4.609375 -4.5625 C 4.535156 -4.5625 4.472656 -4.539062 4.421875 -4.5 C 4.378906 -4.457031 4.359375 -4.40625 4.359375 -4.34375 L 4.359375 -2.78125 C 4.359375 -2.695312 4.367188 -2.640625 4.390625 -2.609375 C 4.421875 -2.578125 4.472656 -2.5625 4.546875 -2.5625 L 9.609375 -2.5625 C 9.835938 -2.5625 9.953125 -2.460938 9.953125 -2.265625 L 9.953125 -0.34375 C 9.953125 -0.238281 9.921875 -0.15625 9.859375 -0.09375 C 9.796875 -0.03125 9.703125 0 9.578125 0 L 1.234375 0 C 1.078125 0 0.96875 -0.03125 0.90625 -0.09375 C 0.84375 -0.15625 0.8125 -0.253906 0.8125 -0.390625 Z M 0.8125 -11.21875 "/></g></g></g><g fill="#ffc710" fill-opacity="1"><g transform="translate(118.597158, 63.714628)"><g><path d="M 10.828125 -11.578125 C 10.984375 -11.578125 11.0625 -11.488281 11.0625 -11.3125 L 11.0625 -0.28125 C 11.0625 -0.195312 11.023438 -0.128906 10.953125 -0.078125 C 10.890625 -0.0234375 10.804688 0 10.703125 0 L 8.5625 0 C 8.46875 0 8.390625 -0.015625 8.328125 -0.046875 C 8.273438 -0.078125 8.210938 -0.140625 8.140625 -0.234375 L 3.859375 -6.0625 C 3.816406 -6.113281 3.78125 -6.132812 3.75 -6.125 C 3.71875 -6.113281 3.703125 -6.082031 3.703125 -6.03125 L 3.703125 -0.34375 C 3.710938 -0.21875 3.6875 -0.128906 3.625 -0.078125 C 3.570312 -0.0234375 3.472656 0 3.328125 0 L 1.203125 0 C 0.941406 0 0.8125 -0.101562 0.8125 -0.3125 L 0.8125 -11.21875 C 0.8125 -11.457031 0.925781 -11.578125 1.15625 -11.578125 L 3.703125 -11.578125 C 3.835938 -11.578125 3.9375 -11.554688 4 -11.515625 C 4.070312 -11.484375 4.148438 -11.410156 4.234375 -11.296875 L 7.96875 -6.09375 C 8.03125 -6 8.085938 -5.953125 8.140625 -5.953125 C 8.191406 -5.953125 8.21875 -6.019531 8.21875 -6.15625 L 8.21875 -11.25 C 8.21875 -11.46875 8.332031 -11.578125 8.5625 -11.578125 Z M 10.828125 -11.578125 "/></g></g></g><g fill="#ffc710" fill-opacity="1"><g transform="translate(130.480126, 63.714628)"><g><path d="M 11.03125 -11.578125 C 11.125 -11.578125 11.195312 -11.546875 11.25 -11.484375 C 11.3125 -11.429688 11.34375 -11.359375 11.34375 -11.265625 C 11.34375 -11.203125 11.335938 -11.15625 11.328125 -11.125 L 7.71875 -0.390625 C 7.644531 -0.128906 7.453125 0 7.140625 0 L 4.609375 0 C 4.296875 0 4.101562 -0.128906 4.03125 -0.390625 L 0.40625 -11.125 C 0.382812 -11.1875 0.375 -11.234375 0.375 -11.265625 C 0.375 -11.359375 0.40625 -11.429688 0.46875 -11.484375 C 0.53125 -11.546875 0.609375 -11.578125 0.703125 -11.578125 L 3.71875 -11.578125 C 3.914062 -11.578125 4.046875 -11.46875 4.109375 -11.25 L 6.203125 -4.40625 C 6.222656 -4.332031 6.25 -4.296875 6.28125 -4.296875 C 6.300781 -4.296875 6.328125 -4.335938 6.359375 -4.421875 L 8.296875 -11.25 C 8.316406 -11.351562 8.363281 -11.429688 8.4375 -11.484375 C 8.519531 -11.546875 8.609375 -11.578125 8.703125 -11.578125 Z M 11.03125 -11.578125 "/></g></g></g><g fill="#ffc710" fill-opacity="1"><g transform="translate(142.206943, 63.714628)"><g><path d="M 6.109375 0.15625 C 4.972656 0.15625 3.976562 -0.0820312 3.125 -0.5625 C 2.28125 -1.050781 1.628906 -1.738281 1.171875 -2.625 C 0.710938 -3.519531 0.484375 -4.566406 0.484375 -5.765625 C 0.484375 -6.960938 0.710938 -8.007812 1.171875 -8.90625 C 1.640625 -9.800781 2.296875 -10.492188 3.140625 -10.984375 C 3.992188 -11.484375 4.984375 -11.734375 6.109375 -11.734375 C 7.210938 -11.734375 8.1875 -11.484375 9.03125 -10.984375 C 9.875 -10.492188 10.523438 -9.800781 10.984375 -8.90625 C 11.453125 -8.007812 11.6875 -6.960938 11.6875 -5.765625 C 11.6875 -4.578125 11.457031 -3.535156 11 -2.640625 C 10.539062 -1.742188 9.890625 -1.050781 9.046875 -0.5625 C 8.203125 -0.0820312 7.222656 0.15625 6.109375 0.15625 Z M 6.109375 -2.28125 C 6.566406 -2.28125 6.929688 -2.390625 7.203125 -2.609375 C 7.472656 -2.835938 7.664062 -3.203125 7.78125 -3.703125 C 7.90625 -4.203125 7.96875 -4.875 7.96875 -5.71875 C 7.96875 -7.007812 7.820312 -7.929688 7.53125 -8.484375 C 7.25 -9.046875 6.773438 -9.328125 6.109375 -9.328125 C 5.429688 -9.328125 4.941406 -9.046875 4.640625 -8.484375 C 4.347656 -7.929688 4.203125 -7.007812 4.203125 -5.71875 C 4.203125 -4.875 4.265625 -4.203125 4.390625 -3.703125 C 4.515625 -3.203125 4.710938 -2.835938 4.984375 -2.609375 C 5.265625 -2.390625 5.640625 -2.28125 6.109375 -2.28125 Z M 6.109375 -2.28125 "/></g></g></g><g fill="#ffc710" fill-opacity="1"><g transform="translate(154.386598, 63.714628)"><g><path d="M 0.8125 -11.21875 C 0.8125 -11.332031 0.835938 -11.421875 0.890625 -11.484375 C 0.941406 -11.546875 1.015625 -11.578125 1.109375 -11.578125 L 4.078125 -11.578125 C 4.265625 -11.578125 4.359375 -11.46875 4.359375 -11.25 L 4.359375 -2.78125 C 4.359375 -2.695312 4.367188 -2.640625 4.390625 -2.609375 C 4.421875 -2.578125 4.472656 -2.5625 4.546875 -2.5625 L 9.234375 -2.5625 C 9.472656 -2.5625 9.59375 -2.460938 9.59375 -2.265625 L 9.59375 -0.34375 C 9.59375 -0.238281 9.554688 -0.15625 9.484375 -0.09375 C 9.421875 -0.03125 9.328125 0 9.203125 0 L 1.234375 0 C 1.078125 0 0.96875 -0.03125 0.90625 -0.09375 C 0.84375 -0.15625 0.8125 -0.253906 0.8125 -0.390625 Z M 0.8125 -11.21875 "/></g></g></g><g fill="#ffc710" fill-opacity="1"><g transform="translate(164.427004, 63.714628)"><g><path d="M 11.03125 -11.578125 C 11.125 -11.578125 11.195312 -11.546875 11.25 -11.484375 C 11.3125 -11.429688 11.34375 -11.359375 11.34375 -11.265625 C 11.34375 -11.203125 11.335938 -11.15625 11.328125 -11.125 L 7.71875 -0.390625 C 7.644531 -0.128906 7.453125 0 7.140625 0 L 4.609375 0 C 4.296875 0 4.101562 -0.128906 4.03125 -0.390625 L 0.40625 -11.125 C 0.382812 -11.1875 0.375 -11.234375 0.375 -11.265625 C 0.375 -11.359375 0.40625 -11.429688 0.46875 -11.484375 C 0.53125 -11.546875 0.609375 -11.578125 0.703125 -11.578125 L 3.71875 -11.578125 C 3.914062 -11.578125 4.046875 -11.46875 4.109375 -11.25 L 6.203125 -4.40625 C 6.222656 -4.332031 6.25 -4.296875 6.28125 -4.296875 C 6.300781 -4.296875 6.328125 -4.335938 6.359375 -4.421875 L 8.296875 -11.25 C 8.316406 -11.351562 8.363281 -11.429688 8.4375 -11.484375 C 8.519531 -11.546875 8.609375 -11.578125 8.703125 -11.578125 Z M 11.03125 -11.578125 "/></g></g></g><g fill="#ffc710" fill-opacity="1"><g transform="translate(176.153821, 63.714628)"><g><path d="M 0.8125 -11.21875 C 0.8125 -11.457031 0.910156 -11.578125 1.109375 -11.578125 L 9.53125 -11.578125 C 9.71875 -11.578125 9.8125 -11.46875 9.8125 -11.25 L 9.796875 -9.4375 C 9.796875 -9.15625 9.660156 -9.015625 9.390625 -9.015625 L 4.71875 -9.015625 C 4.476562 -9.015625 4.359375 -8.914062 4.359375 -8.71875 L 4.359375 -7.40625 C 4.359375 -7.300781 4.382812 -7.21875 4.4375 -7.15625 C 4.488281 -7.101562 4.554688 -7.078125 4.640625 -7.078125 L 7.453125 -7.078125 C 7.660156 -7.078125 7.765625 -6.972656 7.765625 -6.765625 L 7.765625 -4.828125 C 7.765625 -4.648438 7.675781 -4.5625 7.5 -4.5625 L 4.609375 -4.5625 C 4.535156 -4.5625 4.472656 -4.539062 4.421875 -4.5 C 4.378906 -4.457031 4.359375 -4.40625 4.359375 -4.34375 L 4.359375 -2.78125 C 4.359375 -2.695312 4.367188 -2.640625 4.390625 -2.609375 C 4.421875 -2.578125 4.472656 -2.5625 4.546875 -2.5625 L 9.609375 -2.5625 C 9.835938 -2.5625 9.953125 -2.460938 9.953125 -2.265625 L 9.953125 -0.34375 C 9.953125 -0.238281 9.921875 -0.15625 9.859375 -0.09375 C 9.796875 -0.03125 9.703125 0 9.578125 0 L 1.234375 0 C 1.078125 0 0.96875 -0.03125 0.90625 -0.09375 C 0.84375 -0.15625 0.8125 -0.253906 0.8125 -0.390625 Z M 0.8125 -11.21875 "/></g></g></g><g fill="#ffc710" fill-opacity="1"><g transform="translate(186.631441, 63.714628)"><g><path d="M 3.078125 -11.578125 C 4.316406 -11.578125 5.085938 -11.570312 5.390625 -11.5625 C 7.410156 -11.488281 8.941406 -10.9375 9.984375 -9.90625 C 11.023438 -8.882812 11.546875 -7.523438 11.546875 -5.828125 C 11.546875 -4.679688 11.3125 -3.671875 10.84375 -2.796875 C 10.375 -1.921875 9.675781 -1.234375 8.75 -0.734375 C 7.832031 -0.242188 6.707031 0 5.375 0 L 1.265625 0 C 1.109375 0 0.992188 -0.0351562 0.921875 -0.109375 C 0.847656 -0.179688 0.8125 -0.300781 0.8125 -0.46875 L 0.8125 -11.1875 C 0.8125 -11.332031 0.84375 -11.429688 0.90625 -11.484375 C 0.96875 -11.546875 1.078125 -11.578125 1.234375 -11.578125 Z M 4.515625 -9.125 C 4.460938 -9.125 4.421875 -9.109375 4.390625 -9.078125 C 4.367188 -9.046875 4.359375 -8.988281 4.359375 -8.90625 L 4.359375 -2.6875 C 4.359375 -2.59375 4.375 -2.53125 4.40625 -2.5 C 4.4375 -2.46875 4.492188 -2.453125 4.578125 -2.453125 L 4.6875 -2.453125 C 5.71875 -2.453125 6.5 -2.71875 7.03125 -3.25 C 7.5625 -3.789062 7.828125 -4.664062 7.828125 -5.875 C 7.828125 -6.914062 7.625 -7.6875 7.21875 -8.1875 C 6.820312 -8.695312 6.234375 -8.988281 5.453125 -9.0625 Z M 4.515625 -9.125 "/></g></g></g><g fill="#ffc710" fill-opacity="1"><g transform="translate(198.670558, 63.714628)"><g><path d="M 6.109375 0.15625 C 4.972656 0.15625 3.976562 -0.0820312 3.125 -0.5625 C 2.28125 -1.050781 1.628906 -1.738281 1.171875 -2.625 C 0.710938 -3.519531 0.484375 -4.566406 0.484375 -5.765625 C 0.484375 -6.960938 0.710938 -8.007812 1.171875 -8.90625 C 1.640625 -9.800781 2.296875 -10.492188 3.140625 -10.984375 C 3.992188 -11.484375 4.984375 -11.734375 6.109375 -11.734375 C 7.210938 -11.734375 8.1875 -11.484375 9.03125 -10.984375 C 9.875 -10.492188 10.523438 -9.800781 10.984375 -8.90625 C 11.453125 -8.007812 11.6875 -6.960938 11.6875 -5.765625 C 11.6875 -4.578125 11.457031 -3.535156 11 -2.640625 C 10.539062 -1.742188 9.890625 -1.050781 9.046875 -0.5625 C 8.203125 -0.0820312 7.222656 0.15625 6.109375 0.15625 Z M 6.109375 -2.28125 C 6.566406 -2.28125 6.929688 -2.390625 7.203125 -2.609375 C 7.472656 -2.835938 7.664062 -3.203125 7.78125 -3.703125 C 7.90625 -4.203125 7.96875 -4.875 7.96875 -5.71875 C 7.96875 -7.007812 7.820312 -7.929688 7.53125 -8.484375 C 7.25 -9.046875 6.773438 -9.328125 6.109375 -9.328125 C 5.429688 -9.328125 4.941406 -9.046875 4.640625 -8.484375 C 4.347656 -7.929688 4.203125 -7.007812 4.203125 -5.71875 C 4.203125 -4.875 4.265625 -4.203125 4.390625 -3.703125 C 4.515625 -3.203125 4.710938 -2.835938 4.984375 -2.609375 C 5.265625 -2.390625 5.640625 -2.28125 6.109375 -2.28125 Z M 6.109375 -2.28125 "/></g></g></g><g fill="#ffc710" fill-opacity="1"><g transform="translate(210.850206, 63.714628)"><g><path d="M 10.9375 -0.5 C 10.957031 -0.457031 10.96875 -0.398438 10.96875 -0.328125 C 10.96875 -0.234375 10.9375 -0.15625 10.875 -0.09375 C 10.820312 -0.03125 10.75 0 10.65625 0 L 7.640625 0 C 7.421875 0 7.28125 -0.109375 7.21875 -0.328125 L 5.75 -4.359375 C 5.71875 -4.441406 5.664062 -4.503906 5.59375 -4.546875 C 5.519531 -4.585938 5.410156 -4.609375 5.265625 -4.609375 L 4.546875 -4.609375 C 4.484375 -4.609375 4.4375 -4.585938 4.40625 -4.546875 C 4.375 -4.503906 4.359375 -4.46875 4.359375 -4.4375 L 4.359375 -0.453125 C 4.359375 -0.285156 4.316406 -0.164062 4.234375 -0.09375 C 4.148438 -0.03125 4.019531 0 3.84375 0 L 1.21875 0 C 1.0625 0 0.953125 -0.03125 0.890625 -0.09375 C 0.835938 -0.15625 0.8125 -0.253906 0.8125 -0.390625 L 0.8125 -11.21875 C 0.8125 -11.457031 0.910156 -11.578125 1.109375 -11.578125 L 6.328125 -11.578125 C 7.828125 -11.578125 8.992188 -11.285156 9.828125 -10.703125 C 10.660156 -10.128906 11.078125 -9.316406 11.078125 -8.265625 C 11.078125 -7.554688 10.882812 -6.921875 10.5 -6.359375 C 10.125 -5.796875 9.632812 -5.398438 9.03125 -5.171875 C 8.96875 -5.140625 8.9375 -5.085938 8.9375 -5.015625 C 8.9375 -4.984375 8.945312 -4.9375 8.96875 -4.875 Z M 6.1875 -6.9375 C 6.582031 -6.9375 6.882812 -7.035156 7.09375 -7.234375 C 7.3125 -7.441406 7.421875 -7.710938 7.421875 -8.046875 C 7.421875 -8.429688 7.289062 -8.726562 7.03125 -8.9375 C 6.78125 -9.15625 6.46875 -9.265625 6.09375 -9.265625 L 4.71875 -9.265625 C 4.582031 -9.265625 4.488281 -9.238281 4.4375 -9.1875 C 4.382812 -9.144531 4.359375 -9.066406 4.359375 -8.953125 L 4.359375 -7.265625 C 4.359375 -7.148438 4.375 -7.066406 4.40625 -7.015625 C 4.445312 -6.960938 4.519531 -6.9375 4.625 -6.9375 Z M 6.1875 -6.9375 "/></g></g></g><g fill="#ffc710" fill-opacity="1"><g transform="translate(222.391807, 63.714628)"><g/></g></g><g fill="#ffc710" fill-opacity="1"><g transform="translate(30.172344, 78.195027)"><g><path d="M 1.484375 0 C 1.296875 0 1.144531 -0.0625 1.03125 -0.1875 C 0.914062 -0.3125 0.859375 -0.488281 0.859375 -0.71875 C 0.859375 -0.882812 0.894531 -1.070312 0.96875 -1.28125 L 9.3125 -24.8125 C 9.425781 -25.113281 9.550781 -25.320312 9.6875 -25.4375 C 9.832031 -25.550781 10.054688 -25.609375 10.359375 -25.609375 L 17.15625 -25.609375 C 17.425781 -25.609375 17.671875 -25.519531 17.890625 -25.34375 C 18.109375 -25.175781 18.273438 -24.953125 18.390625 -24.671875 L 26.6875 -1.171875 C 26.726562 -0.984375 26.75 -0.847656 26.75 -0.765625 C 26.75 -0.554688 26.703125 -0.375 26.609375 -0.21875 C 26.515625 -0.0703125 26.378906 0 26.203125 0 L 19.4375 0 C 19.039062 0 18.785156 -0.195312 18.671875 -0.59375 L 17.328125 -4.5625 C 17.253906 -4.71875 17.1875 -4.820312 17.125 -4.875 C 17.070312 -4.9375 16.96875 -4.96875 16.8125 -4.96875 L 9.484375 -4.96875 C 9.210938 -4.96875 9.039062 -4.84375 8.96875 -4.59375 L 7.5625 -0.515625 C 7.425781 -0.171875 7.148438 0 6.734375 0 Z M 15.078125 -10.84375 C 15.335938 -10.84375 15.46875 -10.957031 15.46875 -11.1875 C 15.46875 -11.226562 15.441406 -11.34375 15.390625 -11.53125 L 13.328125 -17.4375 C 13.273438 -17.550781 13.203125 -17.609375 13.109375 -17.609375 C 13.023438 -17.609375 12.957031 -17.550781 12.90625 -17.4375 L 10.796875 -11.5625 C 10.753906 -11.46875 10.734375 -11.351562 10.734375 -11.21875 C 10.734375 -10.96875 10.875 -10.84375 11.15625 -10.84375 Z M 15.078125 -10.84375 "/></g></g></g><path stroke-linecap="butt" transform="matrix(0.279776, 0, 0, 0.279776, 0.933562, 48.888995)" fill="none" stroke-linejoin="miter" d="M 174.525823 113.000749 C 173.632252 113.000749 172.906225 112.721508 172.33378 112.163026 C 171.775298 111.576619 171.496057 110.892478 171.496057 110.096641 L 171.496057 18.463663 C 171.496057 17.500282 171.78926 16.690482 172.389628 16.048228 C 173.017921 15.378049 173.813758 15.04296 174.77714 15.04296 L 214.136178 15.04296 C 227.86088 15.04296 238.262612 17.235003 245.327412 21.591164 C 252.420137 25.933364 255.9665 32.383834 255.9665 40.928613 C 255.9665 45.59194 254.695952 49.543202 252.126934 52.754475 C 249.599802 55.965748 245.117982 59.051362 238.695435 62.039242 C 238.527891 62.123015 238.430156 62.290559 238.430156 62.527914 C 238.430156 62.737345 238.527891 62.890928 238.695435 62.9747 C 245.830046 65.599567 250.884311 68.713105 253.872191 72.329278 C 256.860071 75.931489 258.354011 80.608778 258.354011 86.347183 C 258.354011 95.394596 254.891421 102.096383 247.980203 106.452544 C 241.082947 110.822668 230.499708 113.000749 216.25841 113.000749 Z M 216.25841 53.340881 C 219.330063 53.340881 221.787385 52.503158 223.644338 50.827711 C 225.48733 49.152264 226.408826 46.988145 226.408826 44.349317 C 226.408826 41.528981 225.347709 39.239204 223.225477 37.479985 C 221.117206 35.720766 218.478377 34.841156 215.322953 34.841156 L 204.488397 34.841156 C 203.35747 34.841156 202.561633 35.036625 202.114847 35.455486 C 201.682023 35.832462 201.45863 36.516603 201.45863 37.479985 L 201.45863 50.408849 C 201.45863 51.483927 201.640137 52.237879 201.975226 52.698626 C 202.352202 53.13145 202.910684 53.340881 203.692559 53.340881 Z M 215.588232 93.216515 C 219.190442 93.216515 222.02474 92.197285 224.091124 90.186748 C 226.171471 88.134326 227.218625 85.746814 227.218625 83.024213 C 227.218625 80.301612 226.199395 78.053721 224.160934 76.294502 C 222.136436 74.521321 219.497608 73.641711 216.25841 73.641711 L 204.488397 73.641711 C 203.35747 73.641711 202.561633 73.865104 202.114847 74.325852 C 201.682023 74.758676 201.45863 75.456779 201.45863 76.420161 L 201.45863 90.270521 C 201.45863 91.345599 201.640137 92.113512 201.975226 92.560298 C 202.352202 92.993122 202.910684 93.216515 203.692559 93.216515 Z M 215.588232 93.216515 " stroke="#ffc710" stroke-width="4.9509" stroke-opacity="1" stroke-miterlimit="4"/><g fill="#ffdf2b" fill-opacity="1"><g transform="translate(28.297596, 88.459023)"><g><path d="M 0.234375 0 C 0.203125 0 0.175781 -0.0078125 0.15625 -0.03125 C 0.144531 -0.0507812 0.140625 -0.078125 0.140625 -0.109375 C 0.140625 -0.140625 0.144531 -0.171875 0.15625 -0.203125 L 1.5 -3.984375 C 1.507812 -4.023438 1.523438 -4.054688 1.546875 -4.078125 C 1.578125 -4.097656 1.613281 -4.109375 1.65625 -4.109375 L 2.75 -4.109375 C 2.789062 -4.109375 2.828125 -4.09375 2.859375 -4.0625 C 2.898438 -4.03125 2.929688 -3.992188 2.953125 -3.953125 L 4.28125 -0.1875 C 4.28125 -0.15625 4.28125 -0.132812 4.28125 -0.125 C 4.28125 -0.09375 4.273438 -0.0625 4.265625 -0.03125 C 4.253906 -0.0078125 4.234375 0 4.203125 0 L 3.109375 0 C 3.046875 0 3.007812 -0.03125 3 -0.09375 L 2.78125 -0.734375 C 2.769531 -0.753906 2.757812 -0.769531 2.75 -0.78125 C 2.738281 -0.789062 2.71875 -0.796875 2.6875 -0.796875 L 1.515625 -0.796875 C 1.472656 -0.796875 1.445312 -0.773438 1.4375 -0.734375 L 1.21875 -0.078125 C 1.1875 -0.0234375 1.140625 0 1.078125 0 Z M 2.421875 -1.734375 C 2.460938 -1.734375 2.484375 -1.753906 2.484375 -1.796875 C 2.484375 -1.796875 2.476562 -1.8125 2.46875 -1.84375 L 2.140625 -2.796875 C 2.128906 -2.816406 2.113281 -2.828125 2.09375 -2.828125 C 2.082031 -2.828125 2.070312 -2.816406 2.0625 -2.796875 L 1.734375 -1.859375 C 1.722656 -1.835938 1.71875 -1.816406 1.71875 -1.796875 C 1.71875 -1.753906 1.738281 -1.734375 1.78125 -1.734375 Z M 2.421875 -1.734375 "/></g></g></g><g fill="#ffdf2b" fill-opacity="1"><g transform="translate(32.717065, 88.459023)"><g><path d="M 0.28125 -3.984375 C 0.28125 -4.015625 0.289062 -4.039062 0.3125 -4.0625 C 0.332031 -4.09375 0.359375 -4.109375 0.390625 -4.109375 L 1.4375 -4.109375 C 1.507812 -4.109375 1.546875 -4.066406 1.546875 -3.984375 L 1.546875 -0.984375 C 1.546875 -0.953125 1.550781 -0.929688 1.5625 -0.921875 C 1.570312 -0.910156 1.585938 -0.90625 1.609375 -0.90625 L 3.28125 -0.90625 C 3.363281 -0.90625 3.40625 -0.867188 3.40625 -0.796875 L 3.40625 -0.125 C 3.40625 -0.0820312 3.390625 -0.0507812 3.359375 -0.03125 C 3.335938 -0.0078125 3.304688 0 3.265625 0 L 0.4375 0 C 0.382812 0 0.34375 -0.0078125 0.3125 -0.03125 C 0.289062 -0.0507812 0.28125 -0.0859375 0.28125 -0.140625 Z M 0.28125 -3.984375 "/></g></g></g><g fill="#ffdf2b" fill-opacity="1"><g transform="translate(36.273653, 88.459023)"><g><path d="M 0.234375 0 C 0.203125 0 0.175781 -0.0078125 0.15625 -0.03125 C 0.144531 -0.0507812 0.140625 -0.078125 0.140625 -0.109375 C 0.140625 -0.140625 0.144531 -0.171875 0.15625 -0.203125 L 1.5 -3.984375 C 1.507812 -4.023438 1.523438 -4.054688 1.546875 -4.078125 C 1.578125 -4.097656 1.613281 -4.109375 1.65625 -4.109375 L 2.75 -4.109375 C 2.789062 -4.109375 2.828125 -4.09375 2.859375 -4.0625 C 2.898438 -4.03125 2.929688 -3.992188 2.953125 -3.953125 L 4.28125 -0.1875 C 4.28125 -0.15625 4.28125 -0.132812 4.28125 -0.125 C 4.28125 -0.09375 4.273438 -0.0625 4.265625 -0.03125 C 4.253906 -0.0078125 4.234375 0 4.203125 0 L 3.109375 0 C 3.046875 0 3.007812 -0.03125 3 -0.09375 L 2.78125 -0.734375 C 2.769531 -0.753906 2.757812 -0.769531 2.75 -0.78125 C 2.738281 -0.789062 2.71875 -0.796875 2.6875 -0.796875 L 1.515625 -0.796875 C 1.472656 -0.796875 1.445312 -0.773438 1.4375 -0.734375 L 1.21875 -0.078125 C 1.1875 -0.0234375 1.140625 0 1.078125 0 Z M 2.421875 -1.734375 C 2.460938 -1.734375 2.484375 -1.753906 2.484375 -1.796875 C 2.484375 -1.796875 2.476562 -1.8125 2.46875 -1.84375 L 2.140625 -2.796875 C 2.128906 -2.816406 2.113281 -2.828125 2.09375 -2.828125 C 2.082031 -2.828125 2.070312 -2.816406 2.0625 -2.796875 L 1.734375 -1.859375 C 1.722656 -1.835938 1.71875 -1.816406 1.71875 -1.796875 C 1.71875 -1.753906 1.738281 -1.734375 1.78125 -1.734375 Z M 2.421875 -1.734375 "/></g></g></g><g fill="#ffdf2b" fill-opacity="1"><g transform="translate(40.693121, 88.459023)"><g><path d="M 3.84375 -4.109375 C 3.894531 -4.109375 3.921875 -4.078125 3.921875 -4.015625 L 3.921875 -0.09375 C 3.921875 -0.0703125 3.90625 -0.0507812 3.875 -0.03125 C 3.851562 -0.0078125 3.828125 0 3.796875 0 L 3.03125 0 C 3 0 2.972656 -0.00390625 2.953125 -0.015625 C 2.929688 -0.0234375 2.910156 -0.046875 2.890625 -0.078125 L 1.359375 -2.140625 C 1.347656 -2.160156 1.335938 -2.164062 1.328125 -2.15625 C 1.316406 -2.15625 1.3125 -2.148438 1.3125 -2.140625 L 1.3125 -0.125 C 1.3125 -0.0820312 1.300781 -0.0507812 1.28125 -0.03125 C 1.257812 -0.0078125 1.222656 0 1.171875 0 L 0.421875 0 C 0.328125 0 0.28125 -0.0351562 0.28125 -0.109375 L 0.28125 -3.984375 C 0.28125 -4.066406 0.320312 -4.109375 0.40625 -4.109375 L 1.3125 -4.109375 C 1.363281 -4.109375 1.398438 -4.097656 1.421875 -4.078125 C 1.441406 -4.066406 1.46875 -4.039062 1.5 -4 L 2.828125 -2.15625 C 2.847656 -2.125 2.867188 -2.109375 2.890625 -2.109375 C 2.910156 -2.109375 2.921875 -2.128906 2.921875 -2.171875 L 2.921875 -3.984375 C 2.921875 -4.066406 2.957031 -4.109375 3.03125 -4.109375 Z M 3.84375 -4.109375 "/></g></g></g><g fill="#ffdf2b" fill-opacity="1"><g transform="translate(44.9024, 88.459023)"><g/></g></g><g fill="#ffdf2b" fill-opacity="1"><g transform="translate(46.008652, 88.459023)"><g><path d="M 0.421875 0 C 0.378906 0 0.34375 -0.0078125 0.3125 -0.03125 C 0.289062 -0.0625 0.28125 -0.09375 0.28125 -0.125 L 0.28125 -3.953125 C 0.28125 -3.992188 0.289062 -4.03125 0.3125 -4.0625 C 0.34375 -4.09375 0.378906 -4.109375 0.421875 -4.109375 L 2.078125 -4.109375 C 2.648438 -4.109375 3.082031 -4.015625 3.375 -3.828125 C 3.675781 -3.648438 3.828125 -3.378906 3.828125 -3.015625 C 3.828125 -2.828125 3.769531 -2.664062 3.65625 -2.53125 C 3.550781 -2.394531 3.367188 -2.265625 3.109375 -2.140625 C 3.097656 -2.128906 3.09375 -2.117188 3.09375 -2.109375 C 3.09375 -2.109375 3.097656 -2.101562 3.109375 -2.09375 C 3.398438 -1.988281 3.609375 -1.859375 3.734375 -1.703125 C 3.859375 -1.554688 3.921875 -1.363281 3.921875 -1.125 C 3.921875 -0.738281 3.773438 -0.453125 3.484375 -0.265625 C 3.203125 -0.0859375 2.757812 0 2.15625 0 Z M 2.15625 -2.5 C 2.289062 -2.5 2.394531 -2.53125 2.46875 -2.59375 C 2.550781 -2.664062 2.59375 -2.757812 2.59375 -2.875 C 2.59375 -2.988281 2.546875 -3.082031 2.453125 -3.15625 C 2.367188 -3.238281 2.257812 -3.28125 2.125 -3.28125 L 1.671875 -3.28125 C 1.617188 -3.28125 1.582031 -3.269531 1.5625 -3.25 C 1.550781 -3.226562 1.546875 -3.195312 1.546875 -3.15625 L 1.546875 -2.625 C 1.546875 -2.582031 1.550781 -2.550781 1.5625 -2.53125 C 1.582031 -2.507812 1.609375 -2.5 1.640625 -2.5 Z M 2.140625 -0.828125 C 2.285156 -0.828125 2.398438 -0.867188 2.484375 -0.953125 C 2.578125 -1.035156 2.625 -1.132812 2.625 -1.25 C 2.625 -1.363281 2.582031 -1.457031 2.5 -1.53125 C 2.414062 -1.601562 2.300781 -1.640625 2.15625 -1.640625 L 1.671875 -1.640625 C 1.617188 -1.640625 1.582031 -1.628906 1.5625 -1.609375 C 1.550781 -1.597656 1.546875 -1.570312 1.546875 -1.53125 L 1.546875 -0.953125 C 1.546875 -0.910156 1.550781 -0.878906 1.5625 -0.859375 C 1.582031 -0.835938 1.609375 -0.828125 1.640625 -0.828125 Z M 2.140625 -0.828125 "/></g></g></g><g fill="#ffdf2b" fill-opacity="1"><g transform="translate(50.096241, 88.459023)"><g><path d="M 3.875 -0.171875 C 3.882812 -0.160156 3.890625 -0.140625 3.890625 -0.109375 C 3.890625 -0.078125 3.878906 -0.0507812 3.859375 -0.03125 C 3.835938 -0.0078125 3.8125 0 3.78125 0 L 2.703125 0 C 2.628906 0 2.582031 -0.0351562 2.5625 -0.109375 L 2.03125 -1.546875 C 2.019531 -1.578125 2 -1.597656 1.96875 -1.609375 C 1.945312 -1.617188 1.910156 -1.625 1.859375 -1.625 L 1.609375 -1.625 C 1.585938 -1.625 1.570312 -1.617188 1.5625 -1.609375 C 1.550781 -1.597656 1.546875 -1.585938 1.546875 -1.578125 L 1.546875 -0.15625 C 1.546875 -0.101562 1.53125 -0.0625 1.5 -0.03125 C 1.46875 -0.0078125 1.421875 0 1.359375 0 L 0.4375 0 C 0.375 0 0.332031 -0.0078125 0.3125 -0.03125 C 0.289062 -0.0507812 0.28125 -0.0859375 0.28125 -0.140625 L 0.28125 -3.984375 C 0.28125 -4.066406 0.316406 -4.109375 0.390625 -4.109375 L 2.234375 -4.109375 C 2.773438 -4.109375 3.191406 -4.003906 3.484375 -3.796875 C 3.773438 -3.585938 3.921875 -3.300781 3.921875 -2.9375 C 3.921875 -2.675781 3.851562 -2.445312 3.71875 -2.25 C 3.59375 -2.050781 3.421875 -1.910156 3.203125 -1.828125 C 3.179688 -1.816406 3.171875 -1.800781 3.171875 -1.78125 C 3.171875 -1.769531 3.175781 -1.75 3.1875 -1.71875 Z M 2.1875 -2.453125 C 2.332031 -2.453125 2.441406 -2.488281 2.515625 -2.5625 C 2.585938 -2.632812 2.625 -2.734375 2.625 -2.859375 C 2.625 -2.992188 2.578125 -3.097656 2.484375 -3.171875 C 2.398438 -3.242188 2.289062 -3.28125 2.15625 -3.28125 L 1.671875 -3.28125 C 1.617188 -3.28125 1.582031 -3.269531 1.5625 -3.25 C 1.550781 -3.238281 1.546875 -3.210938 1.546875 -3.171875 L 1.546875 -2.578125 C 1.546875 -2.535156 1.550781 -2.503906 1.5625 -2.484375 C 1.570312 -2.460938 1.597656 -2.453125 1.640625 -2.453125 Z M 2.1875 -2.453125 "/></g></g></g><g fill="#ffdf2b" fill-opacity="1"><g transform="translate(54.183829, 88.459023)"><g><path d="M 0.234375 0 C 0.203125 0 0.175781 -0.0078125 0.15625 -0.03125 C 0.144531 -0.0507812 0.140625 -0.078125 0.140625 -0.109375 C 0.140625 -0.140625 0.144531 -0.171875 0.15625 -0.203125 L 1.5 -3.984375 C 1.507812 -4.023438 1.523438 -4.054688 1.546875 -4.078125 C 1.578125 -4.097656 1.613281 -4.109375 1.65625 -4.109375 L 2.75 -4.109375 C 2.789062 -4.109375 2.828125 -4.09375 2.859375 -4.0625 C 2.898438 -4.03125 2.929688 -3.992188 2.953125 -3.953125 L 4.28125 -0.1875 C 4.28125 -0.15625 4.28125 -0.132812 4.28125 -0.125 C 4.28125 -0.09375 4.273438 -0.0625 4.265625 -0.03125 C 4.253906 -0.0078125 4.234375 0 4.203125 0 L 3.109375 0 C 3.046875 0 3.007812 -0.03125 3 -0.09375 L 2.78125 -0.734375 C 2.769531 -0.753906 2.757812 -0.769531 2.75 -0.78125 C 2.738281 -0.789062 2.71875 -0.796875 2.6875 -0.796875 L 1.515625 -0.796875 C 1.472656 -0.796875 1.445312 -0.773438 1.4375 -0.734375 L 1.21875 -0.078125 C 1.1875 -0.0234375 1.140625 0 1.078125 0 Z M 2.421875 -1.734375 C 2.460938 -1.734375 2.484375 -1.753906 2.484375 -1.796875 C 2.484375 -1.796875 2.476562 -1.8125 2.46875 -1.84375 L 2.140625 -2.796875 C 2.128906 -2.816406 2.113281 -2.828125 2.09375 -2.828125 C 2.082031 -2.828125 2.070312 -2.816406 2.0625 -2.796875 L 1.734375 -1.859375 C 1.722656 -1.835938 1.71875 -1.816406 1.71875 -1.796875 C 1.71875 -1.753906 1.738281 -1.734375 1.78125 -1.734375 Z M 2.421875 -1.734375 "/></g></g></g><g fill="#ffdf2b" fill-opacity="1"><g transform="translate(58.603297, 88.459023)"><g><path d="M 2.109375 0.0625 C 1.722656 0.0625 1.378906 -0.0234375 1.078125 -0.203125 C 0.785156 -0.378906 0.5625 -0.625 0.40625 -0.9375 C 0.25 -1.257812 0.171875 -1.625 0.171875 -2.03125 C 0.171875 -2.457031 0.253906 -2.828125 0.421875 -3.140625 C 0.585938 -3.460938 0.820312 -3.710938 1.125 -3.890625 C 1.4375 -4.066406 1.785156 -4.15625 2.171875 -4.15625 C 2.492188 -4.15625 2.773438 -4.097656 3.015625 -3.984375 C 3.265625 -3.867188 3.46875 -3.71875 3.625 -3.53125 C 3.78125 -3.351562 3.878906 -3.160156 3.921875 -2.953125 C 3.929688 -2.898438 3.9375 -2.863281 3.9375 -2.84375 C 3.9375 -2.8125 3.929688 -2.789062 3.921875 -2.78125 C 3.910156 -2.769531 3.882812 -2.757812 3.84375 -2.75 L 2.90625 -2.609375 C 2.863281 -2.609375 2.835938 -2.613281 2.828125 -2.625 C 2.816406 -2.644531 2.804688 -2.675781 2.796875 -2.71875 C 2.765625 -2.882812 2.691406 -3.019531 2.578125 -3.125 C 2.472656 -3.238281 2.328125 -3.296875 2.140625 -3.296875 C 1.921875 -3.296875 1.753906 -3.203125 1.640625 -3.015625 C 1.535156 -2.835938 1.484375 -2.519531 1.484375 -2.0625 C 1.484375 -1.59375 1.539062 -1.265625 1.65625 -1.078125 C 1.78125 -0.898438 1.957031 -0.8125 2.1875 -0.8125 C 2.488281 -0.8125 2.6875 -0.9375 2.78125 -1.1875 L 2.796875 -1.25 L 2.8125 -1.28125 C 2.8125 -1.320312 2.789062 -1.34375 2.75 -1.34375 L 2.234375 -1.34375 C 2.191406 -1.34375 2.160156 -1.347656 2.140625 -1.359375 C 2.128906 -1.378906 2.125 -1.410156 2.125 -1.453125 L 2.125 -1.984375 C 2.125 -2.046875 2.160156 -2.078125 2.234375 -2.078125 L 3.78125 -2.078125 C 3.851562 -2.078125 3.90625 -2.0625 3.9375 -2.03125 C 3.976562 -2 4 -1.957031 4 -1.90625 L 4 -0.09375 C 4 -0.0703125 3.988281 -0.0507812 3.96875 -0.03125 C 3.945312 -0.0078125 3.925781 0 3.90625 0 L 3.6875 0 C 3.625 0 3.566406 -0.0351562 3.515625 -0.109375 L 3.296875 -0.421875 C 3.296875 -0.429688 3.289062 -0.4375 3.28125 -0.4375 C 3.269531 -0.4375 3.253906 -0.429688 3.234375 -0.421875 C 3.140625 -0.328125 3.046875 -0.25 2.953125 -0.1875 C 2.867188 -0.125 2.753906 -0.0664062 2.609375 -0.015625 C 2.472656 0.0351562 2.304688 0.0625 2.109375 0.0625 Z M 2.109375 0.0625 "/></g></g></g><g fill="#ffdf2b" fill-opacity="1"><g transform="translate(62.812575, 88.459023)"><g><path d="M 0.234375 0 C 0.203125 0 0.175781 -0.0078125 0.15625 -0.03125 C 0.144531 -0.0507812 0.140625 -0.078125 0.140625 -0.109375 C 0.140625 -0.140625 0.144531 -0.171875 0.15625 -0.203125 L 1.5 -3.984375 C 1.507812 -4.023438 1.523438 -4.054688 1.546875 -4.078125 C 1.578125 -4.097656 1.613281 -4.109375 1.65625 -4.109375 L 2.75 -4.109375 C 2.789062 -4.109375 2.828125 -4.09375 2.859375 -4.0625 C 2.898438 -4.03125 2.929688 -3.992188 2.953125 -3.953125 L 4.28125 -0.1875 C 4.28125 -0.15625 4.28125 -0.132812 4.28125 -0.125 C 4.28125 -0.09375 4.273438 -0.0625 4.265625 -0.03125 C 4.253906 -0.0078125 4.234375 0 4.203125 0 L 3.109375 0 C 3.046875 0 3.007812 -0.03125 3 -0.09375 L 2.78125 -0.734375 C 2.769531 -0.753906 2.757812 -0.769531 2.75 -0.78125 C 2.738281 -0.789062 2.71875 -0.796875 2.6875 -0.796875 L 1.515625 -0.796875 C 1.472656 -0.796875 1.445312 -0.773438 1.4375 -0.734375 L 1.21875 -0.078125 C 1.1875 -0.0234375 1.140625 0 1.078125 0 Z M 2.421875 -1.734375 C 2.460938 -1.734375 2.484375 -1.753906 2.484375 -1.796875 C 2.484375 -1.796875 2.476562 -1.8125 2.46875 -1.84375 L 2.140625 -2.796875 C 2.128906 -2.816406 2.113281 -2.828125 2.09375 -2.828125 C 2.082031 -2.828125 2.070312 -2.816406 2.0625 -2.796875 L 1.734375 -1.859375 C 1.722656 -1.835938 1.71875 -1.816406 1.71875 -1.796875 C 1.71875 -1.753906 1.738281 -1.734375 1.78125 -1.734375 Z M 2.421875 -1.734375 "/></g></g></g></svg>