<svg xmlns="http://www.w3.org/2000/svg" xmlns:xlink="http://www.w3.org/1999/xlink" width="1080" zoomAndPan="magnify" viewBox="0 0 810 809.999993" height="1080" preserveAspectRatio="xMidYMid meet" version="1.0"><defs><g/><clipPath id="8037bc7460"><path d="M 0 365 L 810 365 L 810 641 L 0 641 Z M 0 365 " clip-rule="nonzero"/></clipPath><clipPath id="09b52925d6"><path d="M -209.382812 592.78125 L 976.996094 365.875 L 986.207031 414.023438 L -200.171875 640.929688 Z M -209.382812 592.78125 " clip-rule="nonzero"/></clipPath><clipPath id="d3fcfa467b"><path d="M 0 245 L 810 245 L 810 426 L 0 426 Z M 0 245 " clip-rule="nonzero"/></clipPath><clipPath id="dabcadeb93"><path d="M -177.378906 245.964844 L 1022.964844 380.742188 L 1017.910156 425.738281 L -182.429688 290.960938 Z M -177.378906 245.964844 " clip-rule="nonzero"/></clipPath><clipPath id="7841164a79"><path d="M 344.320312 68.546875 L 465.679688 68.546875 L 465.679688 189.90625 L 344.320312 189.90625 Z M 344.320312 68.546875 " clip-rule="nonzero"/></clipPath><clipPath id="e3817d4889"><path d="M 405 68.546875 C 371.488281 68.546875 344.320312 95.714844 344.320312 129.226562 C 344.320312 162.738281 371.488281 189.90625 405 189.90625 C 438.511719 189.90625 465.679688 162.738281 465.679688 129.226562 C 465.679688 95.714844 438.511719 68.546875 405 68.546875 Z M 405 68.546875 " clip-rule="nonzero"/></clipPath><clipPath id="ba26d96d78"><path d="M 377.59375 97.429688 L 432.34375 97.429688 L 432.34375 161.179688 L 377.59375 161.179688 Z M 377.59375 97.429688 " clip-rule="nonzero"/></clipPath></defs><rect x="-81" width="972" fill="#ffffff" y="-80.999999" height="971.999992" fill-opacity="1"/><rect x="-81" width="972" fill="#000000" y="-80.999999" height="971.999992" fill-opacity="1"/><g clip-path="url(#8037bc7460)"><g clip-path="url(#09b52925d6)"><path fill="#ffc710" d="M -209.382812 592.78125 L 977.035156 365.867188 L 986.246094 414.015625 L -200.171875 640.929688 Z M -209.382812 592.78125 " fill-opacity="1" fill-rule="nonzero"/></g></g><g fill="#000000" fill-opacity="1"><g transform="translate(-8.919827, 595.539365)"><g><path d="M 6.390625 -18.078125 L 2.765625 -17.390625 L 3.484375 -13.65625 L 6.890625 -14.3125 L 7.640625 -10.375 L 4.234375 -9.71875 L 5.09375 -5.234375 L 9.015625 -5.984375 L 9.796875 -1.875 L 0.625 -0.125 L -3.265625 -20.5 L 5.609375 -22.1875 Z M 6.390625 -18.078125 "/></g></g></g><g fill="#000000" fill-opacity="1"><g transform="translate(1.126536, 593.617905)"><g><path d="M 5.921875 -5.21875 L 5.984375 -5.21875 L 4.1875 -21.921875 L 9.09375 -22.859375 L 10.21875 -1.953125 L 2.765625 -0.53125 L -3.65625 -20.421875 L 1.59375 -21.421875 Z M 5.921875 -5.21875 "/></g></g></g><g fill="#000000" fill-opacity="1"><g transform="translate(14.340918, 591.090531)"><g><path d="M 6.390625 -18.078125 L 2.765625 -17.390625 L 3.484375 -13.65625 L 6.890625 -14.3125 L 7.640625 -10.375 L 4.234375 -9.71875 L 5.09375 -5.234375 L 9.015625 -5.984375 L 9.796875 -1.875 L 0.625 -0.125 L -3.265625 -20.5 L 5.609375 -22.1875 Z M 6.390625 -18.078125 "/></g></g></g><g fill="#000000" fill-opacity="1"><g transform="translate(24.38728, 589.169071)"><g/></g></g><g fill="#000000" fill-opacity="1"><g transform="translate(31.237074, 587.858984)"><g><path d="M 4.21875 -16.625 C 5.125 -16.800781 6.007812 -16.738281 6.875 -16.4375 C 7.75 -16.132812 8.488281 -15.632812 9.09375 -14.9375 C 9.707031 -14.25 10.097656 -13.445312 10.265625 -12.53125 C 10.441406 -11.625 10.375 -10.734375 10.0625 -9.859375 C 9.757812 -8.984375 9.257812 -8.242188 8.5625 -7.640625 C 7.863281 -7.035156 7.0625 -6.644531 6.15625 -6.46875 C 5.238281 -6.300781 4.347656 -6.367188 3.484375 -6.671875 C 2.617188 -6.972656 1.882812 -7.472656 1.28125 -8.171875 C 0.675781 -8.867188 0.285156 -9.671875 0.109375 -10.578125 C -0.0546875 -11.492188 0.0078125 -12.382812 0.3125 -13.25 C 0.613281 -14.125 1.109375 -14.863281 1.796875 -15.46875 C 2.492188 -16.070312 3.300781 -16.457031 4.21875 -16.625 Z M 4.21875 -16.625 "/></g></g></g><g fill="#000000" fill-opacity="1"><g transform="translate(45.507457, 585.129641)"><g/></g></g><g fill="#000000" fill-opacity="1"><g transform="translate(52.35725, 583.819554)"><g><path d="M 6.390625 -18.078125 L 2.765625 -17.390625 L 3.484375 -13.65625 L 6.890625 -14.3125 L 7.640625 -10.375 L 4.234375 -9.71875 L 5.09375 -5.234375 L 9.015625 -5.984375 L 9.796875 -1.875 L 0.625 -0.125 L -3.265625 -20.5 L 5.609375 -22.1875 Z M 6.390625 -18.078125 "/></g></g></g><g fill="#000000" fill-opacity="1"><g transform="translate(62.403612, 581.898094)"><g><path d="M 7.375 -10.1875 L 7.421875 -10.203125 L 6.390625 -22.34375 L 13.46875 -23.6875 L 17.359375 -3.3125 L 12.90625 -2.46875 L 10.015625 -17.59375 L 9.953125 -17.578125 L 10.65625 -2.03125 L 7.328125 -1.40625 L 2.25 -16.109375 L 2.1875 -16.09375 L 5.078125 -0.96875 L 0.625 -0.125 L -3.265625 -20.5 L 3.734375 -21.828125 Z M 7.375 -10.1875 "/></g></g></g><g fill="#000000" fill-opacity="1"><g transform="translate(80.384299, 578.45912)"><g/></g></g><g fill="#000000" fill-opacity="1"><g transform="translate(87.234092, 577.149034)"><g><path d="M 9.21875 -19.109375 L 9.6875 -16.640625 C 9.894531 -15.554688 9.738281 -14.738281 9.21875 -14.1875 C 8.707031 -13.632812 7.914062 -13.25 6.84375 -13.03125 L 6.78125 -12.953125 C 8.070312 -13.117188 9.101562 -12.910156 9.875 -12.328125 C 10.644531 -11.753906 11.128906 -10.929688 11.328125 -9.859375 L 11.90625 -6.8125 C 12.195312 -5.3125 12 -4.128906 11.3125 -3.265625 C 10.625 -2.398438 9.476562 -1.8125 7.875 -1.5 L 0.625 -0.125 L -3.265625 -20.5 L 4.296875 -21.9375 C 5.722656 -22.207031 6.835938 -22.113281 7.640625 -21.65625 C 8.453125 -21.207031 8.976562 -20.359375 9.21875 -19.109375 Z M 3.9375 -13.65625 C 4.332031 -13.738281 4.601562 -13.921875 4.75 -14.203125 C 4.90625 -14.484375 4.953125 -14.773438 4.890625 -15.078125 L 4.453125 -17.375 C 4.398438 -17.632812 4.253906 -17.878906 4.015625 -18.109375 C 3.773438 -18.335938 3.425781 -18.40625 2.96875 -18.3125 L 2.421875 -18.21875 L 3.328125 -13.546875 Z M 6.609375 -6.09375 L 5.9375 -9.578125 C 5.863281 -9.972656 5.695312 -10.253906 5.4375 -10.421875 C 5.175781 -10.585938 4.847656 -10.628906 4.453125 -10.546875 L 3.90625 -10.453125 L 5.046875 -4.515625 C 5.117188 -4.503906 5.222656 -4.515625 5.359375 -4.546875 C 5.816406 -4.628906 6.160156 -4.789062 6.390625 -5.03125 C 6.617188 -5.28125 6.691406 -5.632812 6.609375 -6.09375 Z M 6.609375 -6.09375 "/></g></g></g><g fill="#000000" fill-opacity="1"><g transform="translate(100.448475, 574.62166)"><g><path d="M 9.265625 -18.734375 L 9.65625 -16.671875 C 9.875 -15.546875 9.773438 -14.648438 9.359375 -13.984375 C 8.953125 -13.328125 8.242188 -12.863281 7.234375 -12.59375 L 7.234375 -12.546875 C 8.378906 -12.691406 9.269531 -12.523438 9.90625 -12.046875 C 10.550781 -11.578125 10.976562 -10.78125 11.1875 -9.65625 L 12.578125 -2.40625 L 7.671875 -1.46875 L 6.171875 -9.296875 C 5.960938 -10.410156 5.40625 -10.878906 4.5 -10.703125 C 4.289062 -10.660156 4.09375 -10.597656 3.90625 -10.515625 L 5.703125 -1.09375 L 0.625 -0.125 L -3.265625 -20.5 L 2.875 -21.671875 C 4.09375 -21.898438 5.101562 -22 5.90625 -21.96875 C 6.71875 -21.945312 7.425781 -21.691406 8.03125 -21.203125 C 8.632812 -20.710938 9.046875 -19.890625 9.265625 -18.734375 Z M 3.671875 -13.734375 C 4.285156 -13.859375 4.675781 -14.078125 4.84375 -14.390625 C 5.019531 -14.710938 5.070312 -15.0625 5 -15.4375 L 4.65625 -17.234375 C 4.59375 -17.566406 4.421875 -17.851562 4.140625 -18.09375 C 3.859375 -18.34375 3.421875 -18.410156 2.828125 -18.296875 L 2.421875 -18.21875 L 3.296875 -13.671875 Z M 3.671875 -13.734375 "/></g></g></g><g fill="#000000" fill-opacity="1"><g transform="translate(113.662857, 572.094287)"><g><path d="M 6.390625 -18.078125 L 2.765625 -17.390625 L 3.484375 -13.65625 L 6.890625 -14.3125 L 7.640625 -10.375 L 4.234375 -9.71875 L 5.09375 -5.234375 L 9.015625 -5.984375 L 9.796875 -1.875 L 0.625 -0.125 L -3.265625 -20.5 L 5.609375 -22.1875 Z M 6.390625 -18.078125 "/></g></g></g><g fill="#000000" fill-opacity="1"><g transform="translate(123.709201, 570.17283)"><g><path d="M 5.921875 -5.21875 L 5.984375 -5.21875 L 4.1875 -21.921875 L 9.09375 -22.859375 L 10.21875 -1.953125 L 2.765625 -0.53125 L -3.65625 -20.421875 L 1.59375 -21.421875 Z M 5.921875 -5.21875 "/></g></g></g><g fill="#000000" fill-opacity="1"><g transform="translate(136.923566, 567.64546)"><g><path d="M 6.390625 -18.078125 L 2.765625 -17.390625 L 3.484375 -13.65625 L 6.890625 -14.3125 L 7.640625 -10.375 L 4.234375 -9.71875 L 5.09375 -5.234375 L 9.015625 -5.984375 L 9.796875 -1.875 L 0.625 -0.125 L -3.265625 -20.5 L 5.609375 -22.1875 Z M 6.390625 -18.078125 "/></g></g></g><g fill="#000000" fill-opacity="1"><g transform="translate(146.96991, 565.724003)"><g/></g></g><g fill="#000000" fill-opacity="1"><g transform="translate(153.819685, 564.41392)"><g><path d="M 4.21875 -16.625 C 5.125 -16.800781 6.007812 -16.738281 6.875 -16.4375 C 7.75 -16.132812 8.488281 -15.632812 9.09375 -14.9375 C 9.707031 -14.25 10.097656 -13.445312 10.265625 -12.53125 C 10.441406 -11.625 10.375 -10.734375 10.0625 -9.859375 C 9.757812 -8.984375 9.257812 -8.242188 8.5625 -7.640625 C 7.863281 -7.035156 7.0625 -6.644531 6.15625 -6.46875 C 5.238281 -6.300781 4.347656 -6.367188 3.484375 -6.671875 C 2.617188 -6.972656 1.882812 -7.472656 1.28125 -8.171875 C 0.675781 -8.867188 0.285156 -9.671875 0.109375 -10.578125 C -0.0546875 -11.492188 0.0078125 -12.382812 0.3125 -13.25 C 0.613281 -14.125 1.109375 -14.863281 1.796875 -15.46875 C 2.492188 -16.070312 3.300781 -16.457031 4.21875 -16.625 Z M 4.21875 -16.625 "/></g></g></g><g fill="#000000" fill-opacity="1"><g transform="translate(168.090068, 561.684577)"><g/></g></g><g fill="#000000" fill-opacity="1"><g transform="translate(174.939843, 560.374493)"><g><path d="M 6.390625 -18.078125 L 2.765625 -17.390625 L 3.484375 -13.65625 L 6.890625 -14.3125 L 7.640625 -10.375 L 4.234375 -9.71875 L 5.09375 -5.234375 L 9.015625 -5.984375 L 9.796875 -1.875 L 0.625 -0.125 L -3.265625 -20.5 L 5.609375 -22.1875 Z M 6.390625 -18.078125 "/></g></g></g><g fill="#000000" fill-opacity="1"><g transform="translate(184.986187, 558.453037)"><g><path d="M 7.375 -10.1875 L 7.421875 -10.203125 L 6.390625 -22.34375 L 13.46875 -23.6875 L 17.359375 -3.3125 L 12.90625 -2.46875 L 10.015625 -17.59375 L 9.953125 -17.578125 L 10.65625 -2.03125 L 7.328125 -1.40625 L 2.25 -16.109375 L 2.1875 -16.09375 L 5.078125 -0.96875 L 0.625 -0.125 L -3.265625 -20.5 L 3.734375 -21.828125 Z M 7.375 -10.1875 "/></g></g></g><g fill="#000000" fill-opacity="1"><g transform="translate(202.966874, 555.014063)"><g/></g></g><g fill="#000000" fill-opacity="1"><g transform="translate(209.816649, 553.70398)"><g><path d="M 9.21875 -19.109375 L 9.6875 -16.640625 C 9.894531 -15.554688 9.738281 -14.738281 9.21875 -14.1875 C 8.707031 -13.632812 7.914062 -13.25 6.84375 -13.03125 L 6.78125 -12.953125 C 8.070312 -13.117188 9.101562 -12.910156 9.875 -12.328125 C 10.644531 -11.753906 11.128906 -10.929688 11.328125 -9.859375 L 11.90625 -6.8125 C 12.195312 -5.3125 12 -4.128906 11.3125 -3.265625 C 10.625 -2.398438 9.476562 -1.8125 7.875 -1.5 L 0.625 -0.125 L -3.265625 -20.5 L 4.296875 -21.9375 C 5.722656 -22.207031 6.835938 -22.113281 7.640625 -21.65625 C 8.453125 -21.207031 8.976562 -20.359375 9.21875 -19.109375 Z M 3.9375 -13.65625 C 4.332031 -13.738281 4.601562 -13.921875 4.75 -14.203125 C 4.90625 -14.484375 4.953125 -14.773438 4.890625 -15.078125 L 4.453125 -17.375 C 4.398438 -17.632812 4.253906 -17.878906 4.015625 -18.109375 C 3.773438 -18.335938 3.425781 -18.40625 2.96875 -18.3125 L 2.421875 -18.21875 L 3.328125 -13.546875 Z M 6.609375 -6.09375 L 5.9375 -9.578125 C 5.863281 -9.972656 5.695312 -10.253906 5.4375 -10.421875 C 5.175781 -10.585938 4.847656 -10.628906 4.453125 -10.546875 L 3.90625 -10.453125 L 5.046875 -4.515625 C 5.117188 -4.503906 5.222656 -4.515625 5.359375 -4.546875 C 5.816406 -4.628906 6.160156 -4.789062 6.390625 -5.03125 C 6.617188 -5.28125 6.691406 -5.632812 6.609375 -6.09375 Z M 6.609375 -6.09375 "/></g></g></g><g fill="#000000" fill-opacity="1"><g transform="translate(223.031014, 551.17661)"><g><path d="M 9.265625 -18.734375 L 9.65625 -16.671875 C 9.875 -15.546875 9.773438 -14.648438 9.359375 -13.984375 C 8.953125 -13.328125 8.242188 -12.863281 7.234375 -12.59375 L 7.234375 -12.546875 C 8.378906 -12.691406 9.269531 -12.523438 9.90625 -12.046875 C 10.550781 -11.578125 10.976562 -10.78125 11.1875 -9.65625 L 12.578125 -2.40625 L 7.671875 -1.46875 L 6.171875 -9.296875 C 5.960938 -10.410156 5.40625 -10.878906 4.5 -10.703125 C 4.289062 -10.660156 4.09375 -10.597656 3.90625 -10.515625 L 5.703125 -1.09375 L 0.625 -0.125 L -3.265625 -20.5 L 2.875 -21.671875 C 4.09375 -21.898438 5.101562 -22 5.90625 -21.96875 C 6.71875 -21.945312 7.425781 -21.691406 8.03125 -21.203125 C 8.632812 -20.710938 9.046875 -19.890625 9.265625 -18.734375 Z M 3.671875 -13.734375 C 4.285156 -13.859375 4.675781 -14.078125 4.84375 -14.390625 C 5.019531 -14.710938 5.070312 -15.0625 5 -15.4375 L 4.65625 -17.234375 C 4.59375 -17.566406 4.421875 -17.851562 4.140625 -18.09375 C 3.859375 -18.34375 3.421875 -18.410156 2.828125 -18.296875 L 2.421875 -18.21875 L 3.296875 -13.671875 Z M 3.671875 -13.734375 "/></g></g></g><g fill="#000000" fill-opacity="1"><g transform="translate(236.245378, 548.64924)"><g><path d="M 6.390625 -18.078125 L 2.765625 -17.390625 L 3.484375 -13.65625 L 6.890625 -14.3125 L 7.640625 -10.375 L 4.234375 -9.71875 L 5.09375 -5.234375 L 9.015625 -5.984375 L 9.796875 -1.875 L 0.625 -0.125 L -3.265625 -20.5 L 5.609375 -22.1875 Z M 6.390625 -18.078125 "/></g></g></g><g fill="#000000" fill-opacity="1"><g transform="translate(246.291722, 546.727783)"><g><path d="M 5.921875 -5.21875 L 5.984375 -5.21875 L 4.1875 -21.921875 L 9.09375 -22.859375 L 10.21875 -1.953125 L 2.765625 -0.53125 L -3.65625 -20.421875 L 1.59375 -21.421875 Z M 5.921875 -5.21875 "/></g></g></g><g fill="#000000" fill-opacity="1"><g transform="translate(259.506087, 544.200413)"><g><path d="M 6.390625 -18.078125 L 2.765625 -17.390625 L 3.484375 -13.65625 L 6.890625 -14.3125 L 7.640625 -10.375 L 4.234375 -9.71875 L 5.09375 -5.234375 L 9.015625 -5.984375 L 9.796875 -1.875 L 0.625 -0.125 L -3.265625 -20.5 L 5.609375 -22.1875 Z M 6.390625 -18.078125 "/></g></g></g><g fill="#000000" fill-opacity="1"><g transform="translate(269.552431, 542.278956)"><g/></g></g><g fill="#000000" fill-opacity="1"><g transform="translate(276.402206, 540.968873)"><g><path d="M 4.21875 -16.625 C 5.125 -16.800781 6.007812 -16.738281 6.875 -16.4375 C 7.75 -16.132812 8.488281 -15.632812 9.09375 -14.9375 C 9.707031 -14.25 10.097656 -13.445312 10.265625 -12.53125 C 10.441406 -11.625 10.375 -10.734375 10.0625 -9.859375 C 9.757812 -8.984375 9.257812 -8.242188 8.5625 -7.640625 C 7.863281 -7.035156 7.0625 -6.644531 6.15625 -6.46875 C 5.238281 -6.300781 4.347656 -6.367188 3.484375 -6.671875 C 2.617188 -6.972656 1.882812 -7.472656 1.28125 -8.171875 C 0.675781 -8.867188 0.285156 -9.671875 0.109375 -10.578125 C -0.0546875 -11.492188 0.0078125 -12.382812 0.3125 -13.25 C 0.613281 -14.125 1.109375 -14.863281 1.796875 -15.46875 C 2.492188 -16.070312 3.300781 -16.457031 4.21875 -16.625 Z M 4.21875 -16.625 "/></g></g></g><g fill="#000000" fill-opacity="1"><g transform="translate(290.672589, 538.23953)"><g/></g></g><g fill="#000000" fill-opacity="1"><g transform="translate(297.522364, 536.929447)"><g><path d="M 6.390625 -18.078125 L 2.765625 -17.390625 L 3.484375 -13.65625 L 6.890625 -14.3125 L 7.640625 -10.375 L 4.234375 -9.71875 L 5.09375 -5.234375 L 9.015625 -5.984375 L 9.796875 -1.875 L 0.625 -0.125 L -3.265625 -20.5 L 5.609375 -22.1875 Z M 6.390625 -18.078125 "/></g></g></g><g fill="#000000" fill-opacity="1"><g transform="translate(307.568708, 535.00799)"><g><path d="M 7.375 -10.1875 L 7.421875 -10.203125 L 6.390625 -22.34375 L 13.46875 -23.6875 L 17.359375 -3.3125 L 12.90625 -2.46875 L 10.015625 -17.59375 L 9.953125 -17.578125 L 10.65625 -2.03125 L 7.328125 -1.40625 L 2.25 -16.109375 L 2.1875 -16.09375 L 5.078125 -0.96875 L 0.625 -0.125 L -3.265625 -20.5 L 3.734375 -21.828125 Z M 7.375 -10.1875 "/></g></g></g><g fill="#000000" fill-opacity="1"><g transform="translate(325.549395, 531.569016)"><g/></g></g><g fill="#000000" fill-opacity="1"><g transform="translate(332.39917, 530.258933)"><g><path d="M 9.21875 -19.109375 L 9.6875 -16.640625 C 9.894531 -15.554688 9.738281 -14.738281 9.21875 -14.1875 C 8.707031 -13.632812 7.914062 -13.25 6.84375 -13.03125 L 6.78125 -12.953125 C 8.070312 -13.117188 9.101562 -12.910156 9.875 -12.328125 C 10.644531 -11.753906 11.128906 -10.929688 11.328125 -9.859375 L 11.90625 -6.8125 C 12.195312 -5.3125 12 -4.128906 11.3125 -3.265625 C 10.625 -2.398438 9.476562 -1.8125 7.875 -1.5 L 0.625 -0.125 L -3.265625 -20.5 L 4.296875 -21.9375 C 5.722656 -22.207031 6.835938 -22.113281 7.640625 -21.65625 C 8.453125 -21.207031 8.976562 -20.359375 9.21875 -19.109375 Z M 3.9375 -13.65625 C 4.332031 -13.738281 4.601562 -13.921875 4.75 -14.203125 C 4.90625 -14.484375 4.953125 -14.773438 4.890625 -15.078125 L 4.453125 -17.375 C 4.398438 -17.632812 4.253906 -17.878906 4.015625 -18.109375 C 3.773438 -18.335938 3.425781 -18.40625 2.96875 -18.3125 L 2.421875 -18.21875 L 3.328125 -13.546875 Z M 6.609375 -6.09375 L 5.9375 -9.578125 C 5.863281 -9.972656 5.695312 -10.253906 5.4375 -10.421875 C 5.175781 -10.585938 4.847656 -10.628906 4.453125 -10.546875 L 3.90625 -10.453125 L 5.046875 -4.515625 C 5.117188 -4.503906 5.222656 -4.515625 5.359375 -4.546875 C 5.816406 -4.628906 6.160156 -4.789062 6.390625 -5.03125 C 6.617188 -5.28125 6.691406 -5.632812 6.609375 -6.09375 Z M 6.609375 -6.09375 "/></g></g></g><g fill="#000000" fill-opacity="1"><g transform="translate(345.613535, 527.731563)"><g><path d="M 9.265625 -18.734375 L 9.65625 -16.671875 C 9.875 -15.546875 9.773438 -14.648438 9.359375 -13.984375 C 8.953125 -13.328125 8.242188 -12.863281 7.234375 -12.59375 L 7.234375 -12.546875 C 8.378906 -12.691406 9.269531 -12.523438 9.90625 -12.046875 C 10.550781 -11.578125 10.976562 -10.78125 11.1875 -9.65625 L 12.578125 -2.40625 L 7.671875 -1.46875 L 6.171875 -9.296875 C 5.960938 -10.410156 5.40625 -10.878906 4.5 -10.703125 C 4.289062 -10.660156 4.09375 -10.597656 3.90625 -10.515625 L 5.703125 -1.09375 L 0.625 -0.125 L -3.265625 -20.5 L 2.875 -21.671875 C 4.09375 -21.898438 5.101562 -22 5.90625 -21.96875 C 6.71875 -21.945312 7.425781 -21.691406 8.03125 -21.203125 C 8.632812 -20.710938 9.046875 -19.890625 9.265625 -18.734375 Z M 3.671875 -13.734375 C 4.285156 -13.859375 4.675781 -14.078125 4.84375 -14.390625 C 5.019531 -14.710938 5.070312 -15.0625 5 -15.4375 L 4.65625 -17.234375 C 4.59375 -17.566406 4.421875 -17.851562 4.140625 -18.09375 C 3.859375 -18.34375 3.421875 -18.410156 2.828125 -18.296875 L 2.421875 -18.21875 L 3.296875 -13.671875 Z M 3.671875 -13.734375 "/></g></g></g><g fill="#000000" fill-opacity="1"><g transform="translate(358.827899, 525.204193)"><g><path d="M 6.390625 -18.078125 L 2.765625 -17.390625 L 3.484375 -13.65625 L 6.890625 -14.3125 L 7.640625 -10.375 L 4.234375 -9.71875 L 5.09375 -5.234375 L 9.015625 -5.984375 L 9.796875 -1.875 L 0.625 -0.125 L -3.265625 -20.5 L 5.609375 -22.1875 Z M 6.390625 -18.078125 "/></g></g></g><g fill="#000000" fill-opacity="1"><g transform="translate(368.874243, 523.282736)"><g><path d="M 5.921875 -5.21875 L 5.984375 -5.21875 L 4.1875 -21.921875 L 9.09375 -22.859375 L 10.21875 -1.953125 L 2.765625 -0.53125 L -3.65625 -20.421875 L 1.59375 -21.421875 Z M 5.921875 -5.21875 "/></g></g></g><g fill="#000000" fill-opacity="1"><g transform="translate(382.088607, 520.755366)"><g><path d="M 6.390625 -18.078125 L 2.765625 -17.390625 L 3.484375 -13.65625 L 6.890625 -14.3125 L 7.640625 -10.375 L 4.234375 -9.71875 L 5.09375 -5.234375 L 9.015625 -5.984375 L 9.796875 -1.875 L 0.625 -0.125 L -3.265625 -20.5 L 5.609375 -22.1875 Z M 6.390625 -18.078125 "/></g></g></g><g fill="#000000" fill-opacity="1"><g transform="translate(392.134952, 518.83391)"><g/></g></g><g fill="#000000" fill-opacity="1"><g transform="translate(398.984727, 517.523826)"><g><path d="M 4.21875 -16.625 C 5.125 -16.800781 6.007812 -16.738281 6.875 -16.4375 C 7.75 -16.132812 8.488281 -15.632812 9.09375 -14.9375 C 9.707031 -14.25 10.097656 -13.445312 10.265625 -12.53125 C 10.441406 -11.625 10.375 -10.734375 10.0625 -9.859375 C 9.757812 -8.984375 9.257812 -8.242188 8.5625 -7.640625 C 7.863281 -7.035156 7.0625 -6.644531 6.15625 -6.46875 C 5.238281 -6.300781 4.347656 -6.367188 3.484375 -6.671875 C 2.617188 -6.972656 1.882812 -7.472656 1.28125 -8.171875 C 0.675781 -8.867188 0.285156 -9.671875 0.109375 -10.578125 C -0.0546875 -11.492188 0.0078125 -12.382812 0.3125 -13.25 C 0.613281 -14.125 1.109375 -14.863281 1.796875 -15.46875 C 2.492188 -16.070312 3.300781 -16.457031 4.21875 -16.625 Z M 4.21875 -16.625 "/></g></g></g><g fill="#000000" fill-opacity="1"><g transform="translate(413.25511, 514.794483)"><g/></g></g><g fill="#000000" fill-opacity="1"><g transform="translate(420.104885, 513.4844)"><g><path d="M 6.390625 -18.078125 L 2.765625 -17.390625 L 3.484375 -13.65625 L 6.890625 -14.3125 L 7.640625 -10.375 L 4.234375 -9.71875 L 5.09375 -5.234375 L 9.015625 -5.984375 L 9.796875 -1.875 L 0.625 -0.125 L -3.265625 -20.5 L 5.609375 -22.1875 Z M 6.390625 -18.078125 "/></g></g></g><g fill="#000000" fill-opacity="1"><g transform="translate(430.151265, 511.562936)"><g><path d="M 7.375 -10.1875 L 7.421875 -10.203125 L 6.390625 -22.34375 L 13.46875 -23.6875 L 17.359375 -3.3125 L 12.90625 -2.46875 L 10.015625 -17.59375 L 9.953125 -17.578125 L 10.65625 -2.03125 L 7.328125 -1.40625 L 2.25 -16.109375 L 2.1875 -16.09375 L 5.078125 -0.96875 L 0.625 -0.125 L -3.265625 -20.5 L 3.734375 -21.828125 Z M 7.375 -10.1875 "/></g></g></g><g fill="#000000" fill-opacity="1"><g transform="translate(448.131989, 508.123956)"><g/></g></g><g fill="#000000" fill-opacity="1"><g transform="translate(454.981764, 506.813872)"><g><path d="M 9.21875 -19.109375 L 9.6875 -16.640625 C 9.894531 -15.554688 9.738281 -14.738281 9.21875 -14.1875 C 8.707031 -13.632812 7.914062 -13.25 6.84375 -13.03125 L 6.78125 -12.953125 C 8.070312 -13.117188 9.101562 -12.910156 9.875 -12.328125 C 10.644531 -11.753906 11.128906 -10.929688 11.328125 -9.859375 L 11.90625 -6.8125 C 12.195312 -5.3125 12 -4.128906 11.3125 -3.265625 C 10.625 -2.398438 9.476562 -1.8125 7.875 -1.5 L 0.625 -0.125 L -3.265625 -20.5 L 4.296875 -21.9375 C 5.722656 -22.207031 6.835938 -22.113281 7.640625 -21.65625 C 8.453125 -21.207031 8.976562 -20.359375 9.21875 -19.109375 Z M 3.9375 -13.65625 C 4.332031 -13.738281 4.601562 -13.921875 4.75 -14.203125 C 4.90625 -14.484375 4.953125 -14.773438 4.890625 -15.078125 L 4.453125 -17.375 C 4.398438 -17.632812 4.253906 -17.878906 4.015625 -18.109375 C 3.773438 -18.335938 3.425781 -18.40625 2.96875 -18.3125 L 2.421875 -18.21875 L 3.328125 -13.546875 Z M 6.609375 -6.09375 L 5.9375 -9.578125 C 5.863281 -9.972656 5.695312 -10.253906 5.4375 -10.421875 C 5.175781 -10.585938 4.847656 -10.628906 4.453125 -10.546875 L 3.90625 -10.453125 L 5.046875 -4.515625 C 5.117188 -4.503906 5.222656 -4.515625 5.359375 -4.546875 C 5.816406 -4.628906 6.160156 -4.789062 6.390625 -5.03125 C 6.617188 -5.28125 6.691406 -5.632812 6.609375 -6.09375 Z M 6.609375 -6.09375 "/></g></g></g><g fill="#000000" fill-opacity="1"><g transform="translate(468.196128, 504.286502)"><g><path d="M 9.265625 -18.734375 L 9.65625 -16.671875 C 9.875 -15.546875 9.773438 -14.648438 9.359375 -13.984375 C 8.953125 -13.328125 8.242188 -12.863281 7.234375 -12.59375 L 7.234375 -12.546875 C 8.378906 -12.691406 9.269531 -12.523438 9.90625 -12.046875 C 10.550781 -11.578125 10.976562 -10.78125 11.1875 -9.65625 L 12.578125 -2.40625 L 7.671875 -1.46875 L 6.171875 -9.296875 C 5.960938 -10.410156 5.40625 -10.878906 4.5 -10.703125 C 4.289062 -10.660156 4.09375 -10.597656 3.90625 -10.515625 L 5.703125 -1.09375 L 0.625 -0.125 L -3.265625 -20.5 L 2.875 -21.671875 C 4.09375 -21.898438 5.101562 -22 5.90625 -21.96875 C 6.71875 -21.945312 7.425781 -21.691406 8.03125 -21.203125 C 8.632812 -20.710938 9.046875 -19.890625 9.265625 -18.734375 Z M 3.671875 -13.734375 C 4.285156 -13.859375 4.675781 -14.078125 4.84375 -14.390625 C 5.019531 -14.710938 5.070312 -15.0625 5 -15.4375 L 4.65625 -17.234375 C 4.59375 -17.566406 4.421875 -17.851562 4.140625 -18.09375 C 3.859375 -18.34375 3.421875 -18.410156 2.828125 -18.296875 L 2.421875 -18.21875 L 3.296875 -13.671875 Z M 3.671875 -13.734375 "/></g></g></g><g fill="#000000" fill-opacity="1"><g transform="translate(481.410492, 501.759132)"><g><path d="M 6.390625 -18.078125 L 2.765625 -17.390625 L 3.484375 -13.65625 L 6.890625 -14.3125 L 7.640625 -10.375 L 4.234375 -9.71875 L 5.09375 -5.234375 L 9.015625 -5.984375 L 9.796875 -1.875 L 0.625 -0.125 L -3.265625 -20.5 L 5.609375 -22.1875 Z M 6.390625 -18.078125 "/></g></g></g><g fill="#000000" fill-opacity="1"><g transform="translate(491.456873, 499.837669)"><g><path d="M 5.921875 -5.21875 L 5.984375 -5.21875 L 4.1875 -21.921875 L 9.09375 -22.859375 L 10.21875 -1.953125 L 2.765625 -0.53125 L -3.65625 -20.421875 L 1.59375 -21.421875 Z M 5.921875 -5.21875 "/></g></g></g><g fill="#000000" fill-opacity="1"><g transform="translate(504.671237, 497.310299)"><g><path d="M 6.390625 -18.078125 L 2.765625 -17.390625 L 3.484375 -13.65625 L 6.890625 -14.3125 L 7.640625 -10.375 L 4.234375 -9.71875 L 5.09375 -5.234375 L 9.015625 -5.984375 L 9.796875 -1.875 L 0.625 -0.125 L -3.265625 -20.5 L 5.609375 -22.1875 Z M 6.390625 -18.078125 "/></g></g></g><g fill="#000000" fill-opacity="1"><g transform="translate(514.717617, 495.388835)"><g/></g></g><g fill="#000000" fill-opacity="1"><g transform="translate(521.567392, 494.078752)"><g><path d="M 4.21875 -16.625 C 5.125 -16.800781 6.007812 -16.738281 6.875 -16.4375 C 7.75 -16.132812 8.488281 -15.632812 9.09375 -14.9375 C 9.707031 -14.25 10.097656 -13.445312 10.265625 -12.53125 C 10.441406 -11.625 10.375 -10.734375 10.0625 -9.859375 C 9.757812 -8.984375 9.257812 -8.242188 8.5625 -7.640625 C 7.863281 -7.035156 7.0625 -6.644531 6.15625 -6.46875 C 5.238281 -6.300781 4.347656 -6.367188 3.484375 -6.671875 C 2.617188 -6.972656 1.882812 -7.472656 1.28125 -8.171875 C 0.675781 -8.867188 0.285156 -9.671875 0.109375 -10.578125 C -0.0546875 -11.492188 0.0078125 -12.382812 0.3125 -13.25 C 0.613281 -14.125 1.109375 -14.863281 1.796875 -15.46875 C 2.492188 -16.070312 3.300781 -16.457031 4.21875 -16.625 Z M 4.21875 -16.625 "/></g></g></g><g fill="#000000" fill-opacity="1"><g transform="translate(535.837776, 491.349408)"><g/></g></g><g fill="#000000" fill-opacity="1"><g transform="translate(542.687551, 490.039325)"><g><path d="M 6.390625 -18.078125 L 2.765625 -17.390625 L 3.484375 -13.65625 L 6.890625 -14.3125 L 7.640625 -10.375 L 4.234375 -9.71875 L 5.09375 -5.234375 L 9.015625 -5.984375 L 9.796875 -1.875 L 0.625 -0.125 L -3.265625 -20.5 L 5.609375 -22.1875 Z M 6.390625 -18.078125 "/></g></g></g><g fill="#000000" fill-opacity="1"><g transform="translate(552.733931, 488.117862)"><g><path d="M 7.375 -10.1875 L 7.421875 -10.203125 L 6.390625 -22.34375 L 13.46875 -23.6875 L 17.359375 -3.3125 L 12.90625 -2.46875 L 10.015625 -17.59375 L 9.953125 -17.578125 L 10.65625 -2.03125 L 7.328125 -1.40625 L 2.25 -16.109375 L 2.1875 -16.09375 L 5.078125 -0.96875 L 0.625 -0.125 L -3.265625 -20.5 L 3.734375 -21.828125 Z M 7.375 -10.1875 "/></g></g></g><g fill="#000000" fill-opacity="1"><g transform="translate(570.714654, 484.678881)"><g/></g></g><g fill="#000000" fill-opacity="1"><g transform="translate(577.564429, 483.368798)"><g><path d="M 9.21875 -19.109375 L 9.6875 -16.640625 C 9.894531 -15.554688 9.738281 -14.738281 9.21875 -14.1875 C 8.707031 -13.632812 7.914062 -13.25 6.84375 -13.03125 L 6.78125 -12.953125 C 8.070312 -13.117188 9.101562 -12.910156 9.875 -12.328125 C 10.644531 -11.753906 11.128906 -10.929688 11.328125 -9.859375 L 11.90625 -6.8125 C 12.195312 -5.3125 12 -4.128906 11.3125 -3.265625 C 10.625 -2.398438 9.476562 -1.8125 7.875 -1.5 L 0.625 -0.125 L -3.265625 -20.5 L 4.296875 -21.9375 C 5.722656 -22.207031 6.835938 -22.113281 7.640625 -21.65625 C 8.453125 -21.207031 8.976562 -20.359375 9.21875 -19.109375 Z M 3.9375 -13.65625 C 4.332031 -13.738281 4.601562 -13.921875 4.75 -14.203125 C 4.90625 -14.484375 4.953125 -14.773438 4.890625 -15.078125 L 4.453125 -17.375 C 4.398438 -17.632812 4.253906 -17.878906 4.015625 -18.109375 C 3.773438 -18.335938 3.425781 -18.40625 2.96875 -18.3125 L 2.421875 -18.21875 L 3.328125 -13.546875 Z M 6.609375 -6.09375 L 5.9375 -9.578125 C 5.863281 -9.972656 5.695312 -10.253906 5.4375 -10.421875 C 5.175781 -10.585938 4.847656 -10.628906 4.453125 -10.546875 L 3.90625 -10.453125 L 5.046875 -4.515625 C 5.117188 -4.503906 5.222656 -4.515625 5.359375 -4.546875 C 5.816406 -4.628906 6.160156 -4.789062 6.390625 -5.03125 C 6.617188 -5.28125 6.691406 -5.632812 6.609375 -6.09375 Z M 6.609375 -6.09375 "/></g></g></g><g fill="#000000" fill-opacity="1"><g transform="translate(590.778794, 480.841428)"><g><path d="M 9.265625 -18.734375 L 9.65625 -16.671875 C 9.875 -15.546875 9.773438 -14.648438 9.359375 -13.984375 C 8.953125 -13.328125 8.242188 -12.863281 7.234375 -12.59375 L 7.234375 -12.546875 C 8.378906 -12.691406 9.269531 -12.523438 9.90625 -12.046875 C 10.550781 -11.578125 10.976562 -10.78125 11.1875 -9.65625 L 12.578125 -2.40625 L 7.671875 -1.46875 L 6.171875 -9.296875 C 5.960938 -10.410156 5.40625 -10.878906 4.5 -10.703125 C 4.289062 -10.660156 4.09375 -10.597656 3.90625 -10.515625 L 5.703125 -1.09375 L 0.625 -0.125 L -3.265625 -20.5 L 2.875 -21.671875 C 4.09375 -21.898438 5.101562 -22 5.90625 -21.96875 C 6.71875 -21.945312 7.425781 -21.691406 8.03125 -21.203125 C 8.632812 -20.710938 9.046875 -19.890625 9.265625 -18.734375 Z M 3.671875 -13.734375 C 4.285156 -13.859375 4.675781 -14.078125 4.84375 -14.390625 C 5.019531 -14.710938 5.070312 -15.0625 5 -15.4375 L 4.65625 -17.234375 C 4.59375 -17.566406 4.421875 -17.851562 4.140625 -18.09375 C 3.859375 -18.34375 3.421875 -18.410156 2.828125 -18.296875 L 2.421875 -18.21875 L 3.296875 -13.671875 Z M 3.671875 -13.734375 "/></g></g></g><g fill="#000000" fill-opacity="1"><g transform="translate(603.993158, 478.314058)"><g><path d="M 6.390625 -18.078125 L 2.765625 -17.390625 L 3.484375 -13.65625 L 6.890625 -14.3125 L 7.640625 -10.375 L 4.234375 -9.71875 L 5.09375 -5.234375 L 9.015625 -5.984375 L 9.796875 -1.875 L 0.625 -0.125 L -3.265625 -20.5 L 5.609375 -22.1875 Z M 6.390625 -18.078125 "/></g></g></g><g fill="#000000" fill-opacity="1"><g transform="translate(614.039538, 476.392594)"><g><path d="M 5.921875 -5.21875 L 5.984375 -5.21875 L 4.1875 -21.921875 L 9.09375 -22.859375 L 10.21875 -1.953125 L 2.765625 -0.53125 L -3.65625 -20.421875 L 1.59375 -21.421875 Z M 5.921875 -5.21875 "/></g></g></g><g fill="#000000" fill-opacity="1"><g transform="translate(627.253903, 473.865224)"><g><path d="M 6.390625 -18.078125 L 2.765625 -17.390625 L 3.484375 -13.65625 L 6.890625 -14.3125 L 7.640625 -10.375 L 4.234375 -9.71875 L 5.09375 -5.234375 L 9.015625 -5.984375 L 9.796875 -1.875 L 0.625 -0.125 L -3.265625 -20.5 L 5.609375 -22.1875 Z M 6.390625 -18.078125 "/></g></g></g><g fill="#000000" fill-opacity="1"><g transform="translate(637.300283, 471.94376)"><g/></g></g><g fill="#000000" fill-opacity="1"><g transform="translate(644.150058, 470.633677)"><g><path d="M 4.21875 -16.625 C 5.125 -16.800781 6.007812 -16.738281 6.875 -16.4375 C 7.75 -16.132812 8.488281 -15.632812 9.09375 -14.9375 C 9.707031 -14.25 10.097656 -13.445312 10.265625 -12.53125 C 10.441406 -11.625 10.375 -10.734375 10.0625 -9.859375 C 9.757812 -8.984375 9.257812 -8.242188 8.5625 -7.640625 C 7.863281 -7.035156 7.0625 -6.644531 6.15625 -6.46875 C 5.238281 -6.300781 4.347656 -6.367188 3.484375 -6.671875 C 2.617188 -6.972656 1.882812 -7.472656 1.28125 -8.171875 C 0.675781 -8.867188 0.285156 -9.671875 0.109375 -10.578125 C -0.0546875 -11.492188 0.0078125 -12.382812 0.3125 -13.25 C 0.613281 -14.125 1.109375 -14.863281 1.796875 -15.46875 C 2.492188 -16.070312 3.300781 -16.457031 4.21875 -16.625 Z M 4.21875 -16.625 "/></g></g></g><g fill="#000000" fill-opacity="1"><g transform="translate(658.420441, 467.904334)"><g/></g></g><g fill="#000000" fill-opacity="1"><g transform="translate(665.270216, 466.594251)"><g><path d="M 6.390625 -18.078125 L 2.765625 -17.390625 L 3.484375 -13.65625 L 6.890625 -14.3125 L 7.640625 -10.375 L 4.234375 -9.71875 L 5.09375 -5.234375 L 9.015625 -5.984375 L 9.796875 -1.875 L 0.625 -0.125 L -3.265625 -20.5 L 5.609375 -22.1875 Z M 6.390625 -18.078125 "/></g></g></g><g fill="#000000" fill-opacity="1"><g transform="translate(675.316597, 464.672787)"><g><path d="M 7.375 -10.1875 L 7.421875 -10.203125 L 6.390625 -22.34375 L 13.46875 -23.6875 L 17.359375 -3.3125 L 12.90625 -2.46875 L 10.015625 -17.59375 L 9.953125 -17.578125 L 10.65625 -2.03125 L 7.328125 -1.40625 L 2.25 -16.109375 L 2.1875 -16.09375 L 5.078125 -0.96875 L 0.625 -0.125 L -3.265625 -20.5 L 3.734375 -21.828125 Z M 7.375 -10.1875 "/></g></g></g><g fill="#000000" fill-opacity="1"><g transform="translate(693.29732, 461.233806)"><g/></g></g><g fill="#000000" fill-opacity="1"><g transform="translate(700.147095, 459.923723)"><g><path d="M 9.21875 -19.109375 L 9.6875 -16.640625 C 9.894531 -15.554688 9.738281 -14.738281 9.21875 -14.1875 C 8.707031 -13.632812 7.914062 -13.25 6.84375 -13.03125 L 6.78125 -12.953125 C 8.070312 -13.117188 9.101562 -12.910156 9.875 -12.328125 C 10.644531 -11.753906 11.128906 -10.929688 11.328125 -9.859375 L 11.90625 -6.8125 C 12.195312 -5.3125 12 -4.128906 11.3125 -3.265625 C 10.625 -2.398438 9.476562 -1.8125 7.875 -1.5 L 0.625 -0.125 L -3.265625 -20.5 L 4.296875 -21.9375 C 5.722656 -22.207031 6.835938 -22.113281 7.640625 -21.65625 C 8.453125 -21.207031 8.976562 -20.359375 9.21875 -19.109375 Z M 3.9375 -13.65625 C 4.332031 -13.738281 4.601562 -13.921875 4.75 -14.203125 C 4.90625 -14.484375 4.953125 -14.773438 4.890625 -15.078125 L 4.453125 -17.375 C 4.398438 -17.632812 4.253906 -17.878906 4.015625 -18.109375 C 3.773438 -18.335938 3.425781 -18.40625 2.96875 -18.3125 L 2.421875 -18.21875 L 3.328125 -13.546875 Z M 6.609375 -6.09375 L 5.9375 -9.578125 C 5.863281 -9.972656 5.695312 -10.253906 5.4375 -10.421875 C 5.175781 -10.585938 4.847656 -10.628906 4.453125 -10.546875 L 3.90625 -10.453125 L 5.046875 -4.515625 C 5.117188 -4.503906 5.222656 -4.515625 5.359375 -4.546875 C 5.816406 -4.628906 6.160156 -4.789062 6.390625 -5.03125 C 6.617188 -5.28125 6.691406 -5.632812 6.609375 -6.09375 Z M 6.609375 -6.09375 "/></g></g></g><g fill="#000000" fill-opacity="1"><g transform="translate(713.361459, 457.396353)"><g><path d="M 9.265625 -18.734375 L 9.65625 -16.671875 C 9.875 -15.546875 9.773438 -14.648438 9.359375 -13.984375 C 8.953125 -13.328125 8.242188 -12.863281 7.234375 -12.59375 L 7.234375 -12.546875 C 8.378906 -12.691406 9.269531 -12.523438 9.90625 -12.046875 C 10.550781 -11.578125 10.976562 -10.78125 11.1875 -9.65625 L 12.578125 -2.40625 L 7.671875 -1.46875 L 6.171875 -9.296875 C 5.960938 -10.410156 5.40625 -10.878906 4.5 -10.703125 C 4.289062 -10.660156 4.09375 -10.597656 3.90625 -10.515625 L 5.703125 -1.09375 L 0.625 -0.125 L -3.265625 -20.5 L 2.875 -21.671875 C 4.09375 -21.898438 5.101562 -22 5.90625 -21.96875 C 6.71875 -21.945312 7.425781 -21.691406 8.03125 -21.203125 C 8.632812 -20.710938 9.046875 -19.890625 9.265625 -18.734375 Z M 3.671875 -13.734375 C 4.285156 -13.859375 4.675781 -14.078125 4.84375 -14.390625 C 5.019531 -14.710938 5.070312 -15.0625 5 -15.4375 L 4.65625 -17.234375 C 4.59375 -17.566406 4.421875 -17.851562 4.140625 -18.09375 C 3.859375 -18.34375 3.421875 -18.410156 2.828125 -18.296875 L 2.421875 -18.21875 L 3.296875 -13.671875 Z M 3.671875 -13.734375 "/></g></g></g><g fill="#000000" fill-opacity="1"><g transform="translate(726.575824, 454.868983)"><g><path d="M 6.390625 -18.078125 L 2.765625 -17.390625 L 3.484375 -13.65625 L 6.890625 -14.3125 L 7.640625 -10.375 L 4.234375 -9.71875 L 5.09375 -5.234375 L 9.015625 -5.984375 L 9.796875 -1.875 L 0.625 -0.125 L -3.265625 -20.5 L 5.609375 -22.1875 Z M 6.390625 -18.078125 "/></g></g></g><g fill="#000000" fill-opacity="1"><g transform="translate(736.622204, 452.94752)"><g><path d="M 5.921875 -5.21875 L 5.984375 -5.21875 L 4.1875 -21.921875 L 9.09375 -22.859375 L 10.21875 -1.953125 L 2.765625 -0.53125 L -3.65625 -20.421875 L 1.59375 -21.421875 Z M 5.921875 -5.21875 "/></g></g></g><g fill="#000000" fill-opacity="1"><g transform="translate(749.836568, 450.420149)"><g><path d="M 6.390625 -18.078125 L 2.765625 -17.390625 L 3.484375 -13.65625 L 6.890625 -14.3125 L 7.640625 -10.375 L 4.234375 -9.71875 L 5.09375 -5.234375 L 9.015625 -5.984375 L 9.796875 -1.875 L 0.625 -0.125 L -3.265625 -20.5 L 5.609375 -22.1875 Z M 6.390625 -18.078125 "/></g></g></g><g fill="#000000" fill-opacity="1"><g transform="translate(759.882949, 448.498686)"><g/></g></g><g fill="#000000" fill-opacity="1"><g transform="translate(766.732724, 447.188603)"><g><path d="M 4.21875 -16.625 C 5.125 -16.800781 6.007812 -16.738281 6.875 -16.4375 C 7.75 -16.132812 8.488281 -15.632812 9.09375 -14.9375 C 9.707031 -14.25 10.097656 -13.445312 10.265625 -12.53125 C 10.441406 -11.625 10.375 -10.734375 10.0625 -9.859375 C 9.757812 -8.984375 9.257812 -8.242188 8.5625 -7.640625 C 7.863281 -7.035156 7.0625 -6.644531 6.15625 -6.46875 C 5.238281 -6.300781 4.347656 -6.367188 3.484375 -6.671875 C 2.617188 -6.972656 1.882812 -7.472656 1.28125 -8.171875 C 0.675781 -8.867188 0.285156 -9.671875 0.109375 -10.578125 C -0.0546875 -11.492188 0.0078125 -12.382812 0.3125 -13.25 C 0.613281 -14.125 1.109375 -14.863281 1.796875 -15.46875 C 2.492188 -16.070312 3.300781 -16.457031 4.21875 -16.625 Z M 4.21875 -16.625 "/></g></g></g><g fill="#000000" fill-opacity="1"><g transform="translate(781.003107, 444.459259)"><g/></g></g><g fill="#000000" fill-opacity="1"><g transform="translate(787.852882, 443.149176)"><g><path d="M 6.390625 -18.078125 L 2.765625 -17.390625 L 3.484375 -13.65625 L 6.890625 -14.3125 L 7.640625 -10.375 L 4.234375 -9.71875 L 5.09375 -5.234375 L 9.015625 -5.984375 L 9.796875 -1.875 L 0.625 -0.125 L -3.265625 -20.5 L 5.609375 -22.1875 Z M 6.390625 -18.078125 "/></g></g></g><g fill="#000000" fill-opacity="1"><g transform="translate(797.899263, 441.227712)"><g><path d="M 7.375 -10.1875 L 7.421875 -10.203125 L 6.390625 -22.34375 L 13.46875 -23.6875 L 17.359375 -3.3125 L 12.90625 -2.46875 L 10.015625 -17.59375 L 9.953125 -17.578125 L 10.65625 -2.03125 L 7.328125 -1.40625 L 2.25 -16.109375 L 2.1875 -16.09375 L 5.078125 -0.96875 L 0.625 -0.125 L -3.265625 -20.5 L 3.734375 -21.828125 Z M 7.375 -10.1875 "/></g></g></g><g fill="#ffc710" fill-opacity="1"><g transform="translate(477.925851, 329.326088)"><g><path d="M 66.0625 0 L 39.53125 0 L 38.21875 -18.171875 L 28.5625 -18.171875 L 27.265625 0 L 0.71875 0 L 13.703125 -103 L 51.9375 -103 Z M 28.5625 -36.34375 L 37.796875 -36.34375 L 33.171875 -84.8125 L 32.890625 -84.8125 Z M 28.5625 -36.34375 "/></g></g></g><g fill="#ffc710" fill-opacity="1"><g transform="translate(544.711817, 329.326088)"><g><path d="M 29.28125 0 L 2.734375 0 L 2.734375 -103 L 29.28125 -103 Z M 14.71875 -109.484375 L 4.328125 -109.484375 L 16.734375 -125.0625 L 41.40625 -125.0625 Z M 14.71875 -109.484375 "/></g></g></g><g fill="#ffc710" fill-opacity="1"><g transform="translate(576.734467, 329.326088)"><g><path d="M 27.265625 -30.875 L 7.359375 -30.875 L 7.359375 -51.640625 L 27.265625 -51.640625 Z M 27.265625 0 L 7.359375 0 L 7.359375 -20.765625 L 27.265625 -20.765625 Z M 27.265625 0 "/></g></g></g><g clip-path="url(#d3fcfa467b)"><g clip-path="url(#dabcadeb93)"><path fill="#ffc710" d="M -177.378906 245.964844 L 1022.945312 380.738281 L 1017.890625 425.734375 L -182.429688 290.960938 Z M -177.378906 245.964844 " fill-opacity="1" fill-rule="nonzero"/></g></g><g clip-path="url(#7841164a79)"><g clip-path="url(#e3817d4889)"><path fill="#ffc710" d="M 344.320312 68.546875 L 465.679688 68.546875 L 465.679688 189.90625 L 344.320312 189.90625 Z M 344.320312 68.546875 " fill-opacity="1" fill-rule="nonzero"/></g></g><g clip-path="url(#ba26d96d78)"><path fill="#ffffff" d="M 429.839844 141.8125 C 428.296875 140.921875 427.359375 139.265625 427.359375 137.488281 L 427.359375 125.996094 C 427.359375 115.78125 420.507812 107.167969 411.148438 104.496094 C 411.1875 104.214844 411.210938 103.929688 411.210938 103.636719 C 411.210938 100.207031 408.429688 97.429688 405 97.429688 C 401.570312 97.429688 398.789062 100.207031 398.789062 103.636719 C 398.789062 103.929688 398.808594 104.214844 398.847656 104.496094 C 389.492188 107.167969 382.640625 115.78125 382.640625 125.996094 L 382.640625 137.488281 C 382.640625 139.265625 381.703125 140.921875 380.160156 141.8125 C 378.699219 142.65625 377.707031 144.222656 377.671875 146.023438 C 377.621094 148.820312 379.941406 151.089844 382.738281 151.089844 L 395.0625 151.089844 C 395.0625 156.578125 399.511719 161.027344 405 161.027344 C 410.488281 161.027344 414.9375 156.578125 414.9375 151.089844 L 427.257812 151.089844 C 430.058594 151.089844 432.378906 148.820312 432.324219 146.023438 C 432.289062 144.222656 431.300781 142.65625 429.839844 141.8125 Z M 429.839844 141.8125 " fill-opacity="1" fill-rule="nonzero"/></g><g fill="#000000" fill-opacity="1"><g transform="translate(-14.035909, 296.175008)"><g><path d="M 14.390625 -15.140625 L 14.15625 -13.0625 C 14.03125 -11.925781 13.675781 -11.101562 13.09375 -10.59375 C 12.507812 -10.082031 11.691406 -9.847656 10.640625 -9.890625 L 10.625 -9.828125 C 11.757812 -9.628906 12.5625 -9.207031 13.03125 -8.5625 C 13.507812 -7.925781 13.6875 -7.039062 13.5625 -5.90625 L 12.734375 1.421875 L 7.765625 0.875 L 8.65625 -7.046875 C 8.78125 -8.171875 8.378906 -8.785156 7.453125 -8.890625 C 7.253906 -8.910156 7.054688 -8.90625 6.859375 -8.875 L 5.78125 0.65625 L 0.640625 0.078125 L 2.953125 -20.546875 L 9.15625 -19.859375 C 10.382812 -19.722656 11.382812 -19.519531 12.15625 -19.25 C 12.925781 -18.976562 13.523438 -18.519531 13.953125 -17.875 C 14.378906 -17.226562 14.523438 -16.316406 14.390625 -15.140625 Z M 7.578125 -12.046875 C 8.191406 -11.972656 8.628906 -12.0625 8.890625 -12.3125 C 9.160156 -12.570312 9.316406 -12.882812 9.359375 -13.25 L 9.5625 -15.078125 C 9.59375 -15.410156 9.507812 -15.734375 9.3125 -16.046875 C 9.125 -16.367188 8.734375 -16.566406 8.140625 -16.640625 L 7.734375 -16.671875 L 7.203125 -12.078125 Z M 7.578125 -12.046875 "/></g></g></g><g fill="#000000" fill-opacity="1"><g transform="translate(-0.666018, 297.676195)"><g><path d="M 11.453125 -15.375 L 7.796875 -15.78125 L 7.375 -12.015625 L 10.8125 -11.625 L 10.359375 -7.625 L 6.921875 -8.015625 L 6.421875 -3.484375 L 10.375 -3.046875 L 9.90625 1.109375 L 0.640625 0.078125 L 2.953125 -20.546875 L 11.921875 -19.546875 Z M 11.453125 -15.375 "/></g></g></g><g fill="#000000" fill-opacity="1"><g transform="translate(9.498571, 298.817488)"><g><path d="M 7.203125 -3.21875 L 7.265625 -3.21875 L 10.484375 -19.703125 L 15.453125 -19.15625 L 10.34375 1.15625 L 2.796875 0.3125 L 2.546875 -20.59375 L 7.859375 -20 Z M 7.203125 -3.21875 "/></g></g></g><g fill="#000000" fill-opacity="1"><g transform="translate(22.868461, 300.318675)"><g><path d="M 11.453125 -15.375 L 7.796875 -15.78125 L 7.375 -12.015625 L 10.8125 -11.625 L 10.359375 -7.625 L 6.921875 -8.015625 L 6.421875 -3.484375 L 10.375 -3.046875 L 9.90625 1.109375 L 0.640625 0.078125 L 2.953125 -20.546875 L 11.921875 -19.546875 Z M 11.453125 -15.375 "/></g></g></g><g fill="#000000" fill-opacity="1"><g transform="translate(33.03305, 301.459967)"><g/></g></g><g fill="#000000" fill-opacity="1"><g transform="translate(39.963452, 302.23812)"><g><path d="M 8.953125 -14.640625 C 9.878906 -14.535156 10.710938 -14.207031 11.453125 -13.65625 C 12.191406 -13.101562 12.742188 -12.40625 13.109375 -11.5625 C 13.484375 -10.71875 13.617188 -9.835938 13.515625 -8.921875 C 13.410156 -7.992188 13.082031 -7.160156 12.53125 -6.421875 C 11.988281 -5.679688 11.296875 -5.125 10.453125 -4.75 C 9.609375 -4.382812 8.722656 -4.253906 7.796875 -4.359375 C 6.878906 -4.460938 6.050781 -4.785156 5.3125 -5.328125 C 4.570312 -5.878906 4.015625 -6.578125 3.640625 -7.421875 C 3.265625 -8.265625 3.128906 -9.148438 3.234375 -10.078125 C 3.335938 -10.992188 3.664062 -11.820312 4.21875 -12.5625 C 4.769531 -13.300781 5.46875 -13.859375 6.3125 -14.234375 C 7.15625 -14.609375 8.035156 -14.742188 8.953125 -14.640625 Z M 8.953125 -14.640625 "/></g></g></g><g fill="#000000" fill-opacity="1"><g transform="translate(54.401771, 303.859272)"><g/></g></g><g fill="#000000" fill-opacity="1"><g transform="translate(61.332173, 304.637426)"><g><path d="M 11.453125 -15.375 L 7.796875 -15.78125 L 7.375 -12.015625 L 10.8125 -11.625 L 10.359375 -7.625 L 6.921875 -8.015625 L 6.421875 -3.484375 L 10.375 -3.046875 L 9.90625 1.109375 L 0.640625 0.078125 L 2.953125 -20.546875 L 11.921875 -19.546875 Z M 11.453125 -15.375 "/></g></g></g><g fill="#000000" fill-opacity="1"><g transform="translate(71.496762, 305.778718)"><g><path d="M 10.0625 -7.5625 L 10.125 -7.546875 L 12.71875 -19.453125 L 19.875 -18.65625 L 17.5625 1.96875 L 13.0625 1.46875 L 14.78125 -13.84375 L 14.71875 -13.859375 L 10.78125 1.203125 L 7.421875 0.828125 L 6.921875 -14.734375 L 6.859375 -14.734375 L 5.140625 0.578125 L 0.640625 0.078125 L 2.953125 -20.546875 L 10.03125 -19.765625 Z M 10.0625 -7.5625 "/></g></g></g><g fill="#000000" fill-opacity="1"><g transform="translate(89.689047, 307.821369)"><g/></g></g><g fill="#000000" fill-opacity="1"><g transform="translate(96.619449, 308.599523)"><g><path d="M 14.46875 -15.515625 L 14.1875 -13.03125 C 14.0625 -11.9375 13.671875 -11.195312 13.015625 -10.8125 C 12.359375 -10.4375 11.476562 -10.304688 10.375 -10.421875 L 10.3125 -10.359375 C 11.601562 -10.128906 12.53125 -9.625 13.09375 -8.84375 C 13.65625 -8.0625 13.875 -7.132812 13.75 -6.0625 L 13.40625 -2.96875 C 13.226562 -1.445312 12.679688 -0.378906 11.765625 0.234375 C 10.859375 0.859375 9.59375 1.078125 7.96875 0.890625 L 0.640625 0.078125 L 2.953125 -20.546875 L 10.609375 -19.6875 C 12.046875 -19.53125 13.082031 -19.113281 13.71875 -18.4375 C 14.351562 -17.757812 14.601562 -16.785156 14.46875 -15.515625 Z M 7.78125 -11.875 C 8.1875 -11.832031 8.503906 -11.921875 8.734375 -12.140625 C 8.972656 -12.367188 9.109375 -12.632812 9.140625 -12.9375 L 9.40625 -15.265625 C 9.4375 -15.523438 9.367188 -15.800781 9.203125 -16.09375 C 9.046875 -16.394531 8.734375 -16.570312 8.265625 -16.625 L 7.734375 -16.671875 L 7.1875 -11.9375 Z M 8.125 -3.84375 L 8.515625 -7.375 C 8.554688 -7.769531 8.476562 -8.085938 8.28125 -8.328125 C 8.082031 -8.566406 7.78125 -8.710938 7.375 -8.765625 L 6.84375 -8.8125 L 6.171875 -2.8125 C 6.242188 -2.789062 6.347656 -2.769531 6.484375 -2.75 C 6.941406 -2.695312 7.316406 -2.75 7.609375 -2.90625 C 7.898438 -3.070312 8.070312 -3.382812 8.125 -3.84375 Z M 8.125 -3.84375 "/></g></g></g><g fill="#000000" fill-opacity="1"><g transform="translate(109.98934, 310.10071)"><g><path d="M 14.390625 -15.140625 L 14.15625 -13.0625 C 14.03125 -11.925781 13.675781 -11.101562 13.09375 -10.59375 C 12.507812 -10.082031 11.691406 -9.847656 10.640625 -9.890625 L 10.625 -9.828125 C 11.757812 -9.628906 12.5625 -9.207031 13.03125 -8.5625 C 13.507812 -7.925781 13.6875 -7.039062 13.5625 -5.90625 L 12.734375 1.421875 L 7.765625 0.875 L 8.65625 -7.046875 C 8.78125 -8.171875 8.378906 -8.785156 7.453125 -8.890625 C 7.253906 -8.910156 7.054688 -8.90625 6.859375 -8.875 L 5.78125 0.65625 L 0.640625 0.078125 L 2.953125 -20.546875 L 9.15625 -19.859375 C 10.382812 -19.722656 11.382812 -19.519531 12.15625 -19.25 C 12.925781 -18.976562 13.523438 -18.519531 13.953125 -17.875 C 14.378906 -17.226562 14.523438 -16.316406 14.390625 -15.140625 Z M 7.578125 -12.046875 C 8.191406 -11.972656 8.628906 -12.0625 8.890625 -12.3125 C 9.160156 -12.570312 9.316406 -12.882812 9.359375 -13.25 L 9.5625 -15.078125 C 9.59375 -15.410156 9.507812 -15.734375 9.3125 -16.046875 C 9.125 -16.367188 8.734375 -16.566406 8.140625 -16.640625 L 7.734375 -16.671875 L 7.203125 -12.078125 Z M 7.578125 -12.046875 "/></g></g></g><g fill="#000000" fill-opacity="1"><g transform="translate(123.35923, 311.601897)"><g><path d="M 11.453125 -15.375 L 7.796875 -15.78125 L 7.375 -12.015625 L 10.8125 -11.625 L 10.359375 -7.625 L 6.921875 -8.015625 L 6.421875 -3.484375 L 10.375 -3.046875 L 9.90625 1.109375 L 0.640625 0.078125 L 2.953125 -20.546875 L 11.921875 -19.546875 Z M 11.453125 -15.375 "/></g></g></g><g fill="#000000" fill-opacity="1"><g transform="translate(133.523801, 312.743187)"><g><path d="M 7.203125 -3.21875 L 7.265625 -3.21875 L 10.484375 -19.703125 L 15.453125 -19.15625 L 10.34375 1.15625 L 2.796875 0.3125 L 2.546875 -20.59375 L 7.859375 -20 Z M 7.203125 -3.21875 "/></g></g></g><g fill="#000000" fill-opacity="1"><g transform="translate(146.893673, 314.244372)"><g><path d="M 11.453125 -15.375 L 7.796875 -15.78125 L 7.375 -12.015625 L 10.8125 -11.625 L 10.359375 -7.625 L 6.921875 -8.015625 L 6.421875 -3.484375 L 10.375 -3.046875 L 9.90625 1.109375 L 0.640625 0.078125 L 2.953125 -20.546875 L 11.921875 -19.546875 Z M 11.453125 -15.375 "/></g></g></g><g fill="#000000" fill-opacity="1"><g transform="translate(157.058244, 315.385662)"><g/></g></g><g fill="#000000" fill-opacity="1"><g transform="translate(163.988628, 316.163813)"><g><path d="M 8.953125 -14.640625 C 9.878906 -14.535156 10.710938 -14.207031 11.453125 -13.65625 C 12.191406 -13.101562 12.742188 -12.40625 13.109375 -11.5625 C 13.484375 -10.71875 13.617188 -9.835938 13.515625 -8.921875 C 13.410156 -7.992188 13.082031 -7.160156 12.53125 -6.421875 C 11.988281 -5.679688 11.296875 -5.125 10.453125 -4.75 C 9.609375 -4.382812 8.722656 -4.253906 7.796875 -4.359375 C 6.878906 -4.460938 6.050781 -4.785156 5.3125 -5.328125 C 4.570312 -5.878906 4.015625 -6.578125 3.640625 -7.421875 C 3.265625 -8.265625 3.128906 -9.148438 3.234375 -10.078125 C 3.335938 -10.992188 3.664062 -11.820312 4.21875 -12.5625 C 4.769531 -13.300781 5.46875 -13.859375 6.3125 -14.234375 C 7.15625 -14.609375 8.035156 -14.742188 8.953125 -14.640625 Z M 8.953125 -14.640625 "/></g></g></g><g fill="#000000" fill-opacity="1"><g transform="translate(178.426946, 317.784965)"><g/></g></g><g fill="#000000" fill-opacity="1"><g transform="translate(185.35733, 318.563117)"><g><path d="M 11.453125 -15.375 L 7.796875 -15.78125 L 7.375 -12.015625 L 10.8125 -11.625 L 10.359375 -7.625 L 6.921875 -8.015625 L 6.421875 -3.484375 L 10.375 -3.046875 L 9.90625 1.109375 L 0.640625 0.078125 L 2.953125 -20.546875 L 11.921875 -19.546875 Z M 11.453125 -15.375 "/></g></g></g><g fill="#000000" fill-opacity="1"><g transform="translate(195.5219, 319.704407)"><g><path d="M 10.0625 -7.5625 L 10.125 -7.546875 L 12.71875 -19.453125 L 19.875 -18.65625 L 17.5625 1.96875 L 13.0625 1.46875 L 14.78125 -13.84375 L 14.71875 -13.859375 L 10.78125 1.203125 L 7.421875 0.828125 L 6.921875 -14.734375 L 6.859375 -14.734375 L 5.140625 0.578125 L 0.640625 0.078125 L 2.953125 -20.546875 L 10.03125 -19.765625 Z M 10.0625 -7.5625 "/></g></g></g><g fill="#000000" fill-opacity="1"><g transform="translate(213.714186, 321.747058)"><g/></g></g><g fill="#000000" fill-opacity="1"><g transform="translate(220.64457, 322.525209)"><g><path d="M 14.46875 -15.515625 L 14.1875 -13.03125 C 14.0625 -11.9375 13.671875 -11.195312 13.015625 -10.8125 C 12.359375 -10.4375 11.476562 -10.304688 10.375 -10.421875 L 10.3125 -10.359375 C 11.601562 -10.128906 12.53125 -9.625 13.09375 -8.84375 C 13.65625 -8.0625 13.875 -7.132812 13.75 -6.0625 L 13.40625 -2.96875 C 13.226562 -1.445312 12.679688 -0.378906 11.765625 0.234375 C 10.859375 0.859375 9.59375 1.078125 7.96875 0.890625 L 0.640625 0.078125 L 2.953125 -20.546875 L 10.609375 -19.6875 C 12.046875 -19.53125 13.082031 -19.113281 13.71875 -18.4375 C 14.351562 -17.757812 14.601562 -16.785156 14.46875 -15.515625 Z M 7.78125 -11.875 C 8.1875 -11.832031 8.503906 -11.921875 8.734375 -12.140625 C 8.972656 -12.367188 9.109375 -12.632812 9.140625 -12.9375 L 9.40625 -15.265625 C 9.4375 -15.523438 9.367188 -15.800781 9.203125 -16.09375 C 9.046875 -16.394531 8.734375 -16.570312 8.265625 -16.625 L 7.734375 -16.671875 L 7.1875 -11.9375 Z M 8.125 -3.84375 L 8.515625 -7.375 C 8.554688 -7.769531 8.476562 -8.085938 8.28125 -8.328125 C 8.082031 -8.566406 7.78125 -8.710938 7.375 -8.765625 L 6.84375 -8.8125 L 6.171875 -2.8125 C 6.242188 -2.789062 6.347656 -2.769531 6.484375 -2.75 C 6.941406 -2.695312 7.316406 -2.75 7.609375 -2.90625 C 7.898438 -3.070312 8.070312 -3.382812 8.125 -3.84375 Z M 8.125 -3.84375 "/></g></g></g><g fill="#000000" fill-opacity="1"><g transform="translate(234.014442, 324.026395)"><g><path d="M 14.390625 -15.140625 L 14.15625 -13.0625 C 14.03125 -11.925781 13.675781 -11.101562 13.09375 -10.59375 C 12.507812 -10.082031 11.691406 -9.847656 10.640625 -9.890625 L 10.625 -9.828125 C 11.757812 -9.628906 12.5625 -9.207031 13.03125 -8.5625 C 13.507812 -7.925781 13.6875 -7.039062 13.5625 -5.90625 L 12.734375 1.421875 L 7.765625 0.875 L 8.65625 -7.046875 C 8.78125 -8.171875 8.378906 -8.785156 7.453125 -8.890625 C 7.253906 -8.910156 7.054688 -8.90625 6.859375 -8.875 L 5.78125 0.65625 L 0.640625 0.078125 L 2.953125 -20.546875 L 9.15625 -19.859375 C 10.382812 -19.722656 11.382812 -19.519531 12.15625 -19.25 C 12.925781 -18.976562 13.523438 -18.519531 13.953125 -17.875 C 14.378906 -17.226562 14.523438 -16.316406 14.390625 -15.140625 Z M 7.578125 -12.046875 C 8.191406 -11.972656 8.628906 -12.0625 8.890625 -12.3125 C 9.160156 -12.570312 9.316406 -12.882812 9.359375 -13.25 L 9.5625 -15.078125 C 9.59375 -15.410156 9.507812 -15.734375 9.3125 -16.046875 C 9.125 -16.367188 8.734375 -16.566406 8.140625 -16.640625 L 7.734375 -16.671875 L 7.203125 -12.078125 Z M 7.578125 -12.046875 "/></g></g></g><g fill="#000000" fill-opacity="1"><g transform="translate(247.384314, 325.52758)"><g><path d="M 11.453125 -15.375 L 7.796875 -15.78125 L 7.375 -12.015625 L 10.8125 -11.625 L 10.359375 -7.625 L 6.921875 -8.015625 L 6.421875 -3.484375 L 10.375 -3.046875 L 9.90625 1.109375 L 0.640625 0.078125 L 2.953125 -20.546875 L 11.921875 -19.546875 Z M 11.453125 -15.375 "/></g></g></g><g fill="#000000" fill-opacity="1"><g transform="translate(257.548885, 326.66887)"><g><path d="M 7.203125 -3.21875 L 7.265625 -3.21875 L 10.484375 -19.703125 L 15.453125 -19.15625 L 10.34375 1.15625 L 2.796875 0.3125 L 2.546875 -20.59375 L 7.859375 -20 Z M 7.203125 -3.21875 "/></g></g></g><g fill="#000000" fill-opacity="1"><g transform="translate(270.918757, 328.170055)"><g><path d="M 11.453125 -15.375 L 7.796875 -15.78125 L 7.375 -12.015625 L 10.8125 -11.625 L 10.359375 -7.625 L 6.921875 -8.015625 L 6.421875 -3.484375 L 10.375 -3.046875 L 9.90625 1.109375 L 0.640625 0.078125 L 2.953125 -20.546875 L 11.921875 -19.546875 Z M 11.453125 -15.375 "/></g></g></g><g fill="#000000" fill-opacity="1"><g transform="translate(281.083327, 329.311345)"><g/></g></g><g fill="#000000" fill-opacity="1"><g transform="translate(288.013711, 330.089496)"><g><path d="M 8.953125 -14.640625 C 9.878906 -14.535156 10.710938 -14.207031 11.453125 -13.65625 C 12.191406 -13.101562 12.742188 -12.40625 13.109375 -11.5625 C 13.484375 -10.71875 13.617188 -9.835938 13.515625 -8.921875 C 13.410156 -7.992188 13.082031 -7.160156 12.53125 -6.421875 C 11.988281 -5.679688 11.296875 -5.125 10.453125 -4.75 C 9.609375 -4.382812 8.722656 -4.253906 7.796875 -4.359375 C 6.878906 -4.460938 6.050781 -4.785156 5.3125 -5.328125 C 4.570312 -5.878906 4.015625 -6.578125 3.640625 -7.421875 C 3.265625 -8.265625 3.128906 -9.148438 3.234375 -10.078125 C 3.335938 -10.992188 3.664062 -11.820312 4.21875 -12.5625 C 4.769531 -13.300781 5.46875 -13.859375 6.3125 -14.234375 C 7.15625 -14.609375 8.035156 -14.742188 8.953125 -14.640625 Z M 8.953125 -14.640625 "/></g></g></g><g fill="#000000" fill-opacity="1"><g transform="translate(302.452029, 331.710648)"><g/></g></g><g fill="#000000" fill-opacity="1"><g transform="translate(309.382413, 332.488799)"><g><path d="M 11.453125 -15.375 L 7.796875 -15.78125 L 7.375 -12.015625 L 10.8125 -11.625 L 10.359375 -7.625 L 6.921875 -8.015625 L 6.421875 -3.484375 L 10.375 -3.046875 L 9.90625 1.109375 L 0.640625 0.078125 L 2.953125 -20.546875 L 11.921875 -19.546875 Z M 11.453125 -15.375 "/></g></g></g><g fill="#000000" fill-opacity="1"><g transform="translate(319.546984, 333.630089)"><g><path d="M 10.0625 -7.5625 L 10.125 -7.546875 L 12.71875 -19.453125 L 19.875 -18.65625 L 17.5625 1.96875 L 13.0625 1.46875 L 14.78125 -13.84375 L 14.71875 -13.859375 L 10.78125 1.203125 L 7.421875 0.828125 L 6.921875 -14.734375 L 6.859375 -14.734375 L 5.140625 0.578125 L 0.640625 0.078125 L 2.953125 -20.546875 L 10.03125 -19.765625 Z M 10.0625 -7.5625 "/></g></g></g><g fill="#000000" fill-opacity="1"><g transform="translate(337.739269, 335.672741)"><g/></g></g><g fill="#000000" fill-opacity="1"><g transform="translate(344.669653, 336.450892)"><g><path d="M 14.46875 -15.515625 L 14.1875 -13.03125 C 14.0625 -11.9375 13.671875 -11.195312 13.015625 -10.8125 C 12.359375 -10.4375 11.476562 -10.304688 10.375 -10.421875 L 10.3125 -10.359375 C 11.601562 -10.128906 12.53125 -9.625 13.09375 -8.84375 C 13.65625 -8.0625 13.875 -7.132812 13.75 -6.0625 L 13.40625 -2.96875 C 13.226562 -1.445312 12.679688 -0.378906 11.765625 0.234375 C 10.859375 0.859375 9.59375 1.078125 7.96875 0.890625 L 0.640625 0.078125 L 2.953125 -20.546875 L 10.609375 -19.6875 C 12.046875 -19.53125 13.082031 -19.113281 13.71875 -18.4375 C 14.351562 -17.757812 14.601562 -16.785156 14.46875 -15.515625 Z M 7.78125 -11.875 C 8.1875 -11.832031 8.503906 -11.921875 8.734375 -12.140625 C 8.972656 -12.367188 9.109375 -12.632812 9.140625 -12.9375 L 9.40625 -15.265625 C 9.4375 -15.523438 9.367188 -15.800781 9.203125 -16.09375 C 9.046875 -16.394531 8.734375 -16.570312 8.265625 -16.625 L 7.734375 -16.671875 L 7.1875 -11.9375 Z M 8.125 -3.84375 L 8.515625 -7.375 C 8.554688 -7.769531 8.476562 -8.085938 8.28125 -8.328125 C 8.082031 -8.566406 7.78125 -8.710938 7.375 -8.765625 L 6.84375 -8.8125 L 6.171875 -2.8125 C 6.242188 -2.789062 6.347656 -2.769531 6.484375 -2.75 C 6.941406 -2.695312 7.316406 -2.75 7.609375 -2.90625 C 7.898438 -3.070312 8.070312 -3.382812 8.125 -3.84375 Z M 8.125 -3.84375 "/></g></g></g><g fill="#000000" fill-opacity="1"><g transform="translate(358.039525, 337.952077)"><g><path d="M 14.390625 -15.140625 L 14.15625 -13.0625 C 14.03125 -11.925781 13.675781 -11.101562 13.09375 -10.59375 C 12.507812 -10.082031 11.691406 -9.847656 10.640625 -9.890625 L 10.625 -9.828125 C 11.757812 -9.628906 12.5625 -9.207031 13.03125 -8.5625 C 13.507812 -7.925781 13.6875 -7.039062 13.5625 -5.90625 L 12.734375 1.421875 L 7.765625 0.875 L 8.65625 -7.046875 C 8.78125 -8.171875 8.378906 -8.785156 7.453125 -8.890625 C 7.253906 -8.910156 7.054688 -8.90625 6.859375 -8.875 L 5.78125 0.65625 L 0.640625 0.078125 L 2.953125 -20.546875 L 9.15625 -19.859375 C 10.382812 -19.722656 11.382812 -19.519531 12.15625 -19.25 C 12.925781 -18.976562 13.523438 -18.519531 13.953125 -17.875 C 14.378906 -17.226562 14.523438 -16.316406 14.390625 -15.140625 Z M 7.578125 -12.046875 C 8.191406 -11.972656 8.628906 -12.0625 8.890625 -12.3125 C 9.160156 -12.570312 9.316406 -12.882812 9.359375 -13.25 L 9.5625 -15.078125 C 9.59375 -15.410156 9.507812 -15.734375 9.3125 -16.046875 C 9.125 -16.367188 8.734375 -16.566406 8.140625 -16.640625 L 7.734375 -16.671875 L 7.203125 -12.078125 Z M 7.578125 -12.046875 "/></g></g></g><g fill="#000000" fill-opacity="1"><g transform="translate(371.409398, 339.453262)"><g><path d="M 11.453125 -15.375 L 7.796875 -15.78125 L 7.375 -12.015625 L 10.8125 -11.625 L 10.359375 -7.625 L 6.921875 -8.015625 L 6.421875 -3.484375 L 10.375 -3.046875 L 9.90625 1.109375 L 0.640625 0.078125 L 2.953125 -20.546875 L 11.921875 -19.546875 Z M 11.453125 -15.375 "/></g></g></g><g fill="#000000" fill-opacity="1"><g transform="translate(381.573968, 340.594552)"><g><path d="M 7.203125 -3.21875 L 7.265625 -3.21875 L 10.484375 -19.703125 L 15.453125 -19.15625 L 10.34375 1.15625 L 2.796875 0.3125 L 2.546875 -20.59375 L 7.859375 -20 Z M 7.203125 -3.21875 "/></g></g></g><g fill="#000000" fill-opacity="1"><g transform="translate(394.94384, 342.095737)"><g><path d="M 11.453125 -15.375 L 7.796875 -15.78125 L 7.375 -12.015625 L 10.8125 -11.625 L 10.359375 -7.625 L 6.921875 -8.015625 L 6.421875 -3.484375 L 10.375 -3.046875 L 9.90625 1.109375 L 0.640625 0.078125 L 2.953125 -20.546875 L 11.921875 -19.546875 Z M 11.453125 -15.375 "/></g></g></g><g fill="#000000" fill-opacity="1"><g transform="translate(405.108411, 343.237027)"><g/></g></g><g fill="#000000" fill-opacity="1"><g transform="translate(412.038795, 344.015179)"><g><path d="M 8.953125 -14.640625 C 9.878906 -14.535156 10.710938 -14.207031 11.453125 -13.65625 C 12.191406 -13.101562 12.742188 -12.40625 13.109375 -11.5625 C 13.484375 -10.71875 13.617188 -9.835938 13.515625 -8.921875 C 13.410156 -7.992188 13.082031 -7.160156 12.53125 -6.421875 C 11.988281 -5.679688 11.296875 -5.125 10.453125 -4.75 C 9.609375 -4.382812 8.722656 -4.253906 7.796875 -4.359375 C 6.878906 -4.460938 6.050781 -4.785156 5.3125 -5.328125 C 4.570312 -5.878906 4.015625 -6.578125 3.640625 -7.421875 C 3.265625 -8.265625 3.128906 -9.148438 3.234375 -10.078125 C 3.335938 -10.992188 3.664062 -11.820312 4.21875 -12.5625 C 4.769531 -13.300781 5.46875 -13.859375 6.3125 -14.234375 C 7.15625 -14.609375 8.035156 -14.742188 8.953125 -14.640625 Z M 8.953125 -14.640625 "/></g></g></g><g fill="#000000" fill-opacity="1"><g transform="translate(426.477113, 345.63633)"><g/></g></g><g fill="#000000" fill-opacity="1"><g transform="translate(433.407497, 346.414482)"><g><path d="M 11.453125 -15.375 L 7.796875 -15.78125 L 7.375 -12.015625 L 10.8125 -11.625 L 10.359375 -7.625 L 6.921875 -8.015625 L 6.421875 -3.484375 L 10.375 -3.046875 L 9.90625 1.109375 L 0.640625 0.078125 L 2.953125 -20.546875 L 11.921875 -19.546875 Z M 11.453125 -15.375 "/></g></g></g><g fill="#000000" fill-opacity="1"><g transform="translate(443.572104, 347.555776)"><g><path d="M 10.0625 -7.5625 L 10.125 -7.546875 L 12.71875 -19.453125 L 19.875 -18.65625 L 17.5625 1.96875 L 13.0625 1.46875 L 14.78125 -13.84375 L 14.71875 -13.859375 L 10.78125 1.203125 L 7.421875 0.828125 L 6.921875 -14.734375 L 6.859375 -14.734375 L 5.140625 0.578125 L 0.640625 0.078125 L 2.953125 -20.546875 L 10.03125 -19.765625 Z M 10.0625 -7.5625 "/></g></g></g><g fill="#000000" fill-opacity="1"><g transform="translate(461.764426, 349.598432)"><g/></g></g><g fill="#000000" fill-opacity="1"><g transform="translate(468.69481, 350.376583)"><g><path d="M 14.46875 -15.515625 L 14.1875 -13.03125 C 14.0625 -11.9375 13.671875 -11.195312 13.015625 -10.8125 C 12.359375 -10.4375 11.476562 -10.304688 10.375 -10.421875 L 10.3125 -10.359375 C 11.601562 -10.128906 12.53125 -9.625 13.09375 -8.84375 C 13.65625 -8.0625 13.875 -7.132812 13.75 -6.0625 L 13.40625 -2.96875 C 13.226562 -1.445312 12.679688 -0.378906 11.765625 0.234375 C 10.859375 0.859375 9.59375 1.078125 7.96875 0.890625 L 0.640625 0.078125 L 2.953125 -20.546875 L 10.609375 -19.6875 C 12.046875 -19.53125 13.082031 -19.113281 13.71875 -18.4375 C 14.351562 -17.757812 14.601562 -16.785156 14.46875 -15.515625 Z M 7.78125 -11.875 C 8.1875 -11.832031 8.503906 -11.921875 8.734375 -12.140625 C 8.972656 -12.367188 9.109375 -12.632812 9.140625 -12.9375 L 9.40625 -15.265625 C 9.4375 -15.523438 9.367188 -15.800781 9.203125 -16.09375 C 9.046875 -16.394531 8.734375 -16.570312 8.265625 -16.625 L 7.734375 -16.671875 L 7.1875 -11.9375 Z M 8.125 -3.84375 L 8.515625 -7.375 C 8.554688 -7.769531 8.476562 -8.085938 8.28125 -8.328125 C 8.082031 -8.566406 7.78125 -8.710938 7.375 -8.765625 L 6.84375 -8.8125 L 6.171875 -2.8125 C 6.242188 -2.789062 6.347656 -2.769531 6.484375 -2.75 C 6.941406 -2.695312 7.316406 -2.75 7.609375 -2.90625 C 7.898438 -3.070312 8.070312 -3.382812 8.125 -3.84375 Z M 8.125 -3.84375 "/></g></g></g><g fill="#000000" fill-opacity="1"><g transform="translate(482.064682, 351.877768)"><g><path d="M 14.390625 -15.140625 L 14.15625 -13.0625 C 14.03125 -11.925781 13.675781 -11.101562 13.09375 -10.59375 C 12.507812 -10.082031 11.691406 -9.847656 10.640625 -9.890625 L 10.625 -9.828125 C 11.757812 -9.628906 12.5625 -9.207031 13.03125 -8.5625 C 13.507812 -7.925781 13.6875 -7.039062 13.5625 -5.90625 L 12.734375 1.421875 L 7.765625 0.875 L 8.65625 -7.046875 C 8.78125 -8.171875 8.378906 -8.785156 7.453125 -8.890625 C 7.253906 -8.910156 7.054688 -8.90625 6.859375 -8.875 L 5.78125 0.65625 L 0.640625 0.078125 L 2.953125 -20.546875 L 9.15625 -19.859375 C 10.382812 -19.722656 11.382812 -19.519531 12.15625 -19.25 C 12.925781 -18.976562 13.523438 -18.519531 13.953125 -17.875 C 14.378906 -17.226562 14.523438 -16.316406 14.390625 -15.140625 Z M 7.578125 -12.046875 C 8.191406 -11.972656 8.628906 -12.0625 8.890625 -12.3125 C 9.160156 -12.570312 9.316406 -12.882812 9.359375 -13.25 L 9.5625 -15.078125 C 9.59375 -15.410156 9.507812 -15.734375 9.3125 -16.046875 C 9.125 -16.367188 8.734375 -16.566406 8.140625 -16.640625 L 7.734375 -16.671875 L 7.203125 -12.078125 Z M 7.578125 -12.046875 "/></g></g></g><g fill="#000000" fill-opacity="1"><g transform="translate(495.434555, 353.378953)"><g><path d="M 11.453125 -15.375 L 7.796875 -15.78125 L 7.375 -12.015625 L 10.8125 -11.625 L 10.359375 -7.625 L 6.921875 -8.015625 L 6.421875 -3.484375 L 10.375 -3.046875 L 9.90625 1.109375 L 0.640625 0.078125 L 2.953125 -20.546875 L 11.921875 -19.546875 Z M 11.453125 -15.375 "/></g></g></g><g fill="#000000" fill-opacity="1"><g transform="translate(505.599162, 354.520247)"><g><path d="M 7.203125 -3.21875 L 7.265625 -3.21875 L 10.484375 -19.703125 L 15.453125 -19.15625 L 10.34375 1.15625 L 2.796875 0.3125 L 2.546875 -20.59375 L 7.859375 -20 Z M 7.203125 -3.21875 "/></g></g></g><g fill="#000000" fill-opacity="1"><g transform="translate(518.969034, 356.021432)"><g><path d="M 11.453125 -15.375 L 7.796875 -15.78125 L 7.375 -12.015625 L 10.8125 -11.625 L 10.359375 -7.625 L 6.921875 -8.015625 L 6.421875 -3.484375 L 10.375 -3.046875 L 9.90625 1.109375 L 0.640625 0.078125 L 2.953125 -20.546875 L 11.921875 -19.546875 Z M 11.453125 -15.375 "/></g></g></g><g fill="#000000" fill-opacity="1"><g transform="translate(529.133641, 357.162727)"><g/></g></g><g fill="#000000" fill-opacity="1"><g transform="translate(536.064025, 357.940878)"><g><path d="M 8.953125 -14.640625 C 9.878906 -14.535156 10.710938 -14.207031 11.453125 -13.65625 C 12.191406 -13.101562 12.742188 -12.40625 13.109375 -11.5625 C 13.484375 -10.71875 13.617188 -9.835938 13.515625 -8.921875 C 13.410156 -7.992188 13.082031 -7.160156 12.53125 -6.421875 C 11.988281 -5.679688 11.296875 -5.125 10.453125 -4.75 C 9.609375 -4.382812 8.722656 -4.253906 7.796875 -4.359375 C 6.878906 -4.460938 6.050781 -4.785156 5.3125 -5.328125 C 4.570312 -5.878906 4.015625 -6.578125 3.640625 -7.421875 C 3.265625 -8.265625 3.128906 -9.148438 3.234375 -10.078125 C 3.335938 -10.992188 3.664062 -11.820312 4.21875 -12.5625 C 4.769531 -13.300781 5.46875 -13.859375 6.3125 -14.234375 C 7.15625 -14.609375 8.035156 -14.742188 8.953125 -14.640625 Z M 8.953125 -14.640625 "/></g></g></g><g fill="#000000" fill-opacity="1"><g transform="translate(550.502343, 359.56203)"><g/></g></g><g fill="#000000" fill-opacity="1"><g transform="translate(557.432727, 360.340181)"><g><path d="M 11.453125 -15.375 L 7.796875 -15.78125 L 7.375 -12.015625 L 10.8125 -11.625 L 10.359375 -7.625 L 6.921875 -8.015625 L 6.421875 -3.484375 L 10.375 -3.046875 L 9.90625 1.109375 L 0.640625 0.078125 L 2.953125 -20.546875 L 11.921875 -19.546875 Z M 11.453125 -15.375 "/></g></g></g><g fill="#000000" fill-opacity="1"><g transform="translate(567.597334, 361.481475)"><g><path d="M 10.0625 -7.5625 L 10.125 -7.546875 L 12.71875 -19.453125 L 19.875 -18.65625 L 17.5625 1.96875 L 13.0625 1.46875 L 14.78125 -13.84375 L 14.71875 -13.859375 L 10.78125 1.203125 L 7.421875 0.828125 L 6.921875 -14.734375 L 6.859375 -14.734375 L 5.140625 0.578125 L 0.640625 0.078125 L 2.953125 -20.546875 L 10.03125 -19.765625 Z M 10.0625 -7.5625 "/></g></g></g><g fill="#000000" fill-opacity="1"><g transform="translate(585.789656, 363.524131)"><g/></g></g><g fill="#000000" fill-opacity="1"><g transform="translate(592.72004, 364.302283)"><g><path d="M 14.46875 -15.515625 L 14.1875 -13.03125 C 14.0625 -11.9375 13.671875 -11.195312 13.015625 -10.8125 C 12.359375 -10.4375 11.476562 -10.304688 10.375 -10.421875 L 10.3125 -10.359375 C 11.601562 -10.128906 12.53125 -9.625 13.09375 -8.84375 C 13.65625 -8.0625 13.875 -7.132812 13.75 -6.0625 L 13.40625 -2.96875 C 13.226562 -1.445312 12.679688 -0.378906 11.765625 0.234375 C 10.859375 0.859375 9.59375 1.078125 7.96875 0.890625 L 0.640625 0.078125 L 2.953125 -20.546875 L 10.609375 -19.6875 C 12.046875 -19.53125 13.082031 -19.113281 13.71875 -18.4375 C 14.351562 -17.757812 14.601562 -16.785156 14.46875 -15.515625 Z M 7.78125 -11.875 C 8.1875 -11.832031 8.503906 -11.921875 8.734375 -12.140625 C 8.972656 -12.367188 9.109375 -12.632812 9.140625 -12.9375 L 9.40625 -15.265625 C 9.4375 -15.523438 9.367188 -15.800781 9.203125 -16.09375 C 9.046875 -16.394531 8.734375 -16.570312 8.265625 -16.625 L 7.734375 -16.671875 L 7.1875 -11.9375 Z M 8.125 -3.84375 L 8.515625 -7.375 C 8.554688 -7.769531 8.476562 -8.085938 8.28125 -8.328125 C 8.082031 -8.566406 7.78125 -8.710938 7.375 -8.765625 L 6.84375 -8.8125 L 6.171875 -2.8125 C 6.242188 -2.789062 6.347656 -2.769531 6.484375 -2.75 C 6.941406 -2.695312 7.316406 -2.75 7.609375 -2.90625 C 7.898438 -3.070312 8.070312 -3.382812 8.125 -3.84375 Z M 8.125 -3.84375 "/></g></g></g><g fill="#000000" fill-opacity="1"><g transform="translate(606.089912, 365.803468)"><g><path d="M 14.390625 -15.140625 L 14.15625 -13.0625 C 14.03125 -11.925781 13.675781 -11.101562 13.09375 -10.59375 C 12.507812 -10.082031 11.691406 -9.847656 10.640625 -9.890625 L 10.625 -9.828125 C 11.757812 -9.628906 12.5625 -9.207031 13.03125 -8.5625 C 13.507812 -7.925781 13.6875 -7.039062 13.5625 -5.90625 L 12.734375 1.421875 L 7.765625 0.875 L 8.65625 -7.046875 C 8.78125 -8.171875 8.378906 -8.785156 7.453125 -8.890625 C 7.253906 -8.910156 7.054688 -8.90625 6.859375 -8.875 L 5.78125 0.65625 L 0.640625 0.078125 L 2.953125 -20.546875 L 9.15625 -19.859375 C 10.382812 -19.722656 11.382812 -19.519531 12.15625 -19.25 C 12.925781 -18.976562 13.523438 -18.519531 13.953125 -17.875 C 14.378906 -17.226562 14.523438 -16.316406 14.390625 -15.140625 Z M 7.578125 -12.046875 C 8.191406 -11.972656 8.628906 -12.0625 8.890625 -12.3125 C 9.160156 -12.570312 9.316406 -12.882812 9.359375 -13.25 L 9.5625 -15.078125 C 9.59375 -15.410156 9.507812 -15.734375 9.3125 -16.046875 C 9.125 -16.367188 8.734375 -16.566406 8.140625 -16.640625 L 7.734375 -16.671875 L 7.203125 -12.078125 Z M 7.578125 -12.046875 "/></g></g></g><g fill="#000000" fill-opacity="1"><g transform="translate(619.459785, 367.304653)"><g><path d="M 11.453125 -15.375 L 7.796875 -15.78125 L 7.375 -12.015625 L 10.8125 -11.625 L 10.359375 -7.625 L 6.921875 -8.015625 L 6.421875 -3.484375 L 10.375 -3.046875 L 9.90625 1.109375 L 0.640625 0.078125 L 2.953125 -20.546875 L 11.921875 -19.546875 Z M 11.453125 -15.375 "/></g></g></g><g fill="#000000" fill-opacity="1"><g transform="translate(629.624392, 368.445947)"><g><path d="M 7.203125 -3.21875 L 7.265625 -3.21875 L 10.484375 -19.703125 L 15.453125 -19.15625 L 10.34375 1.15625 L 2.796875 0.3125 L 2.546875 -20.59375 L 7.859375 -20 Z M 7.203125 -3.21875 "/></g></g></g><g fill="#000000" fill-opacity="1"><g transform="translate(642.994264, 369.947132)"><g><path d="M 11.453125 -15.375 L 7.796875 -15.78125 L 7.375 -12.015625 L 10.8125 -11.625 L 10.359375 -7.625 L 6.921875 -8.015625 L 6.421875 -3.484375 L 10.375 -3.046875 L 9.90625 1.109375 L 0.640625 0.078125 L 2.953125 -20.546875 L 11.921875 -19.546875 Z M 11.453125 -15.375 "/></g></g></g><g fill="#000000" fill-opacity="1"><g transform="translate(653.158871, 371.088426)"><g/></g></g><g fill="#000000" fill-opacity="1"><g transform="translate(660.089255, 371.866577)"><g><path d="M 8.953125 -14.640625 C 9.878906 -14.535156 10.710938 -14.207031 11.453125 -13.65625 C 12.191406 -13.101562 12.742188 -12.40625 13.109375 -11.5625 C 13.484375 -10.71875 13.617188 -9.835938 13.515625 -8.921875 C 13.410156 -7.992188 13.082031 -7.160156 12.53125 -6.421875 C 11.988281 -5.679688 11.296875 -5.125 10.453125 -4.75 C 9.609375 -4.382812 8.722656 -4.253906 7.796875 -4.359375 C 6.878906 -4.460938 6.050781 -4.785156 5.3125 -5.328125 C 4.570312 -5.878906 4.015625 -6.578125 3.640625 -7.421875 C 3.265625 -8.265625 3.128906 -9.148438 3.234375 -10.078125 C 3.335938 -10.992188 3.664062 -11.820312 4.21875 -12.5625 C 4.769531 -13.300781 5.46875 -13.859375 6.3125 -14.234375 C 7.15625 -14.609375 8.035156 -14.742188 8.953125 -14.640625 Z M 8.953125 -14.640625 "/></g></g></g><g fill="#000000" fill-opacity="1"><g transform="translate(674.527573, 373.487729)"><g/></g></g><g fill="#000000" fill-opacity="1"><g transform="translate(681.457957, 374.265881)"><g><path d="M 11.453125 -15.375 L 7.796875 -15.78125 L 7.375 -12.015625 L 10.8125 -11.625 L 10.359375 -7.625 L 6.921875 -8.015625 L 6.421875 -3.484375 L 10.375 -3.046875 L 9.90625 1.109375 L 0.640625 0.078125 L 2.953125 -20.546875 L 11.921875 -19.546875 Z M 11.453125 -15.375 "/></g></g></g><g fill="#000000" fill-opacity="1"><g transform="translate(691.622564, 375.407175)"><g><path d="M 10.0625 -7.5625 L 10.125 -7.546875 L 12.71875 -19.453125 L 19.875 -18.65625 L 17.5625 1.96875 L 13.0625 1.46875 L 14.78125 -13.84375 L 14.71875 -13.859375 L 10.78125 1.203125 L 7.421875 0.828125 L 6.921875 -14.734375 L 6.859375 -14.734375 L 5.140625 0.578125 L 0.640625 0.078125 L 2.953125 -20.546875 L 10.03125 -19.765625 Z M 10.0625 -7.5625 "/></g></g></g><g fill="#000000" fill-opacity="1"><g transform="translate(709.814886, 377.44983)"><g/></g></g><g fill="#000000" fill-opacity="1"><g transform="translate(716.74527, 378.227982)"><g><path d="M 14.46875 -15.515625 L 14.1875 -13.03125 C 14.0625 -11.9375 13.671875 -11.195312 13.015625 -10.8125 C 12.359375 -10.4375 11.476562 -10.304688 10.375 -10.421875 L 10.3125 -10.359375 C 11.601562 -10.128906 12.53125 -9.625 13.09375 -8.84375 C 13.65625 -8.0625 13.875 -7.132812 13.75 -6.0625 L 13.40625 -2.96875 C 13.226562 -1.445312 12.679688 -0.378906 11.765625 0.234375 C 10.859375 0.859375 9.59375 1.078125 7.96875 0.890625 L 0.640625 0.078125 L 2.953125 -20.546875 L 10.609375 -19.6875 C 12.046875 -19.53125 13.082031 -19.113281 13.71875 -18.4375 C 14.351562 -17.757812 14.601562 -16.785156 14.46875 -15.515625 Z M 7.78125 -11.875 C 8.1875 -11.832031 8.503906 -11.921875 8.734375 -12.140625 C 8.972656 -12.367188 9.109375 -12.632812 9.140625 -12.9375 L 9.40625 -15.265625 C 9.4375 -15.523438 9.367188 -15.800781 9.203125 -16.09375 C 9.046875 -16.394531 8.734375 -16.570312 8.265625 -16.625 L 7.734375 -16.671875 L 7.1875 -11.9375 Z M 8.125 -3.84375 L 8.515625 -7.375 C 8.554688 -7.769531 8.476562 -8.085938 8.28125 -8.328125 C 8.082031 -8.566406 7.78125 -8.710938 7.375 -8.765625 L 6.84375 -8.8125 L 6.171875 -2.8125 C 6.242188 -2.789062 6.347656 -2.769531 6.484375 -2.75 C 6.941406 -2.695312 7.316406 -2.75 7.609375 -2.90625 C 7.898438 -3.070312 8.070312 -3.382812 8.125 -3.84375 Z M 8.125 -3.84375 "/></g></g></g><g fill="#000000" fill-opacity="1"><g transform="translate(730.115143, 379.729167)"><g><path d="M 14.390625 -15.140625 L 14.15625 -13.0625 C 14.03125 -11.925781 13.675781 -11.101562 13.09375 -10.59375 C 12.507812 -10.082031 11.691406 -9.847656 10.640625 -9.890625 L 10.625 -9.828125 C 11.757812 -9.628906 12.5625 -9.207031 13.03125 -8.5625 C 13.507812 -7.925781 13.6875 -7.039062 13.5625 -5.90625 L 12.734375 1.421875 L 7.765625 0.875 L 8.65625 -7.046875 C 8.78125 -8.171875 8.378906 -8.785156 7.453125 -8.890625 C 7.253906 -8.910156 7.054688 -8.90625 6.859375 -8.875 L 5.78125 0.65625 L 0.640625 0.078125 L 2.953125 -20.546875 L 9.15625 -19.859375 C 10.382812 -19.722656 11.382812 -19.519531 12.15625 -19.25 C 12.925781 -18.976562 13.523438 -18.519531 13.953125 -17.875 C 14.378906 -17.226562 14.523438 -16.316406 14.390625 -15.140625 Z M 7.578125 -12.046875 C 8.191406 -11.972656 8.628906 -12.0625 8.890625 -12.3125 C 9.160156 -12.570312 9.316406 -12.882812 9.359375 -13.25 L 9.5625 -15.078125 C 9.59375 -15.410156 9.507812 -15.734375 9.3125 -16.046875 C 9.125 -16.367188 8.734375 -16.566406 8.140625 -16.640625 L 7.734375 -16.671875 L 7.203125 -12.078125 Z M 7.578125 -12.046875 "/></g></g></g><g fill="#000000" fill-opacity="1"><g transform="translate(743.485015, 381.230352)"><g><path d="M 11.453125 -15.375 L 7.796875 -15.78125 L 7.375 -12.015625 L 10.8125 -11.625 L 10.359375 -7.625 L 6.921875 -8.015625 L 6.421875 -3.484375 L 10.375 -3.046875 L 9.90625 1.109375 L 0.640625 0.078125 L 2.953125 -20.546875 L 11.921875 -19.546875 Z M 11.453125 -15.375 "/></g></g></g><g fill="#000000" fill-opacity="1"><g transform="translate(753.649622, 382.371646)"><g><path d="M 7.203125 -3.21875 L 7.265625 -3.21875 L 10.484375 -19.703125 L 15.453125 -19.15625 L 10.34375 1.15625 L 2.796875 0.3125 L 2.546875 -20.59375 L 7.859375 -20 Z M 7.203125 -3.21875 "/></g></g></g><g fill="#000000" fill-opacity="1"><g transform="translate(767.019494, 383.872831)"><g><path d="M 11.453125 -15.375 L 7.796875 -15.78125 L 7.375 -12.015625 L 10.8125 -11.625 L 10.359375 -7.625 L 6.921875 -8.015625 L 6.421875 -3.484375 L 10.375 -3.046875 L 9.90625 1.109375 L 0.640625 0.078125 L 2.953125 -20.546875 L 11.921875 -19.546875 Z M 11.453125 -15.375 "/></g></g></g><g fill="#000000" fill-opacity="1"><g transform="translate(777.184101, 385.014125)"><g/></g></g><g fill="#000000" fill-opacity="1"><g transform="translate(784.114485, 385.792277)"><g><path d="M 8.953125 -14.640625 C 9.878906 -14.535156 10.710938 -14.207031 11.453125 -13.65625 C 12.191406 -13.101562 12.742188 -12.40625 13.109375 -11.5625 C 13.484375 -10.71875 13.617188 -9.835938 13.515625 -8.921875 C 13.410156 -7.992188 13.082031 -7.160156 12.53125 -6.421875 C 11.988281 -5.679688 11.296875 -5.125 10.453125 -4.75 C 9.609375 -4.382812 8.722656 -4.253906 7.796875 -4.359375 C 6.878906 -4.460938 6.050781 -4.785156 5.3125 -5.328125 C 4.570312 -5.878906 4.015625 -6.578125 3.640625 -7.421875 C 3.265625 -8.265625 3.128906 -9.148438 3.234375 -10.078125 C 3.335938 -10.992188 3.664062 -11.820312 4.21875 -12.5625 C 4.769531 -13.300781 5.46875 -13.859375 6.3125 -14.234375 C 7.15625 -14.609375 8.035156 -14.742188 8.953125 -14.640625 Z M 8.953125 -14.640625 "/></g></g></g><g fill="#000000" fill-opacity="1"><g transform="translate(798.552804, 387.413428)"><g/></g></g><g fill="#000000" fill-opacity="1"><g transform="translate(805.483187, 388.19158)"><g><path d="M 11.453125 -15.375 L 7.796875 -15.78125 L 7.375 -12.015625 L 10.8125 -11.625 L 10.359375 -7.625 L 6.921875 -8.015625 L 6.421875 -3.484375 L 10.375 -3.046875 L 9.90625 1.109375 L 0.640625 0.078125 L 2.953125 -20.546875 L 11.921875 -19.546875 Z M 11.453125 -15.375 "/></g></g></g><g fill="#ffc710" fill-opacity="1"><g transform="translate(142.026228, 461.67275)"><g><path d="M 40.828125 -51.78125 L 41.109375 -51.78125 L 41.109375 -103 L 63.609375 -103 L 63.609375 0 L 41.109375 0 L 26.109375 -57.5625 L 25.671875 -57.5625 L 25.671875 0 L 3.171875 0 L 3.171875 -103 L 25.671875 -103 Z M 40.828125 -51.78125 "/></g></g></g><g fill="#ffc710" fill-opacity="1"><g transform="translate(208.812193, 461.67275)"><g><path d="M 34.765625 -105.15625 C 45.054688 -105.15625 52.894531 -102.703125 58.28125 -97.796875 C 63.664062 -92.890625 66.359375 -84.957031 66.359375 -74 L 66.359375 -29 C 66.359375 -18.125 63.6875 -10.210938 58.34375 -5.265625 C 53.007812 -0.316406 45.148438 2.15625 34.765625 2.15625 C 24.378906 2.15625 16.515625 -0.269531 11.171875 -5.125 C 5.835938 -9.976562 3.171875 -17.9375 3.171875 -29 L 3.171875 -74 C 3.171875 -84.863281 5.835938 -92.769531 11.171875 -97.71875 C 16.515625 -102.675781 24.378906 -105.15625 34.765625 -105.15625 Z M 29.71875 -81.5 L 29.71875 -21.5 C 29.71875 -19.476562 30.148438 -17.910156 31.015625 -16.796875 C 31.878906 -15.691406 33.128906 -15.140625 34.765625 -15.140625 C 36.398438 -15.140625 37.648438 -15.691406 38.515625 -16.796875 C 39.378906 -17.910156 39.8125 -19.476562 39.8125 -21.5 L 39.8125 -81.5 C 39.8125 -83.519531 39.378906 -85.082031 38.515625 -86.1875 C 37.648438 -87.289062 36.398438 -87.84375 34.765625 -87.84375 C 31.398438 -87.84375 29.71875 -85.726562 29.71875 -81.5 Z M 29.71875 -81.5 "/></g></g></g><g fill="#ffc710" fill-opacity="1"><g transform="translate(278.338835, 461.67275)"><g><path d="M 33.75 -19.90625 L 34.046875 -19.90625 L 40.828125 -103 L 65.640625 -103 L 51.640625 0 L 14 0 L 1.15625 -103 L 27.703125 -103 Z M 33.75 -19.90625 "/></g></g></g><g fill="#ffc710" fill-opacity="1"><g transform="translate(345.124789, 461.67275)"><g><path d="M 29.28125 0 L 2.734375 0 L 2.734375 -103 L 29.28125 -103 Z M 29.28125 0 "/></g></g></g><g fill="#ffc710" fill-opacity="1"><g transform="translate(377.147439, 461.67275)"><g><path d="M 66.359375 -77.3125 L 66.359375 -19.328125 C 66.359375 -12.984375 64.238281 -8.175781 60 -4.90625 C 55.769531 -1.632812 50.242188 0 43.421875 0 L 3.171875 0 L 3.171875 -103 L 37.65625 -103 C 44 -103 49.238281 -102.300781 53.375 -100.90625 C 57.507812 -99.507812 60.707031 -96.9375 62.96875 -93.1875 C 65.226562 -89.4375 66.359375 -84.144531 66.359375 -77.3125 Z M 39.8125 -24.953125 L 39.8125 -78.046875 C 39.8125 -79.960938 39.257812 -81.710938 38.15625 -83.296875 C 37.050781 -84.890625 35.632812 -85.6875 33.90625 -85.6875 L 29.71875 -85.6875 L 29.71875 -17.3125 L 33.90625 -17.3125 C 35.632812 -17.3125 37.050781 -18.078125 38.15625 -19.609375 C 39.257812 -21.148438 39.8125 -22.929688 39.8125 -24.953125 Z M 39.8125 -24.953125 "/></g></g></g><g fill="#ffc710" fill-opacity="1"><g transform="translate(446.67407, 461.67275)"><g><path d="M 66.0625 0 L 39.53125 0 L 38.21875 -18.171875 L 28.5625 -18.171875 L 27.265625 0 L 0.71875 0 L 13.703125 -103 L 51.9375 -103 Z M 28.5625 -36.34375 L 37.796875 -36.34375 L 33.171875 -84.8125 L 32.890625 -84.8125 Z M 28.5625 -36.34375 "/></g></g></g><g fill="#ffc710" fill-opacity="1"><g transform="translate(513.460047, 461.67275)"><g><path d="M 66.359375 -77.3125 L 66.359375 -19.328125 C 66.359375 -12.984375 64.238281 -8.175781 60 -4.90625 C 55.769531 -1.632812 50.242188 0 43.421875 0 L 3.171875 0 L 3.171875 -103 L 37.65625 -103 C 44 -103 49.238281 -102.300781 53.375 -100.90625 C 57.507812 -99.507812 60.707031 -96.9375 62.96875 -93.1875 C 65.226562 -89.4375 66.359375 -84.144531 66.359375 -77.3125 Z M 39.8125 -24.953125 L 39.8125 -78.046875 C 39.8125 -79.960938 39.257812 -81.710938 38.15625 -83.296875 C 37.050781 -84.890625 35.632812 -85.6875 33.90625 -85.6875 L 29.71875 -85.6875 L 29.71875 -17.3125 L 33.90625 -17.3125 C 35.632812 -17.3125 37.050781 -18.078125 38.15625 -19.609375 C 39.257812 -21.148438 39.8125 -22.929688 39.8125 -24.953125 Z M 39.8125 -24.953125 "/></g></g></g><g fill="#ffc710" fill-opacity="1"><g transform="translate(582.9867, 461.67275)"><g><path d="M 48.03125 -82.21875 L 29.71875 -82.21875 L 29.71875 -63.328125 L 46.875 -63.328125 L 46.875 -43.421875 L 29.71875 -43.421875 L 29.71875 -20.765625 L 49.484375 -20.765625 L 49.484375 0 L 3.171875 0 L 3.171875 -103 L 48.03125 -103 Z M 48.03125 -82.21875 "/></g></g></g><g fill="#ffc710" fill-opacity="1"><g transform="translate(633.761341, 461.67275)"><g><path d="M 31.015625 -105.15625 C 50.535156 -105.15625 60.296875 -97.800781 60.296875 -83.09375 L 60.296875 -72.84375 L 36.5 -72.84375 L 36.5 -81.796875 C 36.5 -86.410156 34.765625 -88.71875 31.296875 -88.71875 C 28.316406 -88.71875 26.828125 -86.597656 26.828125 -82.359375 L 26.828125 -77.171875 C 26.828125 -75.242188 27.5 -73.4375 28.84375 -71.75 C 30.195312 -70.070312 31.640625 -68.703125 33.171875 -67.640625 C 34.710938 -66.585938 37.164062 -65.050781 40.53125 -63.03125 C 44.664062 -60.53125 48.195312 -58.078125 51.125 -55.671875 C 54.0625 -53.273438 56.613281 -50.175781 58.78125 -46.375 C 60.945312 -42.570312 62.03125 -38.078125 62.03125 -32.890625 L 62.03125 -23.65625 C 62.03125 -13.945312 59.265625 -7.21875 53.734375 -3.46875 C 48.203125 0.28125 40.628906 2.15625 31.015625 2.15625 C 20.429688 2.15625 12.972656 0.0390625 8.640625 -4.1875 C 4.316406 -8.414062 2.15625 -14.953125 2.15625 -23.796875 L 2.15625 -37.5 L 26.96875 -37.5 L 26.96875 -20.484375 C 26.96875 -16.347656 28.460938 -14.28125 31.453125 -14.28125 C 33.085938 -14.28125 34.3125 -14.925781 35.125 -16.21875 C 35.9375 -17.519531 36.34375 -19.710938 36.34375 -22.796875 L 36.34375 -28.265625 C 36.34375 -30.867188 35.644531 -33.175781 34.25 -35.1875 C 32.863281 -37.207031 31.328125 -38.84375 29.640625 -40.09375 C 27.960938 -41.351562 25.582031 -42.941406 22.5 -44.859375 C 18.363281 -47.359375 14.925781 -49.710938 12.1875 -51.921875 C 9.445312 -54.140625 7.066406 -57.023438 5.046875 -60.578125 C 3.023438 -64.140625 2.015625 -68.375 2.015625 -73.28125 L 2.015625 -80.203125 C 2.015625 -96.835938 11.679688 -105.15625 31.015625 -105.15625 Z M 31.015625 -105.15625 "/></g></g></g><g fill="#ffc710" fill-opacity="1"><g transform="translate(228.597971, 329.326088)"><g><path d="M 33.75 -19.90625 L 34.046875 -19.90625 L 40.828125 -103 L 65.640625 -103 L 51.640625 0 L 14 0 L 1.15625 -103 L 27.703125 -103 Z M 33.75 -19.90625 "/></g></g></g><g fill="#ffc710" fill-opacity="1"><g transform="translate(295.383936, 329.326088)"><g><path d="M 48.03125 -82.21875 L 29.71875 -82.21875 L 29.71875 -63.328125 L 46.875 -63.328125 L 46.875 -43.421875 L 29.71875 -43.421875 L 29.71875 -20.765625 L 49.484375 -20.765625 L 49.484375 0 L 3.171875 0 L 3.171875 -103 L 48.03125 -103 Z M 48.03125 -82.21875 "/></g></g></g><g fill="#ffc710" fill-opacity="1"><g transform="translate(346.158587, 329.326088)"><g><path d="M 45.4375 -42.84375 L 45.734375 -42.84375 L 51.9375 -103 L 87.703125 -103 L 87.703125 0 L 65.203125 0 L 65.203125 -76.453125 L 64.90625 -76.453125 L 53.8125 0 L 37.078125 0 L 25.96875 -76.453125 L 25.671875 -76.453125 L 25.671875 0 L 3.171875 0 L 3.171875 -103 L 38.515625 -103 Z M 45.4375 -42.84375 "/></g></g></g></svg>